<svg width="161" height="50" viewBox="0 0 161 50" fill="none" xmlns="http://www.w3.org/2000/svg">
<path d="M60.023 34H61.625L64.541 23.839L67.457 34H69.059L72.812 21.04H71.129L68.258 31.291L65.378 21.04L63.695 21.049L60.824 31.291L57.944 21.04H56.27L60.023 34ZM77.4857 34.27C78.4277 34.27 79.2767 34.036 80.0327 33.568C80.7887 33.094 81.3587 32.428 81.7427 31.57L80.2037 31.039C79.6457 32.179 78.7157 32.749 77.4137 32.749C76.5197 32.749 75.8177 32.476 75.3077 31.93C74.8037 31.378 74.5187 30.598 74.4527 29.59H81.9047C81.9527 28.438 81.8027 27.445 81.4547 26.611C81.1127 25.777 80.5967 25.135 79.9067 24.685C79.2227 24.235 78.3917 24.01 77.4137 24.01C76.4717 24.01 75.6497 24.223 74.9477 24.649C74.2457 25.069 73.6997 25.669 73.3097 26.449C72.9257 27.223 72.7337 28.141 72.7337 29.203C72.7337 30.217 72.9287 31.105 73.3187 31.867C73.7147 32.623 74.2697 33.214 74.9837 33.64C75.6977 34.06 76.5317 34.27 77.4857 34.27ZM77.4677 25.45C79.1177 25.45 80.0417 26.401 80.2397 28.303H74.4797C74.5937 27.379 74.9027 26.674 75.4067 26.188C75.9107 25.696 76.5977 25.45 77.4677 25.45ZM90.851 34H92.453V22.561H96.872V21.04H86.432V22.561H90.851V34ZM97.4084 34H99.0194V29.122C99.0194 28.546 99.0974 27.991 99.2534 27.457C99.4094 26.923 99.7244 26.488 100.198 26.152C100.534 25.906 100.903 25.762 101.305 25.72C101.713 25.678 102.085 25.699 102.421 25.783V24.28C101.989 24.184 101.515 24.184 100.999 24.28C100.483 24.376 100.039 24.574 99.6674 24.874C99.3434 25.102 99.0674 25.417 98.8394 25.819V24.28H97.4084V34ZM106.57 34.27C108.19 34.27 109.39 33.676 110.17 32.488V34H111.592V27.988C111.592 27.604 111.574 27.238 111.538 26.89C111.502 26.536 111.415 26.209 111.277 25.909C111.001 25.273 110.545 24.799 109.909 24.487C109.273 24.169 108.517 24.01 107.641 24.01C106.543 24.01 105.655 24.253 104.977 24.739C104.305 25.225 103.855 25.894 103.627 26.746L105.148 27.205C105.322 26.611 105.631 26.179 106.075 25.909C106.519 25.639 107.035 25.504 107.623 25.504C108.463 25.504 109.066 25.693 109.432 26.071C109.804 26.443 109.999 27.016 110.017 27.79C109.297 27.892 108.541 28 107.749 28.114C106.963 28.222 106.264 28.357 105.652 28.519C104.914 28.735 104.332 29.074 103.906 29.536C103.48 29.992 103.267 30.604 103.267 31.372C103.267 31.894 103.39 32.374 103.636 32.812C103.888 33.25 104.257 33.604 104.743 33.874C105.235 34.138 105.844 34.27 106.57 34.27ZM106.813 32.929C106.123 32.929 105.625 32.77 105.319 32.452C105.013 32.128 104.86 31.765 104.86 31.363C104.86 30.907 105.01 30.559 105.31 30.319C105.616 30.073 105.97 29.887 106.372 29.761C106.846 29.629 107.398 29.518 108.028 29.428C108.658 29.338 109.315 29.248 109.999 29.158C109.999 29.38 109.987 29.632 109.963 29.914C109.945 30.196 109.903 30.454 109.837 30.688C109.723 31.288 109.405 31.813 108.883 32.263C108.367 32.707 107.677 32.929 106.813 32.929ZM114.112 22.561H115.714V20.905H114.112V22.561ZM114.112 34H115.714V24.28H114.112V34ZM118.405 34H120.025V28.879C120.025 27.751 120.268 26.914 120.754 26.368C121.246 25.822 121.894 25.549 122.698 25.549C123.382 25.549 123.916 25.72 124.3 26.062C124.684 26.404 124.951 26.848 125.101 27.394C125.257 27.94 125.335 28.519 125.335 29.131V34H126.955V28.627C126.955 28.165 126.898 27.67 126.784 27.142C126.676 26.608 126.478 26.107 126.19 25.639C125.908 25.165 125.515 24.778 125.011 24.478C124.513 24.178 123.871 24.028 123.085 24.028C121.669 24.028 120.589 24.529 119.845 25.531V24.28H118.405V34ZM138.011 34.27C139.013 34.27 139.898 34.063 140.666 33.649C141.434 33.235 142.034 32.653 142.466 31.903C142.904 31.153 143.123 30.277 143.123 29.275V21.04H141.503V29.14C141.503 29.95 141.326 30.625 140.972 31.165C140.624 31.699 140.18 32.098 139.64 32.362C139.106 32.626 138.563 32.758 138.011 32.758C137.465 32.758 136.922 32.629 136.382 32.371C135.848 32.107 135.404 31.708 135.05 31.174C134.696 30.634 134.519 29.956 134.519 29.14V21.04L132.899 21.049V29.275C132.899 30.283 133.115 31.162 133.547 31.912C133.985 32.656 134.588 33.235 135.356 33.649C136.124 34.063 137.009 34.27 138.011 34.27Z" fill="#1C2945"/>
<path d="M29.9997 29.6665C29.9997 30.1598 29.8663 30.5998 29.6263 30.9998C29.173 30.2132 28.3197 29.6665 27.333 29.6665C26.3463 29.6665 25.493 30.2132 25.0397 30.9998C24.813 30.5998 24.6663 30.1598 24.6663 29.6665C24.6663 28.1998 25.8663 26.9998 27.333 26.9998C28.7997 26.9998 29.9997 28.1998 29.9997 29.6665ZM46.6663 28.9998V32.9998C46.6663 33.7332 46.0663 34.3332 45.333 34.3332H43.9997V35.6665C43.9997 37.1465 42.813 38.3332 41.333 38.3332H22.6663C21.9591 38.3332 21.2808 38.0522 20.7807 37.5521C20.2806 37.052 19.9997 36.3737 19.9997 35.6665V34.3332H18.6663C17.933 34.3332 17.333 33.7332 17.333 32.9998V28.9998C17.333 28.2665 17.933 27.6665 18.6663 27.6665H19.9997C19.9997 22.5065 24.173 18.3332 29.333 18.3332H30.6663V16.6398C29.8663 16.1865 29.333 15.3198 29.333 14.3332C29.333 12.8665 30.533 11.6665 31.9997 11.6665C33.4663 11.6665 34.6663 12.8665 34.6663 14.3332C34.6663 15.3198 34.133 16.1865 33.333 16.6398V18.3332H34.6663C39.8263 18.3332 43.9997 22.5065 43.9997 27.6665H45.333C46.0663 27.6665 46.6663 28.2665 46.6663 28.9998ZM43.9997 30.3332H41.333V27.6665C41.333 23.9865 38.3463 20.9998 34.6663 20.9998H29.333C25.653 20.9998 22.6663 23.9865 22.6663 27.6665V30.3332H19.9997V31.6665H22.6663V35.6665H41.333V31.6665H43.9997V30.3332ZM36.6663 26.9998C35.1997 26.9998 33.9997 28.1998 33.9997 29.6665C33.9997 30.1598 34.1463 30.5998 34.373 30.9998C34.8263 30.2132 35.6797 29.6665 36.6663 29.6665C37.653 29.6665 38.5063 30.2132 38.9597 30.9998C39.1997 30.5998 39.333 30.1598 39.333 29.6665C39.333 28.9593 39.0521 28.281 38.552 27.7809C38.0519 27.2808 37.3736 26.9998 36.6663 26.9998V26.9998Z" fill="#1C2945"/>
</svg>
