<svg width="161" height="50" viewBox="0 0 161 50" fill="none" xmlns="http://www.w3.org/2000/svg">
<path d="M60.005 34H61.877L64.658 24.307L67.439 34H69.311L73.082 21.04H71.102L68.375 30.841L65.648 21.04L63.668 21.049L60.941 30.841L58.214 21.04H56.243L60.005 34ZM77.8308 34.27C78.7728 34.27 79.6278 34.033 80.3958 33.559C81.1638 33.079 81.7368 32.404 82.1148 31.534L80.2698 30.949C79.7778 31.981 78.9348 32.497 77.7408 32.497C76.9248 32.497 76.2828 32.251 75.8148 31.759C75.3468 31.267 75.0738 30.571 74.9958 29.671H82.2408C82.3068 28.507 82.1688 27.502 81.8268 26.656C81.4848 25.81 80.9658 25.159 80.2698 24.703C79.5738 24.241 78.7308 24.01 77.7408 24.01C76.7928 24.01 75.9618 24.223 75.2478 24.649C74.5338 25.075 73.9758 25.678 73.5738 26.458C73.1778 27.238 72.9798 28.159 72.9798 29.221C72.9798 30.223 73.1808 31.105 73.5828 31.867C73.9908 32.623 74.5578 33.214 75.2838 33.64C76.0158 34.06 76.8648 34.27 77.8308 34.27ZM77.8128 25.675C79.2828 25.675 80.1168 26.518 80.3148 28.204H75.0408C75.1608 27.382 75.4518 26.755 75.9138 26.323C76.3758 25.891 77.0088 25.675 77.8128 25.675ZM91.0945 34H92.9755V22.813H97.2865V21.04H86.7835V22.813H91.0945V34ZM97.8303 34H99.7293V29.095C99.7293 28.525 99.8193 27.997 99.9993 27.511C100.179 27.025 100.497 26.635 100.953 26.341C101.277 26.131 101.634 26.008 102.024 25.972C102.414 25.936 102.765 25.96 103.077 26.044V24.28C102.639 24.196 102.174 24.199 101.682 24.289C101.196 24.379 100.77 24.559 100.404 24.829C100.044 25.069 99.7443 25.402 99.5043 25.828V24.28H97.8303V34ZM107.273 34.27C108.821 34.27 109.988 33.709 110.774 32.587V34H112.439V28.015C112.439 27.607 112.421 27.226 112.385 26.872C112.349 26.518 112.253 26.182 112.097 25.864C111.797 25.222 111.323 24.754 110.675 24.46C110.033 24.16 109.277 24.01 108.407 24.01C107.285 24.01 106.385 24.256 105.707 24.748C105.029 25.24 104.573 25.903 104.339 26.737L106.094 27.277C106.262 26.737 106.559 26.347 106.985 26.107C107.411 25.867 107.879 25.747 108.389 25.747C109.145 25.747 109.691 25.909 110.027 26.233C110.369 26.551 110.555 27.046 110.585 27.718C109.793 27.826 109.019 27.94 108.263 28.06C107.507 28.174 106.847 28.312 106.283 28.474C105.533 28.714 104.963 29.071 104.573 29.545C104.183 30.019 103.988 30.622 103.988 31.354C103.988 31.882 104.111 32.368 104.357 32.812C104.609 33.25 104.978 33.604 105.464 33.874C105.956 34.138 106.559 34.27 107.273 34.27ZM107.606 32.731C107.006 32.731 106.562 32.593 106.274 32.317C105.992 32.041 105.851 31.714 105.851 31.336C105.851 30.952 105.977 30.649 106.229 30.427C106.487 30.205 106.808 30.028 107.192 29.896C107.6 29.776 108.08 29.671 108.632 29.581C109.19 29.491 109.835 29.392 110.567 29.284C110.561 29.512 110.546 29.767 110.522 30.049C110.498 30.331 110.447 30.583 110.369 30.805C110.297 31.123 110.144 31.429 109.91 31.723C109.682 32.017 109.373 32.26 108.983 32.452C108.599 32.638 108.14 32.731 107.606 32.731ZM114.956 22.687H116.837V20.86H114.956V22.687ZM114.956 34H116.837V24.28H114.956V34ZM119.53 34H121.438V28.942C121.438 28.174 121.549 27.562 121.771 27.106C121.999 26.644 122.299 26.311 122.671 26.107C123.043 25.903 123.454 25.801 123.904 25.801C124.42 25.801 124.84 25.906 125.164 26.116C125.488 26.326 125.737 26.602 125.911 26.944C126.085 27.286 126.202 27.658 126.262 28.06C126.328 28.456 126.361 28.843 126.361 29.221V34H128.269V28.6C128.269 28.3 128.242 27.952 128.188 27.556C128.134 27.16 128.032 26.755 127.882 26.341C127.732 25.927 127.513 25.546 127.225 25.198C126.943 24.844 126.574 24.559 126.118 24.343C125.662 24.127 125.098 24.019 124.426 24.019C123.724 24.019 123.1 24.145 122.554 24.397C122.014 24.649 121.567 24.997 121.213 25.441V24.28H119.53V34ZM139.383 34.27C140.403 34.27 141.3 34.063 142.074 33.649C142.848 33.229 143.454 32.641 143.892 31.885C144.33 31.129 144.549 30.244 144.549 29.23V21.04H142.641V29.131C142.641 29.857 142.482 30.472 142.164 30.976C141.846 31.474 141.438 31.852 140.94 32.11C140.448 32.368 139.929 32.497 139.383 32.497C138.849 32.497 138.33 32.371 137.826 32.119C137.328 31.861 136.92 31.483 136.602 30.985C136.284 30.487 136.125 29.869 136.125 29.131V21.04L134.217 21.049V29.23C134.217 30.244 134.436 31.129 134.874 31.885C135.312 32.641 135.918 33.229 136.692 33.649C137.472 34.063 138.369 34.27 139.383 34.27Z" fill="#1C2945"/>
<path d="M30.0002 29.6666C30.0002 30.16 29.8668 30.6 29.6268 31C29.1735 30.2133 28.3202 29.6666 27.3335 29.6666C26.3468 29.6666 25.4935 30.2133 25.0402 31C24.8135 30.6 24.6668 30.16 24.6668 29.6666C24.6668 28.2 25.8668 27 27.3335 27C28.8002 27 30.0002 28.2 30.0002 29.6666ZM46.6668 29V33C46.6668 33.7333 46.0668 34.3333 45.3335 34.3333H44.0002V35.6666C44.0002 37.1466 42.8135 38.3333 41.3335 38.3333H22.6668C21.9596 38.3333 21.2813 38.0523 20.7812 37.5522C20.2811 37.0521 20.0002 36.3739 20.0002 35.6666V34.3333H18.6668C17.9335 34.3333 17.3335 33.7333 17.3335 33V29C17.3335 28.2666 17.9335 27.6666 18.6668 27.6666H20.0002C20.0002 22.5066 24.1735 18.3333 29.3335 18.3333H30.6668V16.64C29.8668 16.1866 29.3335 15.32 29.3335 14.3333C29.3335 12.8666 30.5335 11.6666 32.0002 11.6666C33.4668 11.6666 34.6668 12.8666 34.6668 14.3333C34.6668 15.32 34.1335 16.1866 33.3335 16.64V18.3333H34.6668C39.8268 18.3333 44.0002 22.5066 44.0002 27.6666H45.3335C46.0668 27.6666 46.6668 28.2666 46.6668 29ZM44.0002 30.3333H41.3335V27.6666C41.3335 23.9866 38.3468 21 34.6668 21H29.3335C25.6535 21 22.6668 23.9866 22.6668 27.6666V30.3333H20.0002V31.6666H22.6668V35.6666H41.3335V31.6666H44.0002V30.3333ZM36.6668 27C35.2002 27 34.0002 28.2 34.0002 29.6666C34.0002 30.16 34.1468 30.6 34.3735 31C34.8268 30.2133 35.6802 29.6666 36.6668 29.6666C37.6535 29.6666 38.5068 30.2133 38.9602 31C39.2002 30.6 39.3335 30.16 39.3335 29.6666C39.3335 28.9594 39.0525 28.2811 38.5524 27.781C38.0523 27.2809 37.3741 27 36.6668 27V27Z" fill="#1C2945"/>
</svg>
