<svg width="250" height="250" viewBox="0 0 250 250" fill="none" xmlns="http://www.w3.org/2000/svg">
<path d="M125.32 244.77C191.68 244.77 245.475 216.931 245.475 182.59C245.475 148.249 191.68 120.41 125.32 120.41C58.9603 120.41 5.16504 148.249 5.16504 182.59C5.16504 216.931 58.9603 244.77 125.32 244.77Z" fill="#F5F5F5"/>
<path d="M180.525 149.59C180.536 149.466 180.579 149.348 180.651 149.247C180.724 149.145 180.821 149.066 180.935 149.015C181.241 148.86 181.579 148.779 181.922 148.779C182.266 148.779 182.604 148.86 182.91 149.015C183.023 149.066 183.12 149.147 183.192 149.248C183.264 149.348 183.308 149.467 183.32 149.59L180.77 162.665C180.76 162.75 180.727 162.831 180.677 162.9C180.626 162.97 180.558 163.025 180.48 163.06C180.264 163.171 180.025 163.229 179.782 163.229C179.54 163.229 179.301 163.171 179.085 163.06C179.007 163.025 178.939 162.97 178.888 162.9C178.837 162.831 178.805 162.75 178.795 162.665L180.525 149.59Z" fill="#455A64"/>
<path d="M216.71 149.59C216.7 149.467 216.656 149.349 216.585 149.248C216.514 149.147 216.418 149.067 216.305 149.015C215.996 148.856 215.653 148.773 215.305 148.773C214.958 148.773 214.615 148.856 214.305 149.015C214.193 149.067 214.097 149.147 214.025 149.248C213.954 149.349 213.911 149.467 213.9 149.59L216.445 162.665C216.455 162.75 216.487 162.83 216.537 162.9C216.586 162.969 216.653 163.024 216.73 163.06C216.947 163.171 217.187 163.229 217.43 163.229C217.674 163.229 217.914 163.171 218.13 163.06C218.208 163.024 218.274 162.969 218.324 162.9C218.374 162.83 218.405 162.75 218.415 162.665L216.71 149.59Z" fill="#455A64"/>
<path d="M200.186 151.525C200.175 151.402 200.131 151.284 200.059 151.184C199.986 151.084 199.889 151.005 199.776 150.955C199.47 150.8 199.131 150.719 198.788 150.719C198.445 150.719 198.107 150.8 197.801 150.955C197.688 151.005 197.591 151.085 197.519 151.185C197.447 151.285 197.403 151.402 197.391 151.525L197.801 170.175C197.811 170.26 197.843 170.341 197.894 170.41C197.945 170.48 198.012 170.535 198.091 170.57C198.307 170.679 198.546 170.735 198.788 170.735C199.03 170.735 199.269 170.679 199.486 170.57C199.564 170.535 199.632 170.48 199.682 170.41C199.733 170.341 199.765 170.26 199.776 170.175L200.186 151.525Z" fill="#455A64"/>
<path d="M223.832 139.625H223.807C223.807 135.925 221.387 132.225 216.497 129.405C206.717 123.76 190.862 123.76 181.087 129.405C176.197 132.225 173.772 135.905 173.772 139.625V141.625C173.827 145.275 176.272 148.915 181.107 151.7C190.882 157.345 206.737 157.345 216.517 151.7C221.342 148.915 223.792 145.275 223.852 141.625L223.832 139.625Z" fill="#1C2945"/>
<path d="M181.08 129.405C171.305 135.05 171.305 144.205 181.08 149.85C190.855 155.495 206.71 155.495 216.49 149.85C226.27 144.205 226.27 135.05 216.49 129.405C206.71 123.76 190.86 123.76 181.08 129.405Z" fill="#1C2945"/>
<path opacity="0.45" d="M181.08 129.405C171.305 135.05 171.305 144.205 181.08 149.85C190.855 155.495 206.71 155.495 216.49 149.85C226.27 144.205 226.27 135.05 216.49 129.405C206.71 123.76 190.86 123.76 181.08 129.405Z" fill="white"/>
<g opacity="0.05">
<path opacity="0.05" d="M204.275 137.21C207.395 139.01 207.395 141.93 204.275 143.71C201.155 145.49 196.095 145.51 192.98 143.71C189.865 141.91 189.86 138.99 192.98 137.21C196.1 135.43 201.155 135.405 204.275 137.21Z" fill="black"/>
</g>
<path d="M193.66 140.87C190.94 138.1 189.345 131.18 191.995 128.98H205.495C208.145 131.18 206.55 138.095 203.835 140.87L203.765 140.945L203.67 141.035C203.59 141.11 203.51 141.185 203.425 141.255L203.36 141.305L203.155 141.46C203.042 141.543 202.923 141.618 202.8 141.685C200.57 142.975 196.945 142.975 194.71 141.685C194.59 141.62 194.475 141.54 194.355 141.46L194.165 141.315L194.085 141.25C194.001 141.187 193.922 141.116 193.85 141.04L193.74 140.935C193.71 140.917 193.683 140.895 193.66 140.87Z" fill="#EBEBEB"/>
<path d="M204.305 128.095C207.38 129.87 207.38 132.75 204.305 134.525C201.23 136.3 196.245 136.3 193.165 134.525C190.085 132.75 190.09 129.87 193.165 128.095C196.24 126.32 201.23 126.32 204.305 128.095Z" fill="#FAFAFA"/>
<path d="M202.125 129.355C203.995 130.435 203.995 132.185 202.125 133.265C201.075 133.797 199.914 134.074 198.737 134.074C197.56 134.074 196.4 133.797 195.35 133.265C193.475 132.185 193.475 130.435 195.35 129.355C196.4 128.823 197.56 128.546 198.737 128.546C199.914 128.546 201.075 128.823 202.125 129.355Z" fill="#EBEBEB"/>
<path d="M195.35 131.21C196.4 130.678 197.56 130.401 198.737 130.401C199.914 130.401 201.074 130.678 202.125 131.21C202.578 131.455 202.963 131.809 203.245 132.24C202.959 132.66 202.574 133.004 202.125 133.24C201.074 133.772 199.914 134.049 198.737 134.049C197.56 134.049 196.4 133.772 195.35 133.24C194.899 133.002 194.513 132.659 194.225 132.24C194.51 131.81 194.896 131.456 195.35 131.21Z" fill="#E0E0E0"/>
<path d="M201.71 132.24C202.669 131.266 203.494 130.17 204.165 128.98C205.295 126.98 205.505 124.295 204.92 123.98C204.335 123.665 201.95 126.325 201.95 126.325C202.171 125.199 202.257 124.051 202.205 122.905C202.105 121.125 201.67 119.505 201.16 119.18C200.65 118.855 199.505 121.1 199.015 122.73C198.525 124.36 198.23 125.7 198.23 125.7C198.036 124.429 197.744 123.175 197.355 121.95C196.76 120.255 196.22 119.875 195.805 120.04C195.39 120.205 195.11 121 194.985 123.25C194.942 124.328 194.977 125.407 195.09 126.48C195.09 126.48 194.25 125.555 193.315 124.66C192.29 123.66 191.855 123.54 191.56 123.725C191.265 123.91 191.185 125.445 192.775 128.315C193.564 129.776 194.576 131.106 195.775 132.255C195.775 132.255 197.96 133.655 201.71 132.24Z" fill="#1C2945"/>
<path opacity="0.3" d="M201.71 132.24C202.669 131.266 203.494 130.17 204.165 128.98C205.295 126.98 205.505 124.295 204.92 123.98C204.335 123.665 201.95 126.325 201.95 126.325C202.171 125.199 202.257 124.051 202.205 122.905C202.105 121.125 201.67 119.505 201.16 119.18C200.65 118.855 199.505 121.1 199.015 122.73C198.525 124.36 198.23 125.7 198.23 125.7C198.036 124.429 197.744 123.175 197.355 121.95C196.76 120.255 196.22 119.875 195.805 120.04C195.39 120.205 195.11 121 194.985 123.25C194.942 124.328 194.977 125.407 195.09 126.48C195.09 126.48 194.25 125.555 193.315 124.66C192.29 123.66 191.855 123.54 191.56 123.725C191.265 123.91 191.185 125.445 192.775 128.315C193.564 129.776 194.576 131.106 195.775 132.255C195.775 132.255 197.96 133.655 201.71 132.24Z" fill="black"/>
<path d="M113.526 197.57L132.326 186.695C134.266 185.58 135.236 184.11 135.236 182.645C135.236 181.18 135.236 180.03 135.236 180.03L115.736 169.03C115.19 168.674 114.736 168.195 114.41 167.632C114.085 167.068 113.896 166.435 113.861 165.785V142.605L81.0205 161.605V184.79C81.0548 185.439 81.2421 186.071 81.5671 186.634C81.8921 187.197 82.3455 187.675 82.8905 188.03L99.5005 197.57C103.366 199.805 109.651 199.805 113.526 197.57Z" fill="#1C2945"/>
<g opacity="0.6">
<path opacity="0.6" d="M113.526 197.57L132.326 186.695C134.266 185.58 135.236 184.11 135.236 182.645C135.236 181.18 135.236 180.03 135.236 180.03L115.736 169.03C115.19 168.674 114.736 168.195 114.41 167.632C114.085 167.068 113.896 166.435 113.861 165.785V142.605L81.0205 161.605V184.79C81.0548 185.439 81.2421 186.071 81.5671 186.634C81.8921 187.197 82.3455 187.675 82.8905 188.03L99.5005 197.57C103.366 199.805 109.651 199.805 113.526 197.57Z" fill="black"/>
</g>
<path opacity="0.3" d="M88.9051 188.87V191.5L82.9051 188.03C82.3616 187.674 81.9092 187.195 81.5844 186.633C81.2596 186.07 81.0715 185.439 81.0352 184.79V161.585L87.2751 158C87.4001 159.585 87.5451 161.23 87.6751 162.83L83.2852 165.37V183.48C83.3171 184.13 83.5034 184.763 83.8285 185.326C84.1537 185.889 84.6085 186.367 85.1551 186.72L88.9051 188.87Z" fill="black"/>
<path d="M83.2852 183.46C83.3195 184.109 83.5068 184.741 83.8317 185.304C84.1567 185.867 84.6102 186.345 85.1552 186.7L99.5002 194.955C103.375 197.19 109.66 197.195 113.54 194.955L132.35 184.085C136.225 181.85 136.225 178.22 132.35 175.98L118 167.725C117.455 167.369 117.002 166.89 116.677 166.326C116.352 165.762 116.165 165.13 116.13 164.48V146.365L83.2902 165.365L83.2852 183.46Z" fill="#1C2945"/>
<path opacity="0.3" d="M83.2852 183.46C83.3195 184.109 83.5068 184.741 83.8317 185.304C84.1567 185.867 84.6102 186.345 85.1552 186.7L99.5002 194.955C103.375 197.19 109.66 197.195 113.54 194.955L132.35 184.085C136.225 181.85 136.225 178.22 132.35 175.98L118 167.725C117.455 167.369 117.002 166.89 116.677 166.326C116.352 165.762 116.165 165.13 116.13 164.48V146.365L83.2902 165.365L83.2852 183.46Z" fill="black"/>
<path opacity="0.5" d="M121.81 169.925L118 167.725C117.455 167.369 117.002 166.89 116.677 166.326C116.352 165.762 116.165 165.13 116.13 164.48V146.365L83.29 165.365V183.48C83.3244 184.129 83.5117 184.761 83.8366 185.324C84.1616 185.887 84.6151 186.365 85.16 186.72L88.91 188.885L121.81 169.925Z" fill="black"/>
<path d="M135.24 180.03V182.645C135.24 184.115 134.24 185.575 132.33 186.7L113.525 197.565C111.465 198.667 109.162 199.239 106.825 199.23V196.625C109.162 196.634 111.465 196.062 113.525 194.96L132.33 184.085C134.265 182.97 135.24 181.5 135.24 180.03Z" fill="#1C2945"/>
<path opacity="0.5" d="M135.24 180.03V182.645C135.24 184.115 134.24 185.575 132.33 186.7L113.525 197.565C111.465 198.667 109.162 199.239 106.825 199.23V196.625C109.162 196.634 111.465 196.062 113.525 194.96L132.33 184.085C134.265 182.97 135.24 181.5 135.24 180.03Z" fill="black"/>
<path d="M30.5533 206C31.2624 206.344 32.0428 206.516 32.831 206.501C33.6191 206.486 34.3926 206.286 35.0883 205.915L162.088 132.585C162.768 132.141 163.334 131.543 163.74 130.839C164.145 130.135 164.38 129.346 164.423 128.535V12.86C164.396 12.072 164.183 11.3017 163.802 10.6117C163.42 9.92176 162.881 9.3318 162.228 8.88997C161.52 8.54648 160.74 8.37515 159.953 8.38992C159.166 8.40469 158.393 8.60515 157.698 8.97497L30.7033 82.3049C30.0218 82.748 29.4547 83.3458 29.048 84.0496C28.6414 84.7534 28.4068 85.5433 28.3633 86.3549V202C28.385 202.793 28.5949 203.569 28.9757 204.264C29.3565 204.96 29.8972 205.555 30.5533 206Z" fill="#1C2945"/>
<path d="M35.0851 205.89L162.085 132.56C162.766 132.116 163.333 131.517 163.74 130.812C164.147 130.108 164.381 129.317 164.425 128.505V12.855C164.425 11.355 163.375 10.76 162.085 11.505L35.0851 84.835C34.4037 85.2781 33.8365 85.8758 33.4299 86.5796C33.0232 87.2834 32.7886 88.0733 32.7451 88.885V204.535C32.7451 206.03 33.7951 206.635 35.0851 205.89Z" fill="#1C2945"/>
<path opacity="0.5" d="M35.0851 205.89L162.085 132.56C162.766 132.116 163.333 131.517 163.74 130.812C164.147 130.108 164.381 129.317 164.425 128.505V12.855C164.425 11.355 163.375 10.76 162.085 11.505L35.0851 84.835C34.4037 85.2781 33.8365 85.8758 33.4299 86.5796C33.0232 87.2834 32.7886 88.0733 32.7451 88.885V204.535C32.7451 206.03 33.7951 206.635 35.0851 205.89Z" fill="black"/>
<path d="M34.7405 208.56C34.0764 208.846 33.3586 208.986 32.6357 208.971C31.9128 208.955 31.2016 208.784 30.5505 208.47C29.8975 208.028 29.3583 207.438 28.9768 206.748C28.5954 206.058 28.3824 205.288 28.3555 204.5V195.14L32.7455 197.68V207.035C32.7455 208.395 33.6105 209 34.7405 208.56Z" fill="#1C2945"/>
<path opacity="0.5" d="M34.7405 208.56C34.0764 208.846 33.3586 208.986 32.6357 208.971C31.9128 208.955 31.2016 208.784 30.5505 208.47C29.8975 208.028 29.3583 207.438 28.9768 206.748C28.5954 206.058 28.3824 205.288 28.3555 204.5V195.14L32.7455 197.68V207.035C32.7455 208.395 33.6105 209 34.7405 208.56Z" fill="black"/>
<path d="M32.7451 197.68V207.03C32.7451 208.53 33.7951 209.13 35.0851 208.38L162.085 135.055C162.766 134.61 163.333 134.012 163.74 133.307C164.147 132.603 164.381 131.812 164.425 131V121.63L32.7451 197.68Z" fill="#1C2945"/>
<path opacity="0.3" d="M32.7451 197.66V207.03C32.7451 208.53 33.7951 209.13 35.0851 208.38L162.085 135.055C162.766 134.61 163.333 134.012 163.74 133.307C164.147 132.603 164.381 131.812 164.425 131V121.63L32.7451 197.66Z" fill="black"/>
<path d="M37.1357 185.94V90.345C37.1627 89.8574 37.3039 89.383 37.5479 88.96C37.792 88.537 38.1321 88.1774 38.5407 87.91L158.641 18.57C159.416 18.125 160.046 18.485 160.046 19.38V115C160.019 115.487 159.878 115.961 159.634 116.383C159.389 116.805 159.049 117.164 158.641 117.43L38.5407 186.755C37.7657 187.2 37.1357 186.835 37.1357 185.94Z" fill="#1C2945"/>
<path d="M37.1357 185.94V90.345C37.1627 89.8574 37.3039 89.383 37.5479 88.96C37.792 88.537 38.1321 88.1774 38.5407 87.91L158.641 18.57C159.416 18.125 160.046 18.485 160.046 19.38V115C160.019 115.487 159.878 115.961 159.634 116.383C159.389 116.805 159.049 117.164 158.641 117.43L38.5407 186.755C37.7657 187.2 37.1357 186.835 37.1357 185.94Z" fill="#263238"/>
<path opacity="0.7" d="M33.4355 86.5699C33.0197 87.2736 32.7828 88.0685 32.7455 88.8849V197.68L28.3555 195.14V86.3549C28.3856 85.5395 28.6213 84.745 29.0405 84.0449L33.4355 86.5699Z" fill="black"/>
<path opacity="0.3" d="M164.416 12.4699C164.251 11.2649 163.276 10.8299 162.096 11.5049L35.0958 84.8349C34.4042 85.2636 33.8343 85.8628 33.4408 86.5749L29.0508 84.0399C29.4472 83.3299 30.0164 82.7314 30.7058 82.2999L157.711 8.99992C158.406 8.62928 159.18 8.42837 159.968 8.4136C160.756 8.39883 161.537 8.57061 162.246 8.91492C162.839 9.3191 163.34 9.84526 163.714 10.4583C164.089 11.0713 164.328 11.7571 164.416 12.4699Z" fill="black"/>
<path d="M49.1995 195.04C48.9212 195.204 48.6072 195.299 48.2845 195.315C47.8243 195.375 47.3567 195.293 46.9445 195.08C46.6174 194.857 46.348 194.559 46.1585 194.211C45.969 193.864 45.8648 193.476 45.8545 193.08V103.78L48.0495 105.045V194.365C48.0495 194.895 48.3145 195.2 48.6945 195.2C48.8727 195.185 49.0454 195.131 49.1995 195.04Z" fill="#F0F0F0"/>
<path d="M169.915 124C169.891 124.401 169.773 124.791 169.57 125.139C169.368 125.486 169.087 125.781 168.75 126L49.2 195.04C48.56 195.41 48.04 195.11 48.04 194.365V97.5L51.245 95.65C51.885 95.28 52.93 89.65 53.575 89.255L81.3751 73.205C82.0201 72.835 83.5351 77.01 84.1751 76.635L169.915 27.135V124Z" fill="#FAFAFA"/>
<path d="M169.375 28.05V124C169.353 124.309 169.261 124.609 169.106 124.878C168.951 125.146 168.737 125.376 168.48 125.55L48.93 194.575C48.8561 194.622 48.7722 194.651 48.685 194.66C48.575 194.66 48.575 194.38 48.575 194.365V97.805L51.515 96.105C51.98 95.835 52.27 94.93 52.925 92.605C53.1588 91.6086 53.4801 90.6349 53.885 89.695L81.4351 73.79C81.7618 74.2321 82.0543 74.6984 82.3101 75.185C83.0601 76.505 83.4801 77.185 84.0901 77.185C84.2153 77.185 84.3382 77.1504 84.4451 77.085L169.375 28.05ZM169.915 27.12L84.1751 76.62C84.1494 76.6357 84.1201 76.6443 84.0901 76.645C83.4401 76.645 82.0901 73.145 81.4601 73.145C81.4322 73.1376 81.4029 73.1376 81.3751 73.145L53.575 89.195C52.93 89.57 51.885 95.195 51.245 95.59L48.04 97.5V194.365C48.04 194.895 48.3 195.2 48.685 195.2C48.863 195.192 49.0356 195.137 49.185 195.04L168.75 126C169.087 125.781 169.368 125.486 169.57 125.139C169.773 124.791 169.891 124.401 169.915 124V27.12Z" fill="#E0E0E0"/>
<path d="M46.9485 101.076C46.6205 100.853 46.3501 100.556 46.1597 100.208C45.9693 99.8602 45.8644 99.4721 45.8535 99.0758V90.0008C45.8765 89.601 45.9924 89.212 46.192 88.8648C46.3916 88.5176 46.6695 88.2218 47.0035 88.0008L166.554 19.0008C166.89 18.7876 167.278 18.6706 167.676 18.6626C168.075 18.6545 168.467 18.7557 168.812 18.9551C169.157 19.1545 169.44 19.4446 169.632 19.7937C169.823 20.1429 169.916 20.5379 169.899 20.9358V30.0008C169.875 30.4022 169.757 30.7925 169.555 31.14C169.353 31.4874 169.071 31.7823 168.734 32.0008L49.2035 101.036C48.8571 101.219 48.4725 101.318 48.0808 101.325C47.6891 101.331 47.3012 101.246 46.9485 101.076Z" fill="#1C2945"/>
<path opacity="0.4" d="M169.9 20.705C169.82 20.1 169.33 19.88 168.75 20.205L49.1995 89.2449C48.8583 89.4662 48.5753 89.7663 48.3745 90.1199L46.1895 88.8549C46.3853 88.5078 46.6634 88.2142 46.9995 87.9999L166.55 19C166.871 18.7947 167.242 18.678 167.623 18.6617C168.005 18.6453 168.384 18.7299 168.722 18.907C169.061 19.084 169.346 19.3471 169.55 19.6699C169.754 19.9926 169.87 20.3634 169.885 20.745L169.9 20.705Z" fill="white"/>
<path opacity="0.1" d="M48.3746 90.12C48.1668 90.4667 48.0514 90.8609 48.0396 91.265V105.07L45.8446 103.805V90C45.8421 89.9533 45.8421 89.9066 45.8446 89.86C45.8536 89.7625 45.8686 89.6656 45.8896 89.57C45.9522 89.3176 46.0498 89.0753 46.1796 88.85L48.3746 90.12Z" fill="black"/>
<path d="M169.91 20.8899V27.1199L84.17 76.6199C83.53 76.9949 83.01 76.6899 83.01 75.9499V73.5899C83.01 72.8499 82.51 72.5449 81.84 72.9199L53.57 89.2399C53.2332 89.4593 52.9525 89.7544 52.7502 90.1017C52.5479 90.449 52.4297 90.8388 52.405 91.2399V93.5949C52.3796 93.9959 52.2611 94.3854 52.0589 94.7326C51.8567 95.0798 51.5763 95.375 51.24 95.5949L48.04 97.4999V91.2649C48.0649 90.8644 48.1826 90.4752 48.384 90.128C48.5853 89.7809 48.8647 89.4854 49.2 89.2649L168.75 20.2649C169.39 19.8449 169.91 20.1499 169.91 20.8899Z" fill="#1C2945"/>
<path d="M164.45 24.795C165.26 24.33 165.915 24.71 165.915 25.645C165.887 26.1536 165.74 26.6486 165.485 27.0899C165.231 27.5312 164.876 27.9063 164.45 28.185C163.64 28.65 162.979 28.27 162.979 27.335C163.008 26.826 163.156 26.3309 163.411 25.8896C163.667 25.4484 164.022 25.0734 164.45 24.795Z" fill="white"/>
<path d="M159.17 27.84C159.98 27.375 160.635 27.75 160.635 28.6849C160.608 29.1938 160.461 29.6891 160.207 30.1305C159.952 30.5718 159.597 30.9469 159.17 31.2249C158.36 31.6949 157.705 31.3149 157.705 30.3799C157.733 29.8713 157.88 29.3763 158.134 28.935C158.389 28.4938 158.744 28.1186 159.17 27.84Z" fill="white"/>
<path d="M153.89 30.885C154.7 30.415 155.355 30.795 155.355 31.73C155.327 32.2386 155.18 32.7336 154.926 33.1749C154.671 33.6162 154.316 33.9913 153.89 34.27C153.08 34.735 152.425 34.36 152.425 33.425C152.452 32.9162 152.598 32.4209 152.853 31.9795C153.108 31.5381 153.463 31.1631 153.89 30.885Z" fill="white"/>
<path d="M169.915 27.12V34.695L48.04 105.07V97.5L50.435 96.115C51.075 95.745 51.29 95.18 51.595 94.115L52.41 91.295C52.665 90.295 52.91 89.65 53.575 89.295L81.3751 73.245C82.0201 72.875 82.5251 72.835 83.0151 73.645L84.0151 75.455C84.3801 76.085 84.5651 76.455 85.2051 76.085L169.915 27.12Z" fill="#E6E6E6"/>
<path d="M48.0397 97.49V105.07L45.8447 103.805V96.235L48.0397 97.49Z" fill="#E0E0E0"/>
<path d="M53.385 98.0399L51.555 99.0949L52.25 97.7549C52.278 97.7044 52.2927 97.6476 52.2927 97.5899C52.2927 97.5322 52.278 97.4754 52.25 97.4249C52.195 97.3599 52.105 97.4249 52.04 97.5249L51.04 99.4299C51.04 99.4299 51.04 99.4749 51.015 99.4999C50.99 99.5249 51.015 99.4999 51.015 99.4999C51.0126 99.5315 51.0126 99.5633 51.015 99.5949C51.0117 99.6232 51.0117 99.6517 51.015 99.6799C51.0222 99.6939 51.0306 99.7073 51.04 99.7199L52.04 100.48C52.0542 100.491 52.0718 100.497 52.09 100.497C52.1082 100.497 52.1258 100.491 52.14 100.48C52.1912 100.447 52.2299 100.397 52.25 100.34C52.305 100.215 52.295 100.075 52.25 100.03L51.555 99.4899L53.385 98.4349C53.4315 98.3979 53.4687 98.3507 53.4939 98.2969C53.519 98.2431 53.5314 98.1843 53.53 98.1249C53.53 98.0549 53.465 97.9999 53.385 98.0399Z" fill="#455A64"/>
<path d="M54.9096 97.155L56.7396 96.1L56.0396 95.565C56.0099 95.5178 55.9941 95.4632 55.9941 95.4075C55.9941 95.3517 56.0099 95.2971 56.0396 95.25C56.0896 95.125 56.1846 95.065 56.2446 95.11L57.2446 95.875C57.2582 95.8852 57.2686 95.8991 57.2746 95.915C57.2798 95.9431 57.2798 95.9719 57.2746 96C57.2795 96.0331 57.2795 96.0668 57.2746 96.1L57.2446 96.175L56.2446 98.085C56.2254 98.1308 56.1921 98.1693 56.1496 98.195C56.1348 98.2091 56.1151 98.2169 56.0946 98.2169C56.0742 98.2169 56.0545 98.2091 56.0396 98.195C56.0111 98.1456 55.9961 98.0895 55.9961 98.0325C55.9961 97.9754 56.0111 97.9194 56.0396 97.87L56.7396 96.53L54.9096 97.585C54.8296 97.63 54.7646 97.585 54.7646 97.445C54.7669 97.3891 54.781 97.3344 54.806 97.2844C54.831 97.2344 54.8663 97.1903 54.9096 97.155Z" fill="#455A64"/>
<path d="M60.9094 91.89C60.9094 91.78 60.8044 91.79 60.7544 91.89L60.5044 92.5049C60.0744 92.4599 59.5594 92.8749 59.2094 93.6149C58.7544 94.5749 58.7544 95.7099 59.2094 96.1449C59.319 96.2473 59.4608 96.3082 59.6104 96.3174C59.7601 96.3265 59.9082 96.2832 60.0294 96.1949C60.3954 95.9485 60.682 95.6011 60.8544 95.1949C60.882 95.1461 60.8965 95.091 60.8965 95.0349C60.8965 94.9789 60.882 94.9237 60.8544 94.8749C60.7944 94.8199 60.7044 94.8749 60.6444 94.9949C60.3044 95.7099 59.7544 96.0299 59.4194 95.7049C59.0844 95.3799 59.0794 94.5299 59.4194 93.8149C59.6594 93.3149 60.0044 93.0049 60.3044 92.9849L60.1194 93.4499C60.0694 93.5699 60.1194 93.6799 60.1894 93.6299L60.9344 93.1299C60.9651 93.1072 60.9891 93.0766 61.004 93.0415C61.019 93.0063 61.0243 92.9678 61.0194 92.9299L60.9094 91.89Z" fill="#455A64"/>
<path d="M80.5698 76.655L81.2398 75.245C81.2775 75.1778 81.2973 75.1021 81.2973 75.025C81.2973 74.948 81.2775 74.8722 81.2398 74.805C81.1598 74.73 81.0298 74.805 80.9548 74.97L80.2848 76.38L79.6198 75.74C79.5398 75.665 79.4148 75.74 79.3348 75.905C79.2947 75.9714 79.2734 76.0475 79.2734 76.125C79.2734 76.2026 79.2947 76.2787 79.3348 76.345L79.9998 77L79.3348 78.41C79.2947 78.4764 79.2734 78.5524 79.2734 78.63C79.2734 78.7076 79.2947 78.7836 79.3348 78.85C79.3541 78.8672 79.379 78.8767 79.4048 78.8767C79.4306 78.8767 79.4556 78.8672 79.4748 78.85C79.5401 78.8081 79.5907 78.7469 79.6198 78.675L80.2848 77.265L80.9548 77.905C80.9741 77.9222 80.999 77.9318 81.0248 77.9318C81.0506 77.9318 81.0756 77.9222 81.0948 77.905C81.1601 77.8631 81.2107 77.8019 81.2398 77.73C81.2775 77.6628 81.2973 77.5871 81.2973 77.51C81.2973 77.433 81.2775 77.3572 81.2398 77.29L80.5698 76.655Z" fill="#455A64"/>
<path d="M63.3398 93.625V91.265C63.3641 90.8637 63.4821 90.4738 63.6844 90.1264C63.8868 89.7791 64.1678 89.484 64.5048 89.265L162.19 32.87C162.835 32.495 163.355 32.8 163.355 33.54V35.9C163.331 36.3013 163.213 36.6912 163.01 37.0386C162.808 37.3859 162.527 37.681 162.19 37.9L64.4998 94.295C63.8598 94.67 63.3398 94.365 63.3398 93.625Z" fill="#FAFAFA"/>
<path d="M160.604 38.1C160.57 38.1056 160.534 38.1056 160.499 38.1C160.434 38.0697 160.381 38.018 160.349 37.9534C160.317 37.8888 160.309 37.8152 160.324 37.745L160.439 36.79L159.989 36.465C159.95 36.4342 159.919 36.3946 159.898 36.3494C159.877 36.3042 159.867 36.2547 159.869 36.205C159.867 36.1273 159.884 36.0503 159.917 35.98C159.95 35.9097 159.998 35.8481 160.059 35.8L160.744 35.27C160.758 35.2538 160.768 35.2351 160.774 35.215L161.079 34.215C161.098 34.1327 161.141 34.0578 161.202 33.9999C161.264 33.942 161.341 33.9037 161.424 33.89C161.481 33.8836 161.538 33.8958 161.586 33.9246C161.635 33.9535 161.673 33.9975 161.694 34.05L161.949 34.595L162.529 34.375C162.581 34.3519 162.639 34.3463 162.694 34.3589C162.749 34.3716 162.798 34.4018 162.834 34.445C162.882 34.5141 162.907 34.5961 162.907 34.68C162.907 34.7639 162.882 34.8458 162.834 34.915L162.334 35.845C162.332 35.8632 162.332 35.8817 162.334 35.9L162.454 36.74C162.464 36.8168 162.455 36.8947 162.429 36.9676C162.403 37.0405 162.36 37.1063 162.304 37.16C162.272 37.1985 162.23 37.2282 162.183 37.2466C162.136 37.2649 162.085 37.2712 162.034 37.265L161.499 37.18L160.894 37.95C160.862 37.997 160.819 38.0353 160.768 38.0614C160.718 38.0876 160.661 38.1008 160.604 38.1ZM160.274 36.15L160.724 36.475C160.771 36.513 160.806 36.5626 160.828 36.6188C160.849 36.675 160.854 36.7358 160.844 36.795L160.764 37.435L161.169 36.935C161.204 36.8857 161.251 36.8461 161.305 36.8199C161.359 36.7936 161.419 36.7816 161.479 36.785L162.039 36.855C162.043 36.8335 162.043 36.8115 162.039 36.79L161.919 35.95C161.91 35.8463 161.931 35.7421 161.979 35.65L162.414 34.835L161.999 35C161.934 35.0271 161.86 35.0277 161.794 35.0016C161.727 34.9754 161.674 34.9247 161.644 34.86L161.444 34.43L161.169 35.325C161.141 35.4257 161.081 35.5149 160.999 35.58L160.314 36.08C160.295 36.099 160.281 36.1233 160.274 36.15Z" fill="#E0E0E0"/>
<path d="M164.73 32.5799C164.64 32.5826 164.552 32.5549 164.48 32.5016C164.408 32.4482 164.356 32.3721 164.333 32.2856C164.309 32.199 164.315 32.1071 164.35 32.0244C164.385 31.9418 164.446 31.8733 164.525 31.8299L167.805 29.9349C167.851 29.9047 167.903 29.8842 167.957 29.8746C168.011 29.8651 168.067 29.8667 168.121 29.8795C168.174 29.8922 168.225 29.9157 168.269 29.9486C168.313 29.9815 168.35 30.023 168.378 30.0707C168.405 30.1184 168.423 30.1712 168.429 30.226C168.436 30.2807 168.431 30.3361 168.415 30.389C168.4 30.4418 168.373 30.4908 168.338 30.5331C168.303 30.5754 168.259 30.6101 168.21 30.6349L164.93 32.5249C164.87 32.5622 164.801 32.5813 164.73 32.5799Z" fill="#455A64"/>
<path d="M164.729 34.4999C164.658 34.5005 164.589 34.4824 164.527 34.4472C164.466 34.4121 164.415 34.3613 164.379 34.2999C164.326 34.2068 164.311 34.0966 164.339 33.9928C164.366 33.8891 164.432 33.8001 164.524 33.7449L167.804 31.8549C167.85 31.8279 167.901 31.8102 167.954 31.8029C168.007 31.7956 168.06 31.7988 168.112 31.8122C168.163 31.8257 168.212 31.8492 168.254 31.8814C168.297 31.9136 168.332 31.9539 168.359 31.9999C168.386 32.0458 168.403 32.0965 168.41 32.1491C168.417 32.2017 168.413 32.2551 168.399 32.3063C168.385 32.3575 168.361 32.4054 168.329 32.4472C168.296 32.489 168.256 32.524 168.209 32.5499L164.929 34.4449C164.869 34.4822 164.8 34.5013 164.729 34.4999Z" fill="#455A64"/>
<path d="M164.729 36.37C164.64 36.3703 164.554 36.3411 164.483 36.2871C164.412 36.2331 164.361 36.1572 164.337 36.0711C164.314 35.9851 164.32 35.8938 164.354 35.8113C164.387 35.7289 164.447 35.6599 164.524 35.615L167.804 33.72C167.898 33.6672 168.009 33.6534 168.113 33.6814C168.216 33.7095 168.305 33.7772 168.359 33.87C168.386 33.9159 168.403 33.9666 168.41 34.0192C168.417 34.0718 168.414 34.1252 168.4 34.1764C168.386 34.2276 168.362 34.2755 168.329 34.3173C168.296 34.3591 168.256 34.394 168.209 34.42L164.929 36.315C164.869 36.35 164.8 36.3689 164.729 36.37Z" fill="#455A64"/>
<path d="M51.6343 107.19C51.5446 107.193 51.4567 107.165 51.3846 107.112C51.3125 107.058 51.2605 106.982 51.2368 106.896C51.2132 106.809 51.2193 106.717 51.2542 106.634C51.2891 106.552 51.3508 106.483 51.4293 106.44L54.7093 104.545C54.8016 104.498 54.9084 104.489 55.0075 104.518C55.1067 104.548 55.1908 104.614 55.2427 104.704C55.2945 104.793 55.31 104.899 55.2862 105C55.2623 105.1 55.2008 105.188 55.1143 105.245L51.8343 107.135C51.774 107.171 51.7048 107.191 51.6343 107.19Z" fill="#455A64"/>
<path d="M51.6344 109.085C51.5635 109.086 51.4938 109.067 51.4323 109.032C51.3708 108.997 51.3198 108.946 51.2844 108.885C51.2574 108.839 51.2397 108.788 51.2324 108.735C51.225 108.683 51.2282 108.629 51.2417 108.577C51.2551 108.526 51.2787 108.477 51.3109 108.435C51.3431 108.392 51.3833 108.357 51.4294 108.33L54.7093 106.44C54.7549 106.413 54.8053 106.395 54.8577 106.388C54.9101 106.381 54.9634 106.384 55.0146 106.398C55.0657 106.411 55.1137 106.435 55.1557 106.467C55.1977 106.499 55.2329 106.539 55.2593 106.585C55.2863 106.631 55.304 106.682 55.3113 106.734C55.3187 106.787 55.3155 106.841 55.302 106.892C55.2885 106.944 55.265 106.992 55.2328 107.035C55.2006 107.077 55.1604 107.113 55.1143 107.14L51.8344 109.03C51.7741 109.066 51.7048 109.085 51.6344 109.085Z" fill="#455A64"/>
<path d="M51.6347 111C51.5456 111 51.4589 110.971 51.388 110.917C51.3171 110.863 51.266 110.787 51.2427 110.701C51.2193 110.615 51.225 110.524 51.2588 110.441C51.2926 110.359 51.3527 110.29 51.4297 110.245L54.7097 108.355C54.7551 108.327 54.8056 108.309 54.8581 108.302C54.9107 108.294 54.9642 108.297 55.0156 108.311C55.0669 108.324 55.115 108.348 55.1569 108.38C55.1989 108.413 55.2339 108.454 55.2597 108.5C55.2866 108.545 55.3042 108.596 55.3115 108.648C55.3187 108.701 55.3155 108.754 55.302 108.805C55.2886 108.856 55.2651 108.904 55.2329 108.946C55.2008 108.988 55.1606 109.024 55.1147 109.05L51.8347 110.945C51.7736 110.979 51.7049 110.998 51.6347 111Z" fill="#455A64"/>
<path d="M80.7246 90.5V93.405C80.7246 94 81.1446 94.24 81.6596 93.945L120.625 71.415V66.345L81.6646 88.875C81.391 89.0526 81.1632 89.2924 80.9998 89.5748C80.8365 89.8572 80.7422 90.1742 80.7246 90.5Z" fill="#E6E6E6"/>
<path d="M125.534 63.5C126.034 63.2 126.469 63.445 126.469 64.04V66.945C126.451 67.2693 126.357 67.5849 126.194 67.8663C126.032 68.1477 125.806 68.387 125.534 68.565L120.624 71.4V66.345L125.534 63.5Z" fill="#1C2945"/>
<path d="M125.17 67.5L124.625 67.325C124.68 67.0941 124.709 66.8575 124.71 66.62C124.735 66.3983 124.702 66.1739 124.615 65.9687C124.527 65.7636 124.388 65.5848 124.21 65.45C124.086 65.3841 123.947 65.3531 123.807 65.3601C123.667 65.3672 123.531 65.412 123.415 65.49C123.066 65.7574 122.785 66.1032 122.595 66.4993C122.405 66.8954 122.311 67.3307 122.32 67.77C122.294 67.9916 122.327 68.2161 122.415 68.4212C122.503 68.6263 122.642 68.8051 122.82 68.94C122.925 68.9995 123.044 69.0305 123.165 69.03C123.324 69.0283 123.479 68.9834 123.615 68.9C124.033 68.6137 124.344 68.197 124.5 67.715L125.05 67.885C125.07 67.8898 125.09 67.8898 125.11 67.885C125.161 67.8902 125.212 67.8756 125.253 67.8442C125.293 67.8127 125.32 67.7668 125.328 67.7161C125.336 67.6653 125.324 67.6135 125.294 67.5714C125.265 67.5293 125.22 67.5001 125.17 67.49V67.5ZM123.415 68.55C123.358 68.5911 123.292 68.6161 123.222 68.6222C123.153 68.6284 123.083 68.6155 123.02 68.585C122.91 68.4823 122.825 68.3548 122.774 68.2131C122.723 68.0714 122.706 67.9195 122.725 67.77C122.719 67.4022 122.797 67.0379 122.951 66.7039C123.105 66.3699 123.332 66.0747 123.615 65.84C123.691 65.7943 123.777 65.7685 123.865 65.765C123.916 65.7634 123.967 65.7774 124.01 65.805C124.12 65.9077 124.204 66.0352 124.256 66.1769C124.307 66.3186 124.324 66.4705 124.305 66.62C124.309 66.9869 124.232 67.3502 124.078 67.6833C123.924 68.0164 123.697 68.3108 123.415 68.545V68.55Z" fill="#FAFAFA"/>
<path d="M64.5297 98.765L58.9047 102C58.6329 102.175 58.4064 102.413 58.2439 102.693C58.0814 102.973 57.9874 103.287 57.9697 103.61V106.505C57.9697 107.1 58.3897 107.34 58.9047 107.045L64.5297 103.79C64.801 103.613 65.0267 103.375 65.1883 103.094C65.35 102.813 65.4429 102.498 65.4597 102.175V99.3C65.4597 98.71 65.0447 98.465 64.5297 98.765Z" fill="#1C2945"/>
<path d="M162.354 42.2799C161.717 42.6963 161.187 43.2568 160.806 43.916C160.426 44.5753 160.206 45.3149 160.164 46.075C160.164 47.475 161.164 48.04 162.354 47.345C162.993 46.9284 163.524 46.3673 163.905 45.7071C164.287 45.0469 164.507 44.3062 164.549 43.545C164.549 42.1449 163.564 41.5799 162.354 42.2799Z" fill="#1C2945"/>
<path d="M162.099 44.4999C162.031 44.5011 161.964 44.4838 161.904 44.4499C161.835 44.4006 161.779 44.3343 161.742 44.2573C161.705 44.1803 161.689 44.0951 161.694 44.0099C161.704 43.8095 161.761 43.6142 161.861 43.4403C161.961 43.2663 162.101 43.1188 162.269 43.0099C162.338 42.9559 162.421 42.9237 162.508 42.9174C162.595 42.9111 162.681 42.9311 162.757 42.9747C162.832 43.0184 162.893 43.0837 162.931 43.1622C162.969 43.2407 162.982 43.3287 162.969 43.4149C162.959 43.6156 162.901 43.8109 162.8 43.9848C162.699 44.1586 162.558 44.306 162.389 44.4149C162.301 44.467 162.202 44.4962 162.099 44.4999Z" fill="white"/>
<path d="M163.22 44.6549C163.098 44.5941 162.962 44.5676 162.827 44.5782C162.691 44.5888 162.561 44.636 162.45 44.7149L162.13 44.8999C161.84 45.084 161.597 45.3348 161.423 45.6313C161.249 45.9279 161.149 46.2617 161.13 46.6049V46.8349C161.326 46.9196 161.54 46.9521 161.752 46.9293C161.964 46.9065 162.167 46.8292 162.34 46.7049C162.844 46.3912 163.261 45.9541 163.55 45.4349V45.3799C163.563 45.2407 163.54 45.1004 163.482 44.9731C163.424 44.8458 163.334 44.7361 163.22 44.6549Z" fill="white"/>
<path d="M154.599 49.06V48.285C154.599 47.405 154.064 47 153.404 47.38C153.039 47.6412 152.74 47.9845 152.532 48.3822C152.323 48.78 152.211 49.221 152.204 49.67V50.365C152.188 50.8425 152.049 51.3076 151.799 51.715C151.737 51.8215 151.703 51.9418 151.699 52.065C151.699 52.29 151.834 52.39 151.999 52.295L154.804 50.68C154.895 50.613 154.97 50.5258 155.022 50.4251C155.074 50.3245 155.102 50.2133 155.104 50.1C155.107 50.0566 155.101 50.0131 155.085 49.9724C155.07 49.9318 155.046 49.8951 155.014 49.865C154.873 49.7869 154.758 49.6687 154.685 49.5255C154.611 49.3822 154.581 49.2202 154.599 49.06Z" fill="#1C2945"/>
<path d="M154 51.3999C153.996 51.6153 153.942 51.827 153.842 52.0179C153.743 52.2089 153.6 52.3739 153.425 52.4999C153.105 52.6799 152.845 52.4999 152.845 52.0649L154 51.3999Z" fill="#1C2945"/>
<path d="M144.259 52.7399C144.412 52.6493 144.583 52.5914 144.759 52.5699C144.898 52.5537 145.038 52.5817 145.159 52.6499C145.277 52.7219 145.37 52.8284 145.424 52.9549C145.489 53.1289 145.514 53.315 145.499 53.4999C145.501 53.6682 145.483 53.8361 145.444 53.9999C145.408 54.1465 145.361 54.2902 145.304 54.4299C145.25 54.5615 145.188 54.69 145.119 54.8149L144.919 55.1749C144.859 55.2899 144.799 55.4099 144.749 55.5249C144.701 55.6356 144.666 55.7513 144.644 55.8699C144.639 55.9266 144.626 55.9822 144.604 56.0349C144.587 56.075 144.56 56.1096 144.524 56.1349L143.959 56.4599C143.924 56.4599 143.894 56.4599 143.874 56.4599C143.86 56.4446 143.849 56.4265 143.842 56.4067C143.835 56.3869 143.833 56.3658 143.834 56.3449C143.834 56.1909 143.855 56.0376 143.899 55.8899C143.94 55.745 143.99 55.603 144.049 55.4649C144.114 55.3299 144.179 55.1949 144.254 55.0699C144.329 54.9449 144.389 54.8199 144.454 54.7099C144.519 54.5999 144.564 54.4849 144.609 54.3799C144.647 54.286 144.667 54.1861 144.669 54.0849C144.669 53.9449 144.634 53.8549 144.569 53.8199C144.504 53.7849 144.394 53.8199 144.254 53.8799C144.134 53.9429 144.033 54.036 143.959 54.1499C143.904 54.2397 143.859 54.3353 143.824 54.4349L143.754 54.6849C143.739 54.7527 143.698 54.8118 143.639 54.8499L143.074 55.1749C143.064 55.1822 143.052 55.1862 143.039 55.1862C143.027 55.1862 143.015 55.1822 143.004 55.1749C142.993 55.1611 142.984 55.1451 142.979 55.1279C142.974 55.1108 142.972 55.0928 142.974 55.0749C142.981 54.8804 143.012 54.6873 143.064 54.4999C143.128 54.2778 143.212 54.0619 143.314 53.8549C143.423 53.6367 143.558 53.432 143.714 53.2449C143.864 53.0451 144.049 52.874 144.259 52.7399ZM144.659 57.3599C144.659 57.4135 144.647 57.4665 144.624 57.5149C144.605 57.558 144.574 57.5945 144.534 57.6199L143.954 57.9549C143.949 57.9605 143.942 57.965 143.935 57.968C143.928 57.971 143.92 57.9726 143.912 57.9726C143.904 57.9726 143.896 57.971 143.889 57.968C143.882 57.965 143.875 57.9605 143.869 57.9549C143.855 57.9396 143.844 57.9215 143.837 57.9017C143.83 57.8819 143.828 57.8608 143.829 57.8399V57.1249C143.831 57.0709 143.844 57.0179 143.869 56.9699C143.885 56.925 143.915 56.8864 143.954 56.8599L144.534 56.5249C144.547 56.5143 144.563 56.5085 144.579 56.5085C144.596 56.5085 144.612 56.5143 144.624 56.5249C144.638 56.5397 144.648 56.5572 144.654 56.5761C144.66 56.5951 144.662 56.6152 144.659 56.6349V57.3599Z" fill="#1C2945"/>
<path d="M134.64 71.56V81.4999C134.64 82.2449 135.14 82.5449 135.805 82.1749L148.775 74.675C149.111 74.4556 149.392 74.1605 149.594 73.8132C149.797 73.4659 149.915 73.0761 149.94 72.675V62.75C149.94 62.01 149.44 61.705 148.775 62.08L135.775 69.58C135.446 69.8006 135.173 70.094 134.976 70.4373C134.779 70.7807 134.664 71.1649 134.64 71.56Z" fill="#1C2945"/>
<path opacity="0.5" d="M134.64 71.56V81.4999C134.64 82.2449 135.14 82.5449 135.805 82.1749L148.775 74.675C149.111 74.4556 149.392 74.1605 149.594 73.8132C149.797 73.4659 149.915 73.0761 149.94 72.675V62.75C149.94 62.01 149.44 61.705 148.775 62.08L135.775 69.58C135.446 69.8006 135.173 70.094 134.976 70.4373C134.779 70.7807 134.664 71.1649 134.64 71.56Z" fill="white"/>
<path d="M140.185 75.73V71.385C140.188 71.1684 140.274 70.9612 140.424 70.8053C140.574 70.6494 140.778 70.5564 140.995 70.545L144.96 70.37C145.405 70.37 145.52 70.605 145.225 70.935L140.725 75.935C140.43 76.265 140.185 76.175 140.185 75.73Z" fill="#FAFAFA"/>
<path d="M153.67 59.9499L164.17 53.8749C164.46 53.7099 164.695 53.8299 164.695 54.1399C164.682 54.3153 164.627 54.4851 164.536 54.6354C164.445 54.7857 164.319 54.9123 164.17 55.0049L153.67 61.0799C153.38 61.2449 153.17 61.1249 153.17 60.8149C153.18 60.6417 153.23 60.4732 153.317 60.323C153.404 60.1727 153.525 60.045 153.67 59.9499Z" fill="#455A64"/>
<path d="M153.67 62.2049L164.17 56.1349C164.46 55.9699 164.695 56.0849 164.695 56.3999C164.682 56.5753 164.627 56.7451 164.536 56.8954C164.445 57.0457 164.319 57.1724 164.17 57.2649L153.67 63.3349C153.38 63.5049 153.17 63.3849 153.17 63.0749C153.18 62.901 153.23 62.7318 153.317 62.5808C153.404 62.4298 153.525 62.3011 153.67 62.2049Z" fill="#455A64"/>
<path d="M153.67 64.4L164.17 58.325C164.46 58.16 164.695 58.28 164.695 58.59C164.682 58.7654 164.627 58.9351 164.536 59.0855C164.445 59.2358 164.319 59.3624 164.17 59.455L153.67 65.525C153.38 65.695 153.17 65.575 153.17 65.265C153.179 65.0917 153.23 64.923 153.317 64.7727C153.403 64.6225 153.524 64.4948 153.67 64.4Z" fill="#455A64"/>
<path d="M153.5 67.535L160.72 63.365C160.915 63.25 161.075 63.335 161.075 63.545C161.066 63.6649 161.029 63.7811 160.967 63.8844C160.906 63.9877 160.821 64.0752 160.72 64.14L153.5 68.31C153.305 68.42 153.145 68.34 153.145 68.125C153.153 68.0058 153.19 67.8903 153.252 67.7878C153.314 67.6853 153.398 67.5988 153.5 67.535Z" fill="#E0E0E0"/>
<path d="M153.5 69.0849L160.72 64.9149C160.915 64.7999 161.075 64.8849 161.075 65.0949C161.066 65.2149 161.029 65.3311 160.967 65.4343C160.906 65.5376 160.821 65.6251 160.72 65.6899L153.5 69.8599C153.305 69.9699 153.145 69.8899 153.145 69.6749C153.153 69.5557 153.19 69.4402 153.252 69.3377C153.314 69.2353 153.398 69.1487 153.5 69.0849Z" fill="#E0E0E0"/>
<path d="M153.5 70.585L160.72 66.42C160.915 66.305 161.075 66.385 161.075 66.6C161.066 66.7199 161.029 66.8361 160.967 66.9393C160.906 67.0426 160.821 67.1301 160.72 67.195L153.5 71.36C153.305 71.475 153.145 71.395 153.145 71.18C153.153 71.06 153.19 70.9438 153.252 70.8406C153.313 70.7373 153.398 70.6498 153.5 70.585Z" fill="#E0E0E0"/>
<path d="M134.64 89.235V99.165C134.64 99.91 135.14 100.21 135.805 99.84L148.775 92.34C149.111 92.1207 149.392 91.8256 149.594 91.4783C149.797 91.131 149.915 90.7412 149.94 90.34V80.415C149.94 79.67 149.44 79.37 148.775 79.74L135.775 87.24C135.444 87.4618 135.169 87.7575 134.972 88.1038C134.775 88.45 134.661 88.8373 134.64 89.235Z" fill="#1C2945"/>
<path opacity="0.5" d="M134.64 89.235V99.165C134.64 99.91 135.14 100.21 135.805 99.84L148.775 92.34C149.111 92.1207 149.392 91.8256 149.594 91.4783C149.797 91.131 149.915 90.7412 149.94 90.34V80.415C149.94 79.67 149.44 79.37 148.775 79.74L135.775 87.24C135.444 87.4618 135.169 87.7575 134.972 88.1038C134.775 88.45 134.661 88.8373 134.64 89.235Z" fill="white"/>
<path d="M140.185 93.3999V89.0599C140.187 88.843 140.272 88.6351 140.423 88.479C140.573 88.3228 140.778 88.2301 140.995 88.2199L144.96 88.0449C145.405 88.0449 145.52 88.2799 145.225 88.6099L140.725 93.6099C140.43 93.9399 140.185 93.8499 140.185 93.3999Z" fill="#FAFAFA"/>
<path d="M153.67 77.62L164.17 71.55C164.46 71.385 164.695 71.5 164.695 71.815C164.682 71.9903 164.627 72.1601 164.536 72.3104C164.445 72.4608 164.319 72.5874 164.17 72.68L153.67 78.75C153.38 78.92 153.17 78.8 153.17 78.49C153.18 78.316 153.23 78.1469 153.317 77.9958C153.404 77.8448 153.525 77.7161 153.67 77.62Z" fill="#455A64"/>
<path d="M153.67 79.8799L164.17 73.81C164.46 73.645 164.695 73.76 164.695 74.075C164.681 74.2501 164.626 74.4196 164.535 74.5698C164.444 74.72 164.319 74.8468 164.17 74.94L153.67 81.0099C153.38 81.1749 153.17 81.0599 153.17 80.745C153.18 80.5717 153.23 80.4032 153.317 80.253C153.404 80.1028 153.525 79.975 153.67 79.8799Z" fill="#455A64"/>
<path d="M153.67 82.07L164.17 76C164.46 75.835 164.695 75.95 164.695 76.265C164.682 76.4404 164.627 76.6102 164.536 76.7605C164.445 76.9109 164.319 77.0375 164.17 77.13L153.67 83.2C153.38 83.365 153.17 83.25 153.17 82.935C153.181 82.762 153.231 82.5938 153.318 82.4437C153.405 82.2936 153.525 82.1657 153.67 82.07Z" fill="#455A64"/>
<path d="M153.5 85.2049L160.72 81.0399C160.915 80.9249 161.075 81.0049 161.075 81.2199C161.066 81.3399 161.029 81.4561 160.967 81.5593C160.906 81.6626 160.821 81.7501 160.72 81.8149L153.5 85.9999C153.305 86.1149 153.145 86.0349 153.145 85.8199C153.15 85.6965 153.186 85.5764 153.247 85.4694C153.309 85.3624 153.396 85.2717 153.5 85.2049Z" fill="#E0E0E0"/>
<path d="M153.5 86.755L160.72 82.59C160.915 82.475 161.075 82.555 161.075 82.77C161.066 82.8899 161.029 83.0061 160.967 83.1094C160.906 83.2127 160.821 83.3002 160.72 83.365L153.5 87.53C153.305 87.645 153.145 87.565 153.145 87.35C153.153 87.2301 153.19 87.1139 153.252 87.0106C153.313 86.9074 153.398 86.8198 153.5 86.755Z" fill="#E0E0E0"/>
<path d="M153.5 88.26L160.72 84.095C160.915 83.98 161.075 84.06 161.075 84.275C161.066 84.3949 161.029 84.5111 160.967 84.6144C160.906 84.7176 160.821 84.8052 160.72 84.87L153.5 89.035C153.305 89.15 153.145 89.07 153.145 88.855C153.153 88.7351 153.19 88.6189 153.252 88.5156C153.313 88.4123 153.398 88.3248 153.5 88.26Z" fill="#E0E0E0"/>
<path d="M134.64 106.895V116.825C134.64 117.57 135.14 117.87 135.805 117.5L148.775 110C149.111 109.781 149.392 109.485 149.594 109.138C149.797 108.791 149.915 108.401 149.94 108V98.0749C149.94 97.3349 149.44 97.0299 148.775 97.4049L135.775 104.905C135.445 105.127 135.171 105.421 134.974 105.767C134.777 106.112 134.662 106.498 134.64 106.895Z" fill="#1C2945"/>
<path opacity="0.5" d="M134.64 106.895V116.825C134.64 117.57 135.14 117.87 135.805 117.5L148.775 110C149.111 109.781 149.392 109.485 149.594 109.138C149.797 108.791 149.915 108.401 149.94 108V98.0749C149.94 97.3349 149.44 97.0299 148.775 97.4049L135.775 104.905C135.445 105.127 135.171 105.421 134.974 105.767C134.777 106.112 134.662 106.498 134.64 106.895Z" fill="white"/>
<path d="M140.185 111.065V106.72C140.188 106.503 140.274 106.296 140.424 106.14C140.574 105.984 140.778 105.891 140.995 105.88L144.96 105.705C145.405 105.705 145.52 105.94 145.225 106.27L140.725 111.27C140.43 111.6 140.185 111.5 140.185 111.065Z" fill="#FAFAFA"/>
<path d="M153.67 95.285L164.17 89.21C164.46 89.045 164.695 89.165 164.695 89.475C164.682 89.6504 164.627 89.8201 164.536 89.9705C164.445 90.1208 164.319 90.2474 164.17 90.34L153.67 96.415C153.38 96.58 153.17 96.46 153.17 96.15C153.179 95.9767 153.23 95.808 153.317 95.6577C153.403 95.5075 153.524 95.3798 153.67 95.285Z" fill="#455A64"/>
<path d="M153.67 97.54L164.17 91.47C164.46 91.305 164.695 91.42 164.695 91.735C164.682 91.9104 164.627 92.0802 164.536 92.2305C164.445 92.3808 164.319 92.5074 164.17 92.6L153.67 98.67C153.38 98.84 153.17 98.72 153.17 98.41C153.18 98.2361 153.23 98.0669 153.317 97.9158C153.404 97.7648 153.525 97.6361 153.67 97.54Z" fill="#455A64"/>
<path d="M153.67 99.7349L164.17 93.6599C164.46 93.4949 164.695 93.6149 164.695 93.9249C164.682 94.1003 164.627 94.2701 164.536 94.4204C164.445 94.5708 164.319 94.6974 164.17 94.7899L153.67 100.86C153.38 101.03 153.17 100.91 153.17 100.6C153.179 100.427 153.23 100.258 153.317 100.108C153.403 99.9574 153.524 99.8297 153.67 99.7349Z" fill="#455A64"/>
<path d="M153.5 102.87L160.72 98.7C160.915 98.585 161.075 98.67 161.075 98.88C161.066 98.9999 161.029 99.1161 160.967 99.2194C160.906 99.3226 160.821 99.4101 160.72 99.475L153.5 103.645C153.305 103.755 153.145 103.675 153.145 103.46C153.153 103.341 153.19 103.225 153.252 103.123C153.314 103.02 153.398 102.934 153.5 102.87Z" fill="#E0E0E0"/>
<path d="M153.5 104.42L160.72 100.25C160.915 100.135 161.075 100.22 161.075 100.43C161.066 100.55 161.029 100.666 160.967 100.769C160.906 100.873 160.821 100.96 160.72 101.025L153.5 105.195C153.305 105.305 153.145 105.225 153.145 105.01C153.153 104.891 153.19 104.775 153.252 104.673C153.314 104.57 153.398 104.484 153.5 104.42Z" fill="#E0E0E0"/>
<path d="M153.5 105.92L160.72 101.755C160.915 101.64 161.075 101.72 161.075 101.935C161.066 102.055 161.029 102.171 160.967 102.274C160.906 102.378 160.821 102.465 160.72 102.53L153.5 106.695C153.305 106.81 153.145 106.73 153.145 106.515C153.153 106.395 153.19 106.279 153.252 106.176C153.313 106.072 153.398 105.985 153.5 105.92Z" fill="#E0E0E0"/>
<path d="M134.64 124.57V134.5C134.64 135.24 135.14 135.54 135.805 135.17L148.775 127.67C149.112 127.451 149.393 127.156 149.595 126.809C149.797 126.461 149.915 126.071 149.94 125.67V115.745C149.94 115.005 149.44 114.705 148.775 115.075L135.775 122.575C135.444 122.797 135.169 123.093 134.972 123.439C134.775 123.785 134.661 124.172 134.64 124.57Z" fill="#1C2945"/>
<path opacity="0.5" d="M134.64 124.57V134.5C134.64 135.24 135.14 135.54 135.805 135.17L148.775 127.67C149.112 127.451 149.393 127.156 149.595 126.809C149.797 126.461 149.915 126.071 149.94 125.67V115.745C149.94 115.005 149.44 114.705 148.775 115.075L135.775 122.575C135.444 122.797 135.169 123.093 134.972 123.439C134.775 123.785 134.661 124.172 134.64 124.57Z" fill="white"/>
<path d="M140.185 128.74V124.4C140.187 124.183 140.272 123.974 140.422 123.817C140.573 123.66 140.777 123.566 140.995 123.555L144.96 123.385C145.405 123.385 145.52 123.615 145.225 123.95L140.725 128.95C140.43 129.28 140.185 129.185 140.185 128.74Z" fill="#FAFAFA"/>
<path d="M153.67 112.96L164.17 106.89C164.46 106.72 164.695 106.84 164.695 107.15C164.682 107.325 164.628 107.495 164.537 107.646C164.445 107.796 164.32 107.923 164.17 108.015L153.67 114.09C153.38 114.255 153.17 114.14 153.17 113.825C153.18 113.652 153.23 113.483 153.317 113.333C153.404 113.183 153.525 113.055 153.67 112.96Z" fill="#455A64"/>
<path d="M153.67 115.22L164.17 109.145C164.46 108.98 164.695 109.1 164.695 109.41C164.682 109.585 164.627 109.755 164.536 109.905C164.445 110.056 164.319 110.182 164.17 110.275L153.67 116.35C153.38 116.515 153.17 116.395 153.17 116.085C153.18 115.912 153.23 115.743 153.317 115.593C153.404 115.443 153.525 115.315 153.67 115.22Z" fill="#455A64"/>
<path d="M153.67 117.41L164.17 111.335C164.46 111.17 164.695 111.29 164.695 111.6C164.682 111.775 164.628 111.945 164.537 112.096C164.445 112.246 164.32 112.373 164.17 112.465L153.67 118.54C153.38 118.705 153.17 118.585 153.17 118.275C153.18 118.102 153.23 117.933 153.317 117.783C153.404 117.633 153.525 117.505 153.67 117.41Z" fill="#455A64"/>
<path d="M153.5 120.545L160.72 116.375C160.915 116.265 161.075 116.345 161.075 116.56C161.066 116.679 161.029 116.795 160.967 116.897C160.906 117 160.821 117.086 160.72 117.15L153.5 121.32C153.305 121.435 153.145 121.35 153.145 121.14C153.153 121.02 153.19 120.904 153.252 120.801C153.313 120.697 153.398 120.61 153.5 120.545Z" fill="#E0E0E0"/>
<path d="M153.5 122.095L160.72 117.925C160.915 117.815 161.075 117.895 161.075 118.11C161.066 118.229 161.029 118.345 160.967 118.447C160.906 118.55 160.821 118.636 160.72 118.7L153.5 122.87C153.305 122.985 153.145 122.9 153.145 122.69C153.153 122.57 153.19 122.454 153.252 122.351C153.313 122.247 153.398 122.16 153.5 122.095Z" fill="#E0E0E0"/>
<path d="M153.5 123.595L160.72 119.43C160.915 119.315 161.075 119.4 161.075 119.61C161.066 119.73 161.029 119.846 160.967 119.949C160.906 120.053 160.821 120.14 160.72 120.205L153.5 124.37C153.305 124.485 153.145 124.405 153.145 124.19C153.153 124.07 153.19 123.954 153.252 123.851C153.313 123.747 153.398 123.66 153.5 123.595Z" fill="#E0E0E0"/>
<path d="M53.8945 172.37L93.1045 149.73C93.7445 149.36 94.2695 149.625 94.2645 150.32C94.2358 150.711 94.1154 151.09 93.913 151.426C93.7106 151.763 93.4319 152.046 93.0995 152.255L53.8945 174.895C53.2545 175.265 52.7295 175 52.7295 174.305C52.7582 173.914 52.8786 173.535 53.081 173.198C53.2834 172.862 53.5621 172.578 53.8945 172.37Z" fill="#455A64"/>
<path d="M53.3849 176.94L75.3849 164.255C75.7499 164.045 76.0399 164.19 76.0399 164.585C76.023 164.804 75.9549 165.017 75.8412 165.205C75.7274 165.394 75.5712 165.553 75.3849 165.67L53.4099 178.355C53.0499 178.565 52.7549 178.415 52.7549 178.025C52.769 177.808 52.8333 177.597 52.9426 177.409C53.0518 177.22 53.2032 177.06 53.3849 176.94Z" fill="#E0E0E0"/>
<path d="M61.9443 176.435L90.0293 160.225C90.6693 159.85 91.1943 160.115 91.1943 160.815C91.1656 161.206 91.0451 161.585 90.8427 161.921C90.6404 162.258 90.3617 162.541 90.0293 162.75L61.9443 178.96C61.2993 179.33 60.7793 179.07 60.7793 178.37C60.808 177.979 60.9284 177.6 61.1308 177.263C61.3332 176.927 61.6119 176.643 61.9443 176.435Z" fill="#455A64"/>
<path d="M61.4293 181L72.2843 174.735C72.6493 174.525 72.9393 174.675 72.9393 175.065C72.9235 175.285 72.856 175.498 72.7421 175.686C72.6283 175.875 72.4714 176.034 72.2843 176.15L61.4293 182.415C61.0693 182.62 60.7793 182.475 60.7793 182.085C60.7945 181.866 60.8613 181.653 60.9743 181.465C61.0872 181.276 61.2431 181.117 61.4293 181Z" fill="#E0E0E0"/>
<path d="M55.7651 179.315C54.8744 179.896 54.1331 180.678 53.6015 181.599C53.0698 182.52 52.7627 183.553 52.7051 184.615C52.7051 186.565 54.0751 187.36 55.7651 186.38C56.6563 185.8 57.398 185.017 57.9297 184.096C58.4614 183.175 58.7682 182.142 58.8251 181.08C58.8251 179.13 57.4551 178.34 55.7651 179.315Z" fill="#1C2945"/>
<path d="M55.4095 182.425C55.313 182.429 55.2175 182.404 55.1345 182.355C55.0348 182.289 54.9547 182.198 54.9027 182.091C54.8508 181.983 54.8289 181.864 54.8395 181.745C54.8531 181.465 54.9338 181.192 55.0747 180.949C55.2157 180.706 55.4128 180.501 55.6495 180.35C55.7468 180.281 55.8611 180.24 55.9801 180.231C56.099 180.222 56.2181 180.246 56.3245 180.3C56.4243 180.366 56.5044 180.457 56.5563 180.564C56.6083 180.672 56.6301 180.791 56.6195 180.91C56.6061 181.19 56.526 181.462 56.386 181.705C56.246 181.948 56.05 182.153 55.8145 182.305C55.6921 182.379 55.5526 182.421 55.4095 182.425Z" fill="white"/>
<path d="M56.9996 182.63C56.8287 182.545 56.6381 182.508 56.4479 182.523C56.2577 182.538 56.0751 182.604 55.9196 182.715L55.4796 182.97C55.0758 183.228 54.7397 183.58 54.4996 183.995C54.2595 184.41 54.1223 184.876 54.0996 185.355V185.67C54.3727 185.789 54.6721 185.836 54.9685 185.804C55.2648 185.772 55.5479 185.664 55.7896 185.49C56.494 185.053 57.0756 184.444 57.4796 183.72V183.645C57.4966 183.448 57.461 183.251 57.3767 183.073C57.2924 182.894 57.1623 182.742 56.9996 182.63Z" fill="white"/>
<path d="M108.55 150.91L121.52 143.41C122.165 143.04 122.69 143.34 122.69 144.085V146.44C122.665 146.842 122.546 147.232 122.342 147.579C122.139 147.926 121.857 148.221 121.52 148.44L108.55 155.94C107.905 156.31 107.385 156.01 107.385 155.265V152.91C107.409 152.509 107.528 152.119 107.73 151.772C107.932 151.424 108.213 151.129 108.55 150.91Z" fill="#1C2945"/>
<path opacity="0.7" d="M108.55 150.91L121.52 143.41C122.165 143.04 122.69 143.34 122.69 144.085V146.44C122.665 146.842 122.546 147.232 122.342 147.579C122.139 147.926 121.857 148.221 121.52 148.44L108.55 155.94C107.905 156.31 107.385 156.01 107.385 155.265V152.91C107.409 152.509 107.528 152.119 107.73 151.772C107.932 151.424 108.213 151.129 108.55 150.91Z" fill="white"/>
<path d="M127.429 142.39V141.615C127.429 140.735 126.894 140.325 126.229 140.71C125.864 140.971 125.566 141.315 125.357 141.712C125.149 142.11 125.037 142.551 125.029 143V143.695C125.015 144.172 124.877 144.637 124.629 145.045C124.569 145.154 124.537 145.276 124.534 145.4C124.534 145.625 124.669 145.725 124.834 145.63L127.634 144.01C127.727 143.945 127.803 143.859 127.856 143.759C127.909 143.659 127.937 143.548 127.939 143.435C127.943 143.391 127.937 143.348 127.922 143.307C127.906 143.266 127.881 143.23 127.849 143.2C127.708 143.121 127.593 143.002 127.518 142.858C127.443 142.714 127.412 142.551 127.429 142.39Z" fill="#455A64"/>
<path d="M126.804 144.725C126.802 144.941 126.749 145.153 126.649 145.344C126.549 145.535 126.405 145.7 126.229 145.825C125.914 146.01 125.654 145.825 125.654 145.39L126.804 144.725Z" fill="#455A64"/>
<path d="M103.904 146.185C103.879 146.365 103.786 146.53 103.644 146.645C103.672 146.715 103.686 146.79 103.684 146.865C103.673 146.974 103.636 147.078 103.577 147.17C103.518 147.262 103.438 147.339 103.344 147.395L101.819 148.28V146.28C101.819 146.245 102.239 145.325 102.274 145.185C102.294 144.949 102.294 144.711 102.274 144.475C102.312 144.404 102.372 144.348 102.446 144.315C102.519 144.283 102.601 144.275 102.679 144.295C102.721 144.315 102.753 144.351 102.769 144.395C102.814 144.496 102.846 144.601 102.864 144.71C102.884 144.901 102.872 145.093 102.829 145.28L103.754 144.745C103.78 144.726 103.81 144.714 103.841 144.709C103.873 144.705 103.905 144.709 103.934 144.72C103.966 144.743 103.991 144.773 104.007 144.808C104.024 144.843 104.032 144.881 104.029 144.92C104.023 145.066 103.97 145.206 103.879 145.32C103.879 145.32 104.064 145.265 104.064 145.51C104.059 145.597 104.037 145.682 103.998 145.76C103.959 145.838 103.905 145.908 103.839 145.965C103.839 145.965 103.904 146 103.904 146.185Z" fill="#1C2945"/>
<path d="M101.6 148.15V148.575C101.598 148.605 101.589 148.634 101.575 148.66C101.56 148.686 101.539 148.708 101.515 148.725L101.015 149.01C100.987 149.017 100.958 149.017 100.93 149.01V146.72L101.33 146.49L101.57 146.35C101.576 146.38 101.576 146.41 101.57 146.44L101.6 148.15Z" fill="#1C2945"/>
<path d="M114.725 138.38C114.725 138.35 114.718 138.32 114.704 138.293C114.689 138.266 114.668 138.243 114.643 138.227C114.617 138.211 114.587 138.202 114.557 138.201C114.527 138.199 114.497 138.206 114.47 138.22C114.494 138.134 114.508 138.045 114.51 137.955C114.51 137.785 114.37 137.7 114.17 137.815L112.645 138.695V140.695C112.811 140.872 112.965 141.061 113.105 141.26C113.125 141.498 113.125 141.737 113.105 141.975C113.105 142.05 113.35 141.94 113.51 141.685C113.546 141.621 113.576 141.554 113.6 141.485C113.64 141.346 113.67 141.204 113.69 141.06C113.713 140.881 113.703 140.7 113.66 140.525L114.58 139.995C114.656 139.952 114.719 139.888 114.76 139.81C114.817 139.718 114.849 139.613 114.855 139.505C114.855 139.32 114.755 139.28 114.705 139.275C114.761 139.224 114.806 139.162 114.838 139.094C114.87 139.025 114.887 138.951 114.89 138.875C114.89 138.735 114.805 138.63 114.665 138.68C114.707 138.586 114.728 138.483 114.725 138.38Z" fill="#1C2945"/>
<path d="M112.425 139.075V138.655C112.425 138.6 112.385 138.575 112.335 138.605L111.835 138.885C111.802 138.908 111.772 138.935 111.745 138.965V141.255L112.15 141.025L112.385 140.885C112.399 140.848 112.407 140.809 112.41 140.77L112.425 139.075Z" fill="#1C2945"/>
<path d="M126.499 131.95L124.819 131.45V132.34C124.154 132.623 123.581 133.085 123.164 133.675C122.239 135.055 122.909 135.845 123.219 135.9C123.219 135.9 122.719 135.565 123.269 134.575C123.643 134.028 124.189 133.62 124.819 133.415V134.415L126.499 131.95Z" fill="#1C2945"/>
<path d="M106.364 143.045L108.404 141.87C109.049 141.495 109.569 141.76 109.569 142.46C109.54 142.851 109.42 143.23 109.218 143.567C109.015 143.903 108.737 144.187 108.404 144.395L106.364 145.57C105.719 145.945 105.199 145.68 105.199 144.98C105.228 144.589 105.348 144.21 105.551 143.873C105.753 143.537 106.032 143.254 106.364 143.045Z" fill="#E0E0E0"/>
<path d="M117.295 136.735L119.335 135.555C119.98 135.185 120.5 135.45 120.5 136.145C120.471 136.536 120.351 136.915 120.148 137.252C119.946 137.588 119.667 137.871 119.335 138.08L117.295 139.26C116.65 139.63 116.13 139.37 116.13 138.67C116.159 138.279 116.279 137.9 116.481 137.563C116.684 137.227 116.962 136.943 117.295 136.735Z" fill="#E0E0E0"/>
<path d="M55.9248 111.5L129.09 69.26C129.735 68.885 130.255 69.19 130.255 69.93V122.065C130.23 122.466 130.112 122.856 129.91 123.204C129.708 123.551 129.427 123.846 129.09 124.065L55.9248 166.325C55.2848 166.7 54.7598 166.395 54.7598 165.655V113.5C54.7852 113.099 54.9037 112.71 55.1059 112.362C55.3081 112.015 55.5885 111.72 55.9248 111.5Z" fill="#455A64"/>
<path opacity="0.3" d="M64.38 158.045L118.08 127.17C118.425 126.97 118.71 127.115 118.71 127.49C118.694 127.701 118.628 127.906 118.519 128.087C118.409 128.269 118.259 128.422 118.08 128.535L64.38 159.41C64.03 159.61 63.75 159.465 63.75 159.09C63.7652 158.879 63.8302 158.674 63.9397 158.492C64.0492 158.31 64.2 158.157 64.38 158.045Z" fill="white"/>
<path d="M64.38 158.045L112.795 130.22C113.145 130.02 113.425 130.165 113.425 130.54C113.41 130.752 113.345 130.957 113.235 131.138C113.126 131.32 112.975 131.473 112.795 131.585L64.38 159.41C64.03 159.61 63.75 159.465 63.75 159.09C63.7652 158.879 63.8302 158.674 63.9397 158.492C64.0492 158.31 64.2 158.157 64.38 158.045Z" fill="white"/>
<path d="M57.8098 161.915V163.255C57.8084 163.288 57.7991 163.321 57.7826 163.349C57.766 163.378 57.7427 163.402 57.7147 163.42L57.4547 163.57C57.4453 163.577 57.4341 163.581 57.4225 163.582C57.4109 163.582 57.3994 163.579 57.3893 163.574C57.3792 163.568 57.3711 163.559 57.3658 163.549C57.3606 163.538 57.3585 163.527 57.3597 163.515V162.175C57.3622 162.142 57.372 162.11 57.3885 162.082C57.4049 162.053 57.4276 162.029 57.4547 162.01L57.7147 161.86C57.7698 161.83 57.8098 161.855 57.8098 161.915Z" fill="white"/>
<path d="M58.7097 161.395V162.735C58.7084 162.768 58.6991 162.801 58.6825 162.829C58.666 162.858 58.6427 162.882 58.6147 162.9L58.3598 163.05C58.3048 163.08 58.2598 163.05 58.2598 162.995V161.655C58.262 161.622 58.2723 161.589 58.2897 161.56C58.3071 161.532 58.3311 161.508 58.3598 161.49L58.6147 161.34C58.6697 161.31 58.7097 161.335 58.7097 161.395Z" fill="white"/>
<path d="M62.2894 159.37V160.71C62.2869 160.743 62.2771 160.775 62.2606 160.803C62.2442 160.832 62.2215 160.856 62.1944 160.875L62.0794 160.945C62.0244 160.975 61.9844 160.945 61.9844 160.89V159.55C61.9857 159.517 61.995 159.485 62.0116 159.456C62.0281 159.427 62.0514 159.403 62.0794 159.385L62.1944 159.315C62.2038 159.308 62.2149 159.304 62.2266 159.304C62.2382 159.303 62.2497 159.306 62.2598 159.312C62.2698 159.317 62.278 159.326 62.2832 159.336C62.2885 159.347 62.2906 159.359 62.2894 159.37Z" fill="white"/>
<path d="M60.3994 160.41V161.725C60.3994 161.82 60.4494 161.84 60.5144 161.765L61.7244 160.37C61.7894 160.295 61.7594 160.235 61.6644 160.235H60.5744C60.528 160.235 60.4835 160.254 60.4507 160.286C60.4178 160.319 60.3994 160.364 60.3994 160.41Z" fill="white"/>
<path d="M125 123.415C124.959 123.415 124.919 123.399 124.89 123.37C124.861 123.341 124.845 123.301 124.845 123.26V122.82C124.845 122.794 124.852 122.768 124.865 122.745C124.878 122.722 124.897 122.703 124.92 122.69L125.635 122.28C125.652 122.27 125.67 122.263 125.69 122.26C125.71 122.257 125.73 122.258 125.749 122.263C125.768 122.268 125.786 122.277 125.802 122.29C125.818 122.302 125.83 122.318 125.84 122.335C125.858 122.37 125.863 122.41 125.853 122.449C125.843 122.487 125.818 122.519 125.785 122.54L125.15 122.905V123.26C125.15 123.3 125.134 123.339 125.106 123.368C125.078 123.397 125.04 123.414 125 123.415Z" fill="#FAFAFA"/>
<path d="M128.239 121.545C128.2 121.545 128.161 121.529 128.133 121.501C128.105 121.473 128.089 121.435 128.089 121.395V121.21L127.589 121.49C127.572 121.5 127.553 121.506 127.534 121.509C127.514 121.511 127.495 121.51 127.475 121.505C127.456 121.5 127.439 121.491 127.423 121.479C127.407 121.467 127.394 121.452 127.384 121.435C127.374 121.418 127.367 121.399 127.364 121.38C127.361 121.36 127.362 121.34 127.367 121.321C127.372 121.301 127.381 121.283 127.394 121.268C127.406 121.252 127.422 121.239 127.439 121.23L128.149 120.82C128.172 120.805 128.198 120.797 128.224 120.797C128.251 120.797 128.277 120.805 128.299 120.82C128.323 120.832 128.342 120.851 128.356 120.874C128.369 120.897 128.375 120.924 128.374 120.95V121.395C128.375 121.432 128.361 121.468 128.336 121.496C128.311 121.524 128.276 121.541 128.239 121.545Z" fill="#FAFAFA"/>
<path d="M125 125.43C124.975 125.436 124.949 125.436 124.925 125.43C124.901 125.417 124.882 125.398 124.868 125.376C124.854 125.353 124.846 125.327 124.845 125.3V124.855C124.851 124.819 124.87 124.787 124.898 124.764C124.926 124.741 124.961 124.728 124.997 124.728C125.034 124.728 125.069 124.741 125.097 124.764C125.124 124.787 125.143 124.819 125.15 124.855V125L125.65 124.72C125.684 124.701 125.725 124.697 125.763 124.707C125.801 124.717 125.834 124.742 125.855 124.775C125.874 124.811 125.878 124.852 125.868 124.891C125.858 124.93 125.834 124.963 125.8 124.985L125.09 125.395C125.063 125.414 125.032 125.426 125 125.43Z" fill="#FAFAFA"/>
<path d="M127.53 123.97C127.497 123.97 127.465 123.959 127.439 123.939C127.412 123.919 127.394 123.891 127.385 123.859C127.376 123.827 127.379 123.793 127.391 123.763C127.404 123.732 127.426 123.707 127.455 123.69L128.09 123.32V122.965C128.09 122.925 128.106 122.887 128.134 122.859C128.162 122.831 128.2 122.815 128.24 122.815C128.28 122.815 128.318 122.831 128.346 122.859C128.374 122.887 128.39 122.925 128.39 122.965V123.41C128.391 123.437 128.385 123.463 128.371 123.486C128.358 123.509 128.339 123.528 128.315 123.54L127.605 123.95C127.582 123.964 127.556 123.971 127.53 123.97Z" fill="#FAFAFA"/>
<path d="M123.37 125.04H123.345H123.055C123.049 125.041 123.042 125.04 123.036 125.038C123.03 125.036 123.025 125.033 123.02 125.029C123.015 125.025 123.011 125.019 123.009 125.014C123.006 125.008 123.005 125.001 123.005 124.995C123.007 124.95 123.007 124.905 123.005 124.86C123.005 124.81 123.005 124.76 123.005 124.715C123.004 124.684 123.015 124.654 123.035 124.63L123.355 124.24C123.362 124.228 123.365 124.214 123.365 124.2C123.365 124.186 123.362 124.172 123.355 124.16L123.205 123.82C123.205 123.82 123.175 123.82 123.16 123.82L122.815 124.135C122.803 124.143 122.789 124.148 122.775 124.148C122.761 124.148 122.747 124.143 122.735 124.135C122.692 124.098 122.643 124.069 122.59 124.05C122.578 124.046 122.568 124.037 122.562 124.026C122.555 124.015 122.553 124.003 122.555 123.99L122.66 123.49C122.66 123.49 122.66 123.465 122.66 123.455H122.63L122.29 123.49C122.275 123.492 122.261 123.498 122.249 123.507C122.237 123.515 122.227 123.527 122.22 123.54L122.035 124.04C122.021 124.074 121.994 124.101 121.96 124.115C121.888 124.149 121.819 124.189 121.755 124.235C121.725 124.235 121.695 124.235 121.68 124.235L121.51 123.975C121.51 123.975 121.47 123.975 121.445 123.975L121.075 124.365C121.054 124.388 121.043 124.419 121.045 124.45L121.15 124.8C121.159 124.826 121.159 124.854 121.15 124.88C121.09 124.98 121.03 125.075 120.98 125.18C120.961 125.209 120.933 125.23 120.9 125.24L120.585 125.315C120.569 125.318 120.553 125.326 120.54 125.336C120.527 125.346 120.517 125.36 120.51 125.375L120.35 125.91C120.348 125.916 120.348 125.922 120.35 125.928C120.351 125.935 120.354 125.94 120.357 125.945C120.361 125.95 120.366 125.954 120.372 125.956C120.378 125.959 120.384 125.96 120.39 125.96H120.68C120.693 125.96 120.706 125.965 120.715 125.975C120.725 125.984 120.73 125.997 120.73 126.01C120.72 126.101 120.72 126.194 120.73 126.285C120.73 126.316 120.719 126.346 120.7 126.37L120.375 126.765C120.368 126.777 120.365 126.791 120.365 126.805C120.365 126.819 120.368 126.833 120.375 126.845L120.53 127.185C120.53 127.185 120.555 127.185 120.57 127.185L120.915 126.87C120.926 126.862 120.939 126.857 120.952 126.857C120.966 126.857 120.979 126.862 120.99 126.87C121.034 126.906 121.083 126.937 121.135 126.96C121.147 126.964 121.158 126.972 121.165 126.983C121.171 126.994 121.173 127.007 121.17 127.02L121.065 127.52C121.065 127.52 121.065 127.545 121.065 127.555H121.095L121.435 127.52C121.451 127.519 121.466 127.514 121.479 127.505C121.492 127.496 121.503 127.484 121.51 127.47L121.69 126.97C121.707 126.94 121.733 126.915 121.765 126.9L121.87 126.84L121.975 126.78C121.975 126.78 122.035 126.755 122.045 126.78L122.22 127.045C122.228 127.05 122.238 127.052 122.247 127.052C122.257 127.052 122.267 127.05 122.275 127.045L122.645 126.655C122.656 126.645 122.664 126.633 122.669 126.619C122.675 126.605 122.677 126.59 122.675 126.575L122.57 126.225C122.561 126.197 122.561 126.168 122.57 126.14C122.633 126.046 122.69 125.947 122.74 125.845C122.758 125.816 122.787 125.795 122.82 125.785L123.14 125.71C123.17 125.71 123.205 125.675 123.21 125.65L123.37 125.11C123.379 125.11 123.388 125.106 123.395 125.1C123.401 125.093 123.405 125.084 123.405 125.075C123.405 125.066 123.401 125.057 123.395 125.05C123.388 125.044 123.379 125.04 123.37 125.04ZM121.675 126.35H121.55C121.481 126.349 121.415 126.329 121.358 126.291C121.301 126.252 121.256 126.198 121.23 126.135C121.205 126.08 121.19 126.021 121.185 125.96C121.182 125.927 121.182 125.893 121.185 125.86C121.204 125.501 121.351 125.16 121.6 124.9C121.675 124.82 121.761 124.751 121.855 124.695L121.94 124.65C122.015 124.616 122.097 124.599 122.18 124.6H122.22C122.279 124.608 122.335 124.632 122.381 124.669C122.428 124.706 122.464 124.754 122.485 124.81C122.538 125.029 122.533 125.258 122.468 125.474C122.404 125.69 122.284 125.886 122.12 126.04C122.005 126.185 121.85 126.292 121.675 126.35Z" fill="white"/>
<path d="M105.385 87.95C106.965 87.035 108.25 87.775 108.25 89.6C108.195 90.5936 107.907 91.5603 107.409 92.422C106.911 93.2837 106.218 94.0161 105.385 94.56C103.805 95.475 102.52 94.735 102.52 92.905C102.574 91.912 102.862 90.9458 103.359 90.0849C103.857 89.224 104.551 88.4925 105.385 87.95Z" fill="#1C2945"/>
<path d="M106.631 95.8688C106.573 95.9024 106.522 95.9093 106.476 95.8896C106.435 95.8599 106.415 95.8117 106.415 95.7452V90.9946L105.235 92.7326C105.195 92.796 105.152 92.8412 105.106 92.868C105.043 92.905 104.985 92.8986 104.933 92.849L104.425 92.3777C104.396 92.3413 104.382 92.2998 104.382 92.2532C104.382 92.16 104.416 92.07 104.485 91.9832L106.467 89.0482C106.53 88.9647 106.599 88.9011 106.674 88.8574L107.751 88.2278C107.814 88.1909 107.866 88.1839 107.906 88.207C107.946 88.2301 107.966 88.2782 107.966 88.3514V94.8385C107.966 94.9051 107.946 94.9767 107.906 95.0535C107.866 95.1235 107.814 95.177 107.751 95.214L106.631 95.8688Z" fill="#455A64"/>
<path d="M111.799 85.675L125.694 77.675C126.079 77.455 126.384 77.61 126.384 78.025C126.369 78.2562 126.298 78.4803 126.178 78.6786C126.058 78.8769 125.892 79.0437 125.694 79.165L111.799 87.165C111.419 87.385 111.109 87.23 111.109 86.815C111.129 86.5847 111.201 86.3619 111.321 86.1642C111.441 85.9664 111.604 85.799 111.799 85.675Z" fill="#1C2945"/>
<path d="M111.584 88.355L121.119 82.855C121.379 82.705 121.594 82.81 121.594 83.095C121.584 83.2542 121.535 83.4086 121.452 83.5451C121.37 83.6817 121.255 83.7965 121.119 83.88L111.584 89.38C111.324 89.53 111.109 89.425 111.109 89.14C111.12 88.9807 111.169 88.8263 111.252 88.6898C111.334 88.5532 111.448 88.4384 111.584 88.355Z" fill="#E0E0E0"/>
<path d="M105.385 97.875C106.965 96.965 108.25 97.705 108.25 99.53C108.195 100.524 107.907 101.49 107.409 102.352C106.911 103.214 106.218 103.946 105.385 104.49C103.805 105.4 102.52 104.66 102.52 102.835C102.574 101.841 102.862 100.875 103.36 100.013C103.858 99.1513 104.551 98.4189 105.385 97.875Z" fill="#1C2945"/>
<path d="M104.821 106.857C104.758 106.894 104.704 106.902 104.658 106.882C104.617 106.859 104.597 106.811 104.597 106.738V106.029C104.597 105.83 104.669 105.625 104.813 105.415L105.709 103.873C106.232 103.101 106.628 102.507 106.898 102.09C107.168 101.672 107.372 101.317 107.51 101.023C107.647 100.73 107.716 100.487 107.716 100.294C107.716 99.7682 107.492 99.6363 107.044 99.8982C106.809 100.036 106.628 100.225 106.502 100.465C106.375 100.699 106.292 100.95 106.252 101.22C106.217 101.393 106.12 101.527 105.959 101.621L104.882 102.25C104.83 102.281 104.787 102.286 104.752 102.266C104.718 102.246 104.701 102.206 104.701 102.147C104.712 101.714 104.813 101.266 105.002 100.803C105.198 100.329 105.47 99.8869 105.821 99.4758C106.177 99.0546 106.585 98.7098 107.044 98.4411C107.527 98.1591 107.94 98.0071 108.285 97.9853C108.63 97.9634 108.891 98.0635 109.069 98.2854C109.247 98.5073 109.336 98.8345 109.336 99.267C109.336 99.7327 109.21 100.232 108.957 100.766C108.71 101.29 108.331 101.924 107.82 102.669L107.027 104.06L109.241 102.766C109.305 102.729 109.356 102.722 109.396 102.745C109.442 102.765 109.465 102.811 109.465 102.884V103.892C109.465 103.965 109.442 104.039 109.396 104.112C109.356 104.182 109.305 104.236 109.241 104.273L104.821 106.857Z" fill="#455A64"/>
<path d="M111.799 95.5999L125.694 87.5999C126.079 87.3799 126.384 87.5349 126.384 87.9449C126.368 88.1769 126.298 88.4016 126.178 88.6007C126.058 88.7998 125.892 88.9675 125.694 89.0899L111.799 97.095C111.419 97.315 111.109 97.16 111.109 96.745C111.128 96.5137 111.2 96.29 111.32 96.0913C111.439 95.8927 111.604 95.7245 111.799 95.5999Z" fill="#1C2945"/>
<path d="M111.584 98.2851L121.119 92.7851C121.379 92.6301 121.594 92.7401 121.594 93.0201C121.584 93.1793 121.535 93.3337 121.452 93.4702C121.37 93.6068 121.255 93.7216 121.119 93.8051L111.584 99.3051C111.324 99.4551 111.109 99.3451 111.109 99.0651C111.121 98.9067 111.17 98.7533 111.253 98.6177C111.335 98.482 111.449 98.368 111.584 98.2851Z" fill="#E0E0E0"/>
<path d="M105.385 107.805C106.965 106.89 108.25 107.63 108.25 109.46C108.195 110.453 107.907 111.419 107.41 112.28C106.912 113.141 106.218 113.872 105.385 114.415C103.805 115.33 102.52 114.59 102.52 112.765C102.574 111.771 102.862 110.805 103.36 109.943C103.858 109.081 104.551 108.349 105.385 107.805Z" fill="#1C2945"/>
<path d="M107.044 115.587C106.487 115.913 106.019 116.087 105.64 116.109C105.267 116.127 104.988 116.044 104.804 115.859C104.626 115.663 104.531 115.419 104.52 115.127C104.52 115.067 104.537 115.007 104.572 114.947C104.612 114.883 104.658 114.836 104.709 114.806L105.838 114.146C105.901 114.109 105.953 114.092 105.993 114.096C106.033 114.099 106.071 114.127 106.105 114.18C106.22 114.459 106.533 114.449 107.044 114.15C107.337 113.979 107.564 113.769 107.725 113.522C107.892 113.265 107.975 113 107.975 112.728C107.975 112.195 107.676 112.104 107.079 112.453L106.122 113.012C106.065 113.046 106.013 113.053 105.967 113.033C105.927 113.003 105.907 112.955 105.907 112.888V112.33C105.907 112.183 105.953 112.043 106.045 111.91L107.458 109.696L105.063 111.097C105.005 111.13 104.954 111.137 104.908 111.117C104.867 111.088 104.847 111.04 104.847 110.973V110.035C104.847 109.962 104.867 109.89 104.908 109.82C104.954 109.747 105.005 109.693 105.063 109.659L109.026 107.342C109.089 107.305 109.141 107.299 109.181 107.322C109.227 107.341 109.25 107.388 109.25 107.461V108.309C109.25 108.436 109.204 108.572 109.112 108.719L107.803 110.892L107.863 110.877C108.391 110.648 108.808 110.61 109.112 110.765C109.422 110.91 109.577 111.288 109.577 111.9C109.577 112.346 109.468 112.799 109.25 113.26C109.032 113.72 108.73 114.152 108.345 114.557C107.96 114.962 107.527 115.305 107.044 115.587Z" fill="#455A64"/>
<path d="M111.799 105.53L125.694 97.5001C126.079 97.2801 126.384 97.4401 126.384 97.8501C126.368 98.0819 126.297 98.3065 126.177 98.5055C126.057 98.7046 125.892 98.8723 125.694 98.9951L111.799 107.025C111.419 107.245 111.109 107.085 111.109 106.675C111.128 106.444 111.2 106.22 111.32 106.021C111.439 105.823 111.604 105.655 111.799 105.53Z" fill="#1C2945"/>
<path d="M111.584 108.215L121.119 102.715C121.379 102.565 121.594 102.675 121.594 102.955C121.584 103.114 121.535 103.269 121.452 103.405C121.37 103.542 121.255 103.657 121.119 103.74L111.584 109.24C111.324 109.395 111.109 109.285 111.109 109.005C111.119 108.845 111.168 108.689 111.25 108.552C111.333 108.414 111.448 108.299 111.584 108.215Z" fill="#E0E0E0"/>
<path d="M93.0005 121.06C89.6205 121.47 80.5255 121.795 80.5255 121.795C74.5255 119.16 69.8355 113.38 69.2405 106.865L68.9805 104.06C68.4805 98.74 72.3055 93.775 77.4005 92.175C78.8942 91.6896 80.478 91.5467 82.0345 91.7571C83.5909 91.9675 85.0801 92.5256 86.3913 93.3902C87.7025 94.2547 88.8023 95.4035 89.6088 96.7512C90.4154 98.0988 90.9081 99.6109 91.0505 101.175C91.1755 102.555 91.5505 103.775 92.6655 104.675C93.2888 105.121 93.9595 105.497 94.6655 105.795C95.6803 106.24 96.6041 106.869 97.3905 107.65C97.7801 108.043 98.0846 108.513 98.285 109.029C98.4854 109.545 98.5775 110.097 98.5555 110.65C98.4762 111.361 98.1971 112.036 97.7505 112.595C97.6655 112.676 97.6153 112.787 97.6105 112.905C97.6284 112.987 97.6681 113.063 97.7255 113.125C98.7605 114.45 99.3055 116.28 98.6855 117.84C98.2538 118.818 97.4955 119.615 96.5405 120.095C95.5866 120.569 94.5582 120.875 93.5005 121L93.0005 121.06Z" fill="#263238"/>
<path d="M122.25 111.63C122.074 111.388 121.871 111.167 121.645 110.97C121.25 110.605 120.705 110.27 120.2 110.47C119.904 110.616 119.66 110.85 119.5 111.14C119.18 111.61 118.8 112.045 118.5 112.53C118.09 113.238 117.616 113.907 117.085 114.53C116.86 114.8 116.535 115.17 116.15 115.055C116.082 115.036 116.019 114.998 115.97 114.945C115.929 114.889 115.901 114.824 115.89 114.755C115.843 114.421 115.862 114.082 115.945 113.755C116.026 113.427 116.026 113.084 115.945 112.755C115.9 112.594 115.803 112.452 115.669 112.351C115.536 112.25 115.373 112.195 115.205 112.195C115.112 112.201 115.024 112.242 114.96 112.31C114.917 112.358 114.883 112.414 114.86 112.475C114.206 113.77 113.73 115.148 113.445 116.57C113.38 117.2 113.267 117.823 113.105 118.435C112.68 119.755 111.135 120.435 110.05 121.2C107.688 122.756 105.248 124.191 102.74 125.5C101.51 124.42 93.7405 117.64 91.5955 115.85C88.5055 113.28 85.2255 114.43 84.7805 114.465C84.3355 114.5 83.7455 117.465 87.3805 121.765C87.3805 121.765 98.7155 131.355 100.88 132.6C101.415 132.905 102.14 133.54 103.015 133.505H103.045H103.155C103.273 133.495 103.389 133.472 103.5 133.435C104.575 133.09 106.11 131.76 106.755 131.26C110.006 128.645 113.12 125.864 116.085 122.93C116.93 122.11 117.89 121.43 118.805 120.685C120.008 119.773 121.026 118.642 121.805 117.35C122.4 116.442 122.763 115.401 122.86 114.32C122.971 113.38 122.756 112.43 122.25 111.63Z" fill="#FFA8A7"/>
<path d="M72.7154 137.645C70.0404 143.645 69.3904 147.145 69.1804 150.41C68.9704 153.675 69.2804 158.615 69.2804 158.615L92.8954 145C92.3701 141.673 91.5946 138.39 90.5754 135.18L72.7154 137.645Z" fill="#1C2945"/>
<path d="M90.6099 127.76L90.4699 133.95C90.7799 135.165 91.2749 137.15 91.8299 138.95C91.4799 140.045 88.8949 142.99 83.4049 144.815C77.6049 146.745 70.9899 144.755 70.2549 143.315L72.5549 137.49C72.5549 137.49 70.5549 129.765 70.5249 129.67C70.4949 129.575 72.6699 126.435 72.8149 122.67C72.9599 118.905 71.9199 117.29 71.5899 116.93C71.7399 116.865 75.1249 115.93 75.1249 115.93L81.8749 114.58L85.0499 114.375C87.6949 115.73 89.8375 117.896 91.1649 120.555C91.7786 121.681 92.0528 122.961 91.9543 124.24C91.8558 125.518 91.3888 126.741 90.6099 127.76Z" fill="#FAFAFA"/>
<path d="M86.7703 96.7C87.4753 97.42 88.9003 99.145 88.7703 105.4C88.6353 110.705 86.9153 112.01 86.0503 112.4C85.1853 112.79 83.5203 112.54 81.9053 112.27V114.855C81.9053 114.855 84.1953 116.45 84.7703 117.895C85.2203 119.02 82.3603 120.59 78.0203 118.72C76.2453 117.955 74.8153 116.01 74.8153 116.01L74.8703 108.35C74.8703 108.35 73.9153 109.27 72.3053 107.85C70.9753 106.685 70.5303 104.715 71.5703 103.665C71.8405 103.415 72.1661 103.233 72.5204 103.134C72.8747 103.034 73.2476 103.02 73.6083 103.093C73.969 103.166 74.3073 103.323 74.5954 103.552C74.8835 103.781 75.1131 104.075 75.2653 104.41C77.4894 104.444 79.6814 103.878 81.6103 102.77C85.0253 100.88 86.5403 98.76 86.7703 96.7Z" fill="#FFA8A7"/>
<path d="M82.7499 104.445C82.7507 104.575 82.7133 104.703 82.6422 104.812C82.5712 104.921 82.4697 105.007 82.3503 105.059C82.2309 105.111 82.0989 105.127 81.9706 105.104C81.8423 105.082 81.7235 105.022 81.6287 104.933C81.534 104.844 81.4676 104.729 81.4377 104.602C81.4078 104.475 81.4158 104.342 81.4606 104.22C81.5055 104.098 81.5852 103.991 81.69 103.914C81.7947 103.837 81.9199 103.792 82.0499 103.785C82.1392 103.782 82.2282 103.797 82.3117 103.829C82.3952 103.861 82.4717 103.909 82.5367 103.97C82.6017 104.031 82.654 104.105 82.6906 104.186C82.7271 104.268 82.7473 104.356 82.7499 104.445Z" fill="#263238"/>
<path d="M82.2403 108.375L84.7404 108.83C84.7179 108.996 84.6622 109.157 84.5765 109.301C84.4908 109.445 84.3769 109.571 84.2415 109.67C84.1062 109.77 83.9522 109.841 83.7888 109.88C83.6254 109.918 83.4559 109.923 83.2903 109.895C82.9525 109.827 82.6542 109.631 82.4584 109.347C82.2625 109.064 82.1843 108.715 82.2403 108.375Z" fill="#B16668"/>
<path d="M83.2956 109.895C83.4605 109.929 83.6307 109.929 83.7956 109.895C83.7828 109.614 83.6625 109.349 83.4596 109.155C83.2566 108.96 82.9867 108.851 82.7056 108.85C82.5542 108.848 82.4042 108.879 82.2656 108.94C82.3295 109.18 82.4601 109.398 82.6424 109.567C82.8247 109.736 83.0512 109.849 83.2956 109.895Z" fill="#F28F8F"/>
<path d="M88.0508 102.305L86.5508 101.69C86.5857 101.589 86.6408 101.496 86.7128 101.417C86.7848 101.338 86.8721 101.275 86.9695 101.231C87.0669 101.187 87.1722 101.163 87.279 101.161C87.3858 101.16 87.4919 101.179 87.5908 101.22C87.7912 101.308 87.9503 101.47 88.0358 101.671C88.1213 101.873 88.1266 102.1 88.0508 102.305Z" fill="#263238"/>
<path d="M87.7001 103.955C87.6999 104.085 87.6616 104.212 87.59 104.321C87.5184 104.429 87.4165 104.514 87.297 104.565C87.1775 104.616 87.0457 104.632 86.9177 104.609C86.7898 104.586 86.6713 104.526 86.5771 104.436C86.4828 104.347 86.4169 104.231 86.3874 104.105C86.358 103.978 86.3662 103.846 86.4112 103.724C86.4563 103.602 86.536 103.496 86.6407 103.419C86.7453 103.342 86.8703 103.297 87.0001 103.29C87.1809 103.286 87.356 103.354 87.4872 103.478C87.6183 103.603 87.6949 103.774 87.7001 103.955Z" fill="#263238"/>
<path d="M84.5752 103.685L85.0352 107.565L87.0352 106.615L84.5752 103.685Z" fill="#F28F8F"/>
<path d="M81.88 112.255C80.175 112.025 76.67 111.01 76.125 109.62C76.3418 110.323 76.7694 110.943 77.35 111.395C78.395 112.295 81.875 113.315 81.875 113.315L81.88 112.255Z" fill="#F28F8F"/>
<path d="M75.0007 106.34C75.437 106.303 75.8406 106.094 76.1229 105.759C76.4051 105.424 76.5428 104.991 76.5057 104.555C76.4686 104.119 76.2597 103.715 75.9249 103.433C75.5901 103.151 75.157 103.013 74.7207 103.05L75.0007 106.34Z" fill="#263238"/>
<path d="M58.0004 140.87C58.7354 145.275 60.3454 149.37 65.1754 157.575C65.7273 158.578 66.3989 159.509 67.1754 160.35C67.9903 161.232 68.9795 161.935 70.0804 162.415C70.7232 162.684 71.4375 162.732 72.1104 162.55C73.4204 162.235 74.5354 161.22 74.6354 160.595C74.7704 159.755 73.2654 158.905 72.6754 158.295C72.1754 157.795 71.1754 156.95 70.8404 156.49C70.5054 156.03 70.1254 155.66 70.5454 155.675C70.8004 155.675 71.0454 155.77 71.2904 155.8C71.4999 155.82 71.7108 155.82 71.9204 155.8C72.1306 155.815 72.3416 155.784 72.5385 155.709C72.7355 155.634 72.9136 155.516 73.0604 155.365C73.1226 155.289 73.161 155.196 73.1708 155.098C73.1806 155.001 73.1613 154.902 73.1154 154.815C73.0188 154.695 72.8906 154.605 72.7454 154.555C72.2831 154.38 71.8337 154.173 71.4004 153.935C70.969 153.687 70.5532 153.414 70.1554 153.115C69.5454 152.615 68.7154 152.075 68.3404 151.38C67.4022 149.699 66.6894 147.902 66.2204 146.035C65.8804 144.735 65.2204 142.24 64.8804 139.875C64.9904 139.575 66.5154 136.77 67.5004 135.14C68.9154 132.795 70.2654 130.785 71.5704 128.695C74.3254 125.335 74.0704 118.93 71.6304 116.935C67.3404 118.035 66.1054 119.88 64.6904 122.615C63.3104 125.275 59.6004 132.695 58.3754 136.36C57.8803 137.809 57.7515 139.359 58.0004 140.87Z" fill="#FFA8A7"/>
</svg>
