<svg width="398" height="398" viewBox="0 0 398 398" fill="none" xmlns="http://www.w3.org/2000/svg">
<path d="M199.509 389.674C305.154 389.674 390.796 345.354 390.796 290.683C390.796 236.012 305.154 191.693 199.509 191.693C93.8646 191.693 8.22266 236.012 8.22266 290.683C8.22266 345.354 93.8646 389.674 199.509 389.674Z" fill="#F5F5F5"/>
<path d="M287.396 238.147C287.413 237.95 287.482 237.761 287.597 237.6C287.712 237.439 287.868 237.312 288.048 237.232C288.536 236.984 289.074 236.855 289.621 236.855C290.167 236.855 290.706 236.984 291.193 237.232C291.372 237.314 291.527 237.441 291.642 237.602C291.756 237.763 291.827 237.951 291.845 238.147L287.786 258.963C287.769 259.098 287.718 259.227 287.637 259.338C287.556 259.448 287.449 259.535 287.324 259.592C286.981 259.768 286.6 259.86 286.214 259.86C285.827 259.86 285.447 259.768 285.103 259.592C284.979 259.535 284.871 259.448 284.79 259.338C284.709 259.227 284.658 259.098 284.642 258.963L287.396 238.147Z" fill="#455A64"/>
<path d="M345.002 238.147C344.985 237.951 344.916 237.763 344.803 237.603C344.69 237.442 344.536 237.314 344.357 237.232C343.865 236.979 343.319 236.847 342.766 236.847C342.212 236.847 341.666 236.979 341.174 237.232C340.995 237.314 340.841 237.442 340.728 237.603C340.615 237.763 340.546 237.951 340.529 238.147L344.58 258.963C344.596 259.098 344.646 259.226 344.725 259.336C344.805 259.446 344.911 259.534 345.034 259.592C345.379 259.768 345.761 259.861 346.148 259.861C346.536 259.861 346.918 259.768 347.263 259.592C347.386 259.534 347.492 259.446 347.571 259.336C347.651 259.226 347.701 259.098 347.717 258.963L345.002 238.147Z" fill="#455A64"/>
<path d="M318.695 241.228C318.677 241.032 318.607 240.844 318.492 240.685C318.378 240.525 318.222 240.399 318.042 240.32C317.555 240.073 317.016 239.944 316.47 239.944C315.924 239.944 315.385 240.073 314.898 240.32C314.719 240.401 314.564 240.527 314.449 240.686C314.335 240.846 314.264 241.032 314.245 241.228L314.898 270.919C314.914 271.054 314.965 271.183 315.046 271.294C315.127 271.404 315.235 271.491 315.359 271.548C315.704 271.721 316.084 271.811 316.47 271.811C316.855 271.811 317.236 271.721 317.58 271.548C317.705 271.491 317.813 271.404 317.893 271.294C317.974 271.183 318.025 271.054 318.042 270.919L318.695 241.228Z" fill="#455A64"/>
<path d="M356.331 222.283H356.291C356.291 216.393 352.438 210.502 344.653 206.013C329.084 197.026 303.843 197.026 288.281 206.013C280.496 210.502 276.635 216.361 276.635 222.283V225.467C276.723 231.278 280.615 237.073 288.313 241.506C303.874 250.493 329.116 250.493 344.685 241.506C352.367 237.073 356.267 231.278 356.363 225.467L356.331 222.283Z" fill="#1C2945"/>
<path d="M288.279 206.013C272.717 215 272.717 229.574 288.279 238.561C303.841 247.548 329.082 247.548 344.652 238.561C360.222 229.574 360.222 215 344.652 206.013C329.082 197.026 303.849 197.026 288.279 206.013Z" fill="#1C2945"/>
<path opacity="0.45" d="M288.279 206.013C272.717 215 272.717 229.574 288.279 238.561C303.841 247.548 329.082 247.548 344.652 238.561C360.222 229.574 360.222 215 344.652 206.013C329.082 197.026 303.849 197.026 288.279 206.013Z" fill="white"/>
<g opacity="0.05">
<path opacity="0.05" d="M325.206 218.438C330.173 221.304 330.173 225.952 325.206 228.786C320.239 231.62 312.183 231.652 307.224 228.786C302.265 225.921 302.257 221.272 307.224 218.438C312.191 215.604 320.239 215.565 325.206 218.438Z" fill="black"/>
</g>
<path d="M308.307 224.265C303.977 219.855 301.437 208.839 305.656 205.336H327.148C331.367 208.839 328.828 219.847 324.505 224.265L324.394 224.384L324.243 224.528C324.115 224.647 323.988 224.767 323.853 224.878L323.749 224.958L323.423 225.204C323.243 225.337 323.054 225.456 322.858 225.562C319.308 227.616 313.537 227.616 309.978 225.562C309.787 225.459 309.604 225.332 309.413 225.204L309.111 224.973L308.983 224.87C308.85 224.769 308.725 224.657 308.609 224.536L308.434 224.368C308.387 224.34 308.344 224.305 308.307 224.265Z" fill="#EBEBEB"/>
<path d="M325.254 203.927C330.149 206.753 330.149 211.338 325.254 214.164C320.358 216.99 312.422 216.99 307.519 214.164C302.615 211.338 302.623 206.753 307.519 203.927C312.414 201.101 320.358 201.101 325.254 203.927Z" fill="#FAFAFA"/>
<path d="M321.783 205.933C324.76 207.653 324.76 210.439 321.783 212.158C320.112 213.004 318.264 213.445 316.39 213.445C314.517 213.445 312.669 213.004 310.998 212.158C308.013 210.439 308.013 207.653 310.998 205.933C312.669 205.087 314.517 204.646 316.39 204.646C318.264 204.646 320.112 205.087 321.783 205.933Z" fill="#EBEBEB"/>
<path d="M310.998 208.886C312.669 208.04 314.517 207.599 316.39 207.599C318.264 207.599 320.111 208.04 321.783 208.886C322.505 209.276 323.118 209.84 323.566 210.526C323.112 211.195 322.499 211.742 321.783 212.118C320.111 212.964 318.264 213.405 316.39 213.405C314.517 213.405 312.669 212.964 310.998 212.118C310.281 211.74 309.666 211.194 309.207 210.526C309.661 209.841 310.276 209.278 310.998 208.886Z" fill="#E0E0E0"/>
<path d="M321.123 210.526C322.648 208.976 323.963 207.231 325.031 205.336C326.83 202.152 327.164 197.878 326.233 197.376C325.302 196.875 321.505 201.109 321.505 201.109C321.857 199.317 321.993 197.489 321.911 195.665C321.751 192.831 321.059 190.252 320.247 189.735C319.435 189.217 317.612 192.791 316.832 195.386C316.052 197.981 315.582 200.114 315.582 200.114C315.274 198.091 314.808 196.095 314.189 194.144C313.242 191.446 312.382 190.841 311.722 191.104C311.061 191.366 310.615 192.632 310.416 196.214C310.347 197.93 310.403 199.648 310.584 201.356C310.584 201.356 309.246 199.884 307.758 198.459C306.126 196.867 305.433 196.676 304.964 196.97C304.494 197.265 304.367 199.708 306.898 204.277C308.154 206.604 309.765 208.721 311.674 210.55C311.674 210.55 315.153 212.779 321.123 210.526Z" fill="#1C2945"/>
<path opacity="0.3" d="M321.123 210.526C322.648 208.976 323.963 207.231 325.031 205.336C326.83 202.152 327.164 197.878 326.233 197.376C325.302 196.875 321.505 201.109 321.505 201.109C321.857 199.317 321.993 197.489 321.911 195.665C321.751 192.831 321.059 190.252 320.247 189.735C319.435 189.217 317.612 192.791 316.832 195.386C316.052 197.981 315.582 200.114 315.582 200.114C315.274 198.091 314.808 196.095 314.189 194.144C313.242 191.446 312.382 190.841 311.722 191.104C311.061 191.366 310.615 192.632 310.416 196.214C310.347 197.93 310.403 199.648 310.584 201.356C310.584 201.356 309.246 199.884 307.758 198.459C306.126 196.867 305.433 196.676 304.964 196.97C304.494 197.265 304.367 199.708 306.898 204.277C308.154 206.604 309.765 208.721 311.674 210.55C311.674 210.55 315.153 212.779 321.123 210.526Z" fill="black"/>
<path d="M180.732 314.532L210.661 297.219C213.75 295.444 215.294 293.103 215.294 290.771C215.294 288.439 215.294 286.608 215.294 286.608L184.25 269.096C183.382 268.53 182.659 267.767 182.14 266.869C181.622 265.972 181.322 264.965 181.265 263.93V227.027L128.984 257.275V294.186C129.039 295.219 129.337 296.225 129.854 297.122C130.371 298.018 131.093 298.78 131.961 299.344L158.404 314.532C164.557 318.09 174.563 318.09 180.732 314.532Z" fill="#1C2945"/>
<g opacity="0.6">
<path opacity="0.6" d="M180.732 314.532L210.661 297.219C213.75 295.444 215.294 293.103 215.294 290.771C215.294 288.439 215.294 286.608 215.294 286.608L184.25 269.096C183.382 268.53 182.659 267.767 182.14 266.869C181.622 265.972 181.322 264.965 181.265 263.93V227.027L128.984 257.275V294.186C129.039 295.219 129.337 296.225 129.854 297.122C130.371 298.018 131.093 298.78 131.961 299.344L158.404 314.532C164.557 318.09 174.563 318.09 180.732 314.532Z" fill="black"/>
</g>
<path opacity="0.3" d="M141.537 300.681V304.868L131.985 299.344C131.119 298.777 130.399 298.015 129.882 297.119C129.365 296.223 129.066 295.219 129.008 294.186V257.243L138.942 251.536C139.141 254.059 139.372 256.678 139.579 259.225L132.59 263.269V292.1C132.641 293.135 132.937 294.142 133.455 295.039C133.973 295.936 134.697 296.697 135.567 297.258L141.537 300.681Z" fill="black"/>
<path d="M132.59 292.068C132.644 293.102 132.943 294.108 133.46 295.004C133.977 295.901 134.699 296.662 135.567 297.226L158.404 310.368C164.573 313.926 174.579 313.934 180.756 310.368L210.701 293.063C216.87 289.505 216.87 283.726 210.701 280.16L187.856 267.018C186.989 266.452 186.267 265.689 185.75 264.791C185.233 263.893 184.934 262.887 184.879 261.852V233.013L132.598 263.261L132.59 292.068Z" fill="#1C2945"/>
<path opacity="0.3" d="M132.59 292.068C132.644 293.102 132.943 294.108 133.46 295.004C133.977 295.901 134.699 296.662 135.567 297.226L158.404 310.368C164.573 313.926 174.579 313.934 180.756 310.368L210.701 293.063C216.87 289.505 216.87 283.726 210.701 280.16L187.856 267.018C186.989 266.452 186.267 265.689 185.75 264.791C185.233 263.893 184.934 262.887 184.879 261.852V233.013L132.598 263.261L132.59 292.068Z" fill="black"/>
<path opacity="0.5" d="M193.922 270.521L187.856 267.018C186.989 266.452 186.267 265.689 185.75 264.791C185.233 263.893 184.934 262.887 184.879 261.852V233.013L132.598 263.261V292.1C132.652 293.134 132.95 294.14 133.468 295.036C133.985 295.932 134.707 296.694 135.575 297.258L141.545 300.705L193.922 270.521Z" fill="black"/>
<path d="M215.302 286.608V290.771C215.302 293.111 213.71 295.435 210.669 297.226L180.732 314.524C177.451 316.278 173.786 317.189 170.065 317.174V313.027C173.786 313.042 177.451 312.131 180.732 310.376L210.669 293.063C213.75 291.288 215.302 288.948 215.302 286.608Z" fill="#1C2945"/>
<path opacity="0.5" d="M215.302 286.608V290.771C215.302 293.111 213.71 295.435 210.669 297.226L180.732 314.524C177.451 316.278 173.786 317.189 170.065 317.174V313.027C173.786 313.042 177.451 312.131 180.732 310.376L210.669 293.063C213.75 291.288 215.302 288.948 215.302 286.608Z" fill="black"/>
<path d="M48.6349 327.952C49.7638 328.5 51.0063 328.773 52.261 328.75C53.5157 328.726 54.7471 328.407 55.8546 327.817L258.039 211.075C259.121 210.368 260.022 209.416 260.668 208.296C261.314 207.175 261.686 205.919 261.756 204.628V20.4731C261.713 19.2188 261.374 17.9923 260.767 16.8939C260.159 15.7955 259.301 14.8563 258.262 14.1529C257.134 13.6061 255.893 13.3333 254.639 13.3568C253.386 13.3803 252.156 13.6995 251.05 14.2882L48.8737 131.03C47.7888 131.735 46.8859 132.687 46.2386 133.807C45.5912 134.927 45.2177 136.185 45.1484 137.477V321.584C45.183 322.846 45.5172 324.081 46.1234 325.188C46.7296 326.296 47.5905 327.243 48.6349 327.952Z" fill="#1C2945"/>
<path d="M55.8552 327.777L258.039 211.036C259.124 210.328 260.026 209.375 260.674 208.253C261.321 207.132 261.695 205.873 261.765 204.58V20.4652C261.765 18.0772 260.093 17.1299 258.039 18.316L55.8552 135.057C54.7703 135.763 53.8674 136.714 53.22 137.835C52.5726 138.955 52.1991 140.213 52.1299 141.505V325.62C52.1299 328 53.8015 328.963 55.8552 327.777Z" fill="#1C2945"/>
<path opacity="0.5" d="M55.8552 327.777L258.039 211.036C259.124 210.328 260.026 209.375 260.674 208.253C261.321 207.132 261.695 205.873 261.765 204.58V20.4652C261.765 18.0772 260.093 17.1299 258.039 18.316L55.8552 135.057C54.7703 135.763 53.8674 136.714 53.22 137.835C52.5726 138.955 52.1991 140.213 52.1299 141.505V325.62C52.1299 328 53.8015 328.963 55.8552 327.777Z" fill="black"/>
<path d="M55.306 332.027C54.2489 332.483 53.1061 332.706 51.9552 332.681C50.8043 332.657 49.6722 332.385 48.6356 331.884C47.5961 331.181 46.7376 330.242 46.1303 329.143C45.523 328.045 45.1841 326.818 45.1411 325.564V310.663L52.13 314.707V329.6C52.13 331.765 53.5071 332.728 55.306 332.027Z" fill="#1C2945"/>
<path opacity="0.5" d="M55.306 332.027C54.2489 332.483 53.1061 332.706 51.9552 332.681C50.8043 332.657 49.6722 332.385 48.6356 331.884C47.5961 331.181 46.7376 330.242 46.1303 329.143C45.523 328.045 45.1841 326.818 45.1411 325.564V310.663L52.13 314.707V329.6C52.13 331.765 53.5071 332.728 55.306 332.027Z" fill="black"/>
<path d="M52.1299 314.707V329.592C52.1299 331.98 53.8015 332.935 55.8552 331.741L258.039 215.008C259.124 214.3 260.026 213.347 260.674 212.225C261.321 211.104 261.695 209.845 261.765 208.552V193.635L52.1299 314.707Z" fill="#1C2945"/>
<path opacity="0.3" d="M52.1299 314.675V329.592C52.1299 331.98 53.8015 332.935 55.8552 331.741L258.039 215.008C259.124 214.3 260.026 213.347 260.674 212.225C261.321 211.104 261.695 209.845 261.765 208.552V193.635L52.1299 314.675Z" fill="black"/>
<path d="M59.1187 296.017V143.829C59.1615 143.053 59.3863 142.298 59.7749 141.624C60.1634 140.951 60.7048 140.378 61.3554 139.953L252.555 29.5634C253.788 28.855 254.791 29.4281 254.791 30.853V183.08C254.749 183.855 254.524 184.609 254.135 185.282C253.746 185.954 253.205 186.525 252.555 186.949L61.3554 297.314C60.1216 298.022 59.1187 297.441 59.1187 296.017Z" fill="#1C2945"/>
<path d="M59.1187 296.017V143.829C59.1615 143.053 59.3863 142.298 59.7749 141.624C60.1634 140.951 60.7048 140.378 61.3554 139.953L252.555 29.5634C253.788 28.855 254.791 29.4281 254.791 30.853V183.08C254.749 183.855 254.524 184.609 254.135 185.282C253.746 185.954 253.205 186.525 252.555 186.949L61.3554 297.314C60.1216 298.022 59.1187 297.441 59.1187 296.017Z" fill="#263238"/>
<path opacity="0.7" d="M53.2285 137.819C52.5666 138.94 52.1894 140.205 52.13 141.505V314.706L45.1411 310.663V137.477C45.1892 136.179 45.5643 134.914 46.2316 133.8L53.2285 137.819Z" fill="black"/>
<path opacity="0.3" d="M261.749 19.8523C261.486 17.9339 259.934 17.2414 258.055 18.316L55.8712 135.057C54.7702 135.74 53.8629 136.694 53.2364 137.827L46.2476 133.792C46.8786 132.661 47.7849 131.708 48.8823 131.022L251.074 14.328C252.182 13.7379 253.413 13.4181 254.668 13.3946C255.923 13.3711 257.165 13.6445 258.294 14.1927C259.239 14.8361 260.036 15.6738 260.632 16.6497C261.228 17.6257 261.608 18.7175 261.749 19.8523Z" fill="black"/>
<path d="M78.3267 310.504C77.8836 310.765 77.3838 310.915 76.87 310.942C76.1374 311.037 75.393 310.907 74.7367 310.567C74.216 310.212 73.7871 309.738 73.4854 309.184C73.1837 308.631 73.0179 308.014 73.0015 307.383V165.218L76.4959 167.232V309.429C76.4959 310.273 76.9178 310.758 77.5227 310.758C77.8065 310.735 78.0814 310.648 78.3267 310.504Z" fill="#F0F0F0"/>
<path d="M270.505 197.408C270.467 198.047 270.279 198.668 269.957 199.221C269.634 199.774 269.187 200.243 268.65 200.592L78.3267 310.504C77.3078 311.093 76.48 310.615 76.48 309.429V155.22L81.5823 152.275C82.6012 151.686 84.2649 142.723 85.2917 142.094L129.549 116.542C130.576 115.953 132.988 122.6 134.007 122.003L270.505 43.1989V197.408Z" fill="#FAFAFA"/>
<path d="M269.645 44.6556V197.408C269.61 197.9 269.463 198.378 269.217 198.805C268.97 199.233 268.629 199.599 268.221 199.876L77.8969 309.763C77.7791 309.838 77.6456 309.884 77.5068 309.899C77.3317 309.899 77.3317 309.453 77.3317 309.429V155.706L82.0122 152.999C82.7525 152.569 83.2141 151.129 84.2569 147.427C84.6291 145.841 85.1405 144.291 85.7852 142.794L129.645 117.474C130.165 118.177 130.631 118.92 131.038 119.695C132.232 121.796 132.901 122.879 133.872 122.879C134.071 122.879 134.267 122.823 134.437 122.719L269.645 44.6556ZM270.505 43.175L134.007 121.979C133.966 122.004 133.919 122.018 133.872 122.019C132.837 122.019 130.688 116.447 129.685 116.447C129.64 116.435 129.594 116.435 129.549 116.447L85.2917 141.998C84.2649 142.595 82.6012 151.55 81.5823 152.179L76.48 155.22V309.429C76.48 310.273 76.8939 310.758 77.5068 310.758C77.7901 310.746 78.0649 310.658 78.3028 310.504L268.65 200.592C269.187 200.243 269.634 199.774 269.957 199.221C270.279 198.668 270.467 198.047 270.505 197.408V43.175Z" fill="#E0E0E0"/>
<path d="M74.7359 160.911C74.2137 160.557 73.7833 160.083 73.4802 159.53C73.1771 158.976 73.01 158.358 72.9927 157.727V143.28C73.0292 142.643 73.2137 142.024 73.5315 141.471C73.8494 140.919 74.2917 140.448 74.8235 140.096L265.147 30.2478C265.683 29.9084 266.301 29.7222 266.935 29.7094C267.569 29.6966 268.194 29.8576 268.743 30.1751C269.292 30.4926 269.743 30.9543 270.048 31.5102C270.353 32.0661 270.5 32.6949 270.472 33.3284V47.7599C270.435 48.399 270.248 49.0203 269.925 49.5734C269.603 50.1266 269.155 50.5961 268.618 50.9439L78.3259 160.848C77.7743 161.139 77.1621 161.296 76.5385 161.307C75.9149 161.318 75.2974 161.183 74.7359 160.911Z" fill="#1C2945"/>
<path opacity="0.4" d="M270.481 32.9623C270.354 31.9992 269.574 31.6489 268.65 32.1663L78.3266 142.078C77.7834 142.43 77.3329 142.908 77.0132 143.471L73.5347 141.457C73.8464 140.904 74.2892 140.437 74.8242 140.096L265.148 30.248C265.66 29.9212 266.25 29.7354 266.858 29.7094C267.465 29.6834 268.068 29.8181 268.607 30.0999C269.145 30.3817 269.6 30.8007 269.925 31.3145C270.25 31.8282 270.434 32.4186 270.457 33.026L270.481 32.9623Z" fill="white"/>
<path opacity="0.1" d="M77.0131 143.471C76.6822 144.023 76.4986 144.651 76.4798 145.294V167.271L72.9854 165.257V143.28C72.9814 143.206 72.9814 143.131 72.9854 143.057C72.9997 142.902 73.0236 142.748 73.057 142.595C73.1567 142.194 73.3121 141.808 73.5187 141.449L77.0131 143.471Z" fill="black"/>
<path d="M270.497 33.2569V43.175L133.999 121.979C132.98 122.576 132.152 122.09 132.152 120.912V117.155C132.152 115.977 131.356 115.492 130.29 116.089L85.2837 142.07C84.7476 142.419 84.3006 142.889 83.9785 143.442C83.6564 143.995 83.4683 144.615 83.4291 145.254V149.003C83.3886 149.642 83.1999 150.262 82.878 150.814C82.556 151.367 82.1097 151.837 81.5744 152.187L76.48 155.22V145.294C76.5195 144.656 76.707 144.037 77.0275 143.484C77.3481 142.931 77.7929 142.461 78.3267 142.11L268.65 32.2619C269.669 31.5932 270.497 32.0788 270.497 33.2569Z" fill="#1C2945"/>
<path d="M261.805 39.4737C263.094 38.7334 264.137 39.3384 264.137 40.8269C264.093 41.6366 263.859 42.4247 263.454 43.1272C263.048 43.8297 262.484 44.4269 261.805 44.8705C260.515 45.6108 259.464 45.0059 259.464 43.5173C259.51 42.707 259.746 41.9188 260.152 41.2163C260.559 40.5139 261.125 39.9169 261.805 39.4737Z" fill="white"/>
<path d="M253.399 44.3213C254.688 43.581 255.731 44.178 255.731 45.6665C255.688 46.4766 255.454 47.2651 255.049 47.9678C254.644 48.6705 254.078 49.2675 253.399 49.7102C252.109 50.4584 251.066 49.8535 251.066 48.365C251.11 47.5552 251.345 46.7672 251.75 46.0647C252.155 45.3622 252.72 44.765 253.399 44.3213Z" fill="white"/>
<path d="M244.993 49.1689C246.282 48.4207 247.325 49.0256 247.325 50.5141C247.281 51.3239 247.047 52.1119 246.642 52.8144C246.237 53.5169 245.672 54.1142 244.993 54.5578C243.703 55.2981 242.661 54.7011 242.661 53.2126C242.703 52.4025 242.937 51.614 243.342 50.9113C243.748 50.2086 244.313 49.6116 244.993 49.1689Z" fill="white"/>
<path d="M270.505 43.175V55.2344L76.48 167.271V155.22L80.2928 153.015C81.3117 152.426 81.654 151.527 82.1395 149.831L83.437 145.342C83.843 143.75 84.233 142.723 85.2917 142.158L129.549 116.606C130.576 116.017 131.38 115.953 132.16 117.243L133.752 120.124C134.333 121.127 134.628 121.716 135.647 121.127L270.505 43.175Z" fill="#E6E6E6"/>
<path d="M76.4798 155.204V167.271L72.9854 165.258V153.206L76.4798 155.204Z" fill="#E0E0E0"/>
<path d="M84.989 156.08L82.0756 157.759L83.1821 155.626C83.2267 155.546 83.2501 155.455 83.2501 155.363C83.2501 155.271 83.2267 155.181 83.1821 155.101C83.0945 154.997 82.9512 155.101 82.8477 155.26L81.2557 158.293C81.2557 158.293 81.2557 158.364 81.2159 158.404C81.1761 158.444 81.2159 158.404 81.2159 158.404C81.212 158.454 81.212 158.505 81.2159 158.555C81.2106 158.6 81.2106 158.646 81.2159 158.691C81.2274 158.713 81.2407 158.734 81.2557 158.754L82.8477 159.964C82.8703 159.982 82.8984 159.992 82.9273 159.992C82.9563 159.992 82.9843 159.982 83.0069 159.964C83.0884 159.911 83.15 159.833 83.1821 159.741C83.2696 159.542 83.2537 159.319 83.1821 159.248L82.0756 158.388L84.989 156.708C85.0629 156.65 85.1222 156.574 85.1623 156.489C85.2023 156.403 85.222 156.309 85.2198 156.215C85.2198 156.104 85.1163 156.016 84.989 156.08Z" fill="#455A64"/>
<path d="M87.4169 154.671L90.3302 152.991L89.2158 152.139C89.1684 152.064 89.1433 151.977 89.1433 151.889C89.1433 151.8 89.1684 151.713 89.2158 151.638C89.2954 151.439 89.4467 151.343 89.5422 151.415L91.1342 152.633C91.1558 152.649 91.1724 152.671 91.1819 152.697C91.1902 152.741 91.1902 152.787 91.1819 152.832C91.1897 152.885 91.1897 152.938 91.1819 152.991L91.1342 153.111L89.5422 156.151C89.5115 156.224 89.4586 156.285 89.3909 156.326C89.3673 156.349 89.336 156.361 89.3034 156.361C89.2708 156.361 89.2395 156.349 89.2158 156.326C89.1704 156.248 89.1465 156.159 89.1465 156.068C89.1465 155.977 89.1704 155.888 89.2158 155.809L90.3302 153.676L87.4169 155.355C87.2895 155.427 87.186 155.355 87.186 155.132C87.1897 155.043 87.2121 154.956 87.2519 154.877C87.2917 154.797 87.3479 154.727 87.4169 154.671Z" fill="#455A64"/>
<path d="M96.9689 146.289C96.9689 146.114 96.8017 146.13 96.7221 146.289L96.3241 147.268C95.6396 147.196 94.8197 147.857 94.2625 149.035C93.5382 150.563 93.5382 152.37 94.2625 153.063C94.4369 153.226 94.6627 153.323 94.9009 153.337C95.1391 153.352 95.375 153.283 95.5679 153.142C96.1505 152.75 96.6068 152.197 96.8813 151.55C96.9253 151.473 96.9484 151.385 96.9484 151.296C96.9484 151.206 96.9253 151.119 96.8813 151.041C96.7858 150.953 96.6425 151.041 96.547 151.232C96.0057 152.37 95.1301 152.88 94.5968 152.362C94.0635 151.845 94.0555 150.492 94.5968 149.353C94.9789 148.557 95.5281 148.064 96.0057 148.032L95.7112 148.772C95.6316 148.963 95.7112 149.139 95.8226 149.059L97.0087 148.263C97.0575 148.227 97.0957 148.178 97.1195 148.122C97.1433 148.066 97.1517 148.005 97.144 147.945L96.9689 146.289Z" fill="#455A64"/>
<path d="M128.267 122.035L129.334 119.79C129.394 119.683 129.425 119.562 129.425 119.44C129.425 119.317 129.394 119.197 129.334 119.09C129.207 118.97 129 119.09 128.88 119.352L127.814 121.597L126.755 120.578C126.628 120.459 126.429 120.578 126.301 120.841C126.237 120.946 126.204 121.068 126.204 121.191C126.204 121.314 126.237 121.436 126.301 121.541L127.36 122.584L126.301 124.829C126.237 124.934 126.204 125.055 126.204 125.179C126.204 125.302 126.237 125.424 126.301 125.529C126.332 125.557 126.372 125.572 126.413 125.572C126.454 125.572 126.494 125.557 126.524 125.529C126.628 125.462 126.709 125.365 126.755 125.251L127.814 123.006L128.88 124.025C128.911 124.052 128.951 124.067 128.992 124.067C129.033 124.067 129.073 124.052 129.103 124.025C129.207 123.958 129.288 123.861 129.334 123.746C129.394 123.639 129.425 123.519 129.425 123.396C129.425 123.273 129.394 123.153 129.334 123.046L128.267 122.035Z" fill="#455A64"/>
<path d="M100.837 149.051V145.294C100.876 144.655 101.064 144.034 101.386 143.481C101.708 142.928 102.155 142.459 102.692 142.11L258.207 52.329C259.233 51.732 260.061 52.2176 260.061 53.3957V57.1528C260.023 57.7916 259.835 58.4124 259.513 58.9654C259.191 59.5184 258.743 59.9881 258.207 60.3368L102.684 150.118C101.665 150.715 100.837 150.229 100.837 149.051Z" fill="#FAFAFA"/>
<path d="M255.683 60.6552C255.628 60.6643 255.571 60.6643 255.516 60.6552C255.412 60.607 255.328 60.5247 255.277 60.4218C255.226 60.319 255.212 60.2019 255.237 60.09L255.421 58.5697L254.704 58.0523C254.642 58.0033 254.592 57.9402 254.559 57.8683C254.526 57.7963 254.51 57.7176 254.513 57.6384C254.51 57.5148 254.536 57.3922 254.588 57.2803C254.641 57.1684 254.719 57.0702 254.816 56.9936L255.906 56.1499C255.928 56.1241 255.944 56.0943 255.954 56.0623L256.44 54.4703C256.469 54.3393 256.537 54.2201 256.635 54.1279C256.733 54.0358 256.856 53.9748 256.989 53.9529C257.078 53.9427 257.169 53.9621 257.246 54.0081C257.324 54.0541 257.385 54.1241 257.419 54.2076L257.825 55.0753L258.748 54.725C258.83 54.6884 258.922 54.6794 259.009 54.6995C259.097 54.7196 259.176 54.7677 259.234 54.8365C259.309 54.9466 259.35 55.077 259.35 55.2106C259.35 55.3442 259.309 55.4746 259.234 55.5847L258.438 57.0653C258.434 57.0943 258.434 57.1237 258.438 57.1528L258.629 58.4901C258.643 58.6124 258.629 58.7365 258.588 58.8525C258.546 58.9685 258.479 59.0734 258.39 59.1587C258.338 59.22 258.271 59.2674 258.196 59.2966C258.121 59.3258 258.04 59.3358 257.96 59.3259L257.108 59.1906L256.145 60.4164C256.094 60.4912 256.025 60.5522 255.944 60.5939C255.864 60.6355 255.774 60.6566 255.683 60.6552ZM255.158 57.5508L255.874 58.0682C255.948 58.1287 256.005 58.2077 256.039 58.2972C256.072 58.3867 256.081 58.4834 256.065 58.5776L255.938 59.5965L256.583 58.8005C256.638 58.7221 256.712 58.659 256.799 58.6173C256.885 58.5755 256.981 58.5564 257.076 58.5617L257.968 58.6732C257.974 58.6389 257.974 58.6039 257.968 58.5697L257.777 57.2324C257.762 57.0673 257.795 56.9015 257.872 56.7548L258.565 55.4573L257.904 55.72C257.799 55.7632 257.682 55.7641 257.577 55.7226C257.471 55.681 257.386 55.6002 257.339 55.4971L257.021 54.8126L256.583 56.2374C256.537 56.3977 256.443 56.5397 256.312 56.6434L255.222 57.4394C255.19 57.4697 255.168 57.5084 255.158 57.5508Z" fill="#E0E0E0"/>
<path d="M262.25 51.8673C262.107 51.8715 261.967 51.8276 261.853 51.7426C261.738 51.6576 261.655 51.5365 261.617 51.3987C261.58 51.2609 261.589 51.1145 261.645 50.983C261.701 50.8514 261.799 50.7424 261.924 50.6733L267.145 47.6565C267.219 47.6084 267.301 47.5757 267.388 47.5605C267.474 47.5453 267.563 47.5479 267.648 47.5682C267.733 47.5884 267.814 47.6258 267.884 47.6782C267.954 47.7305 268.013 47.7967 268.057 47.8726C268.101 47.9486 268.129 48.0327 268.14 48.1198C268.15 48.2069 268.142 48.2952 268.117 48.3793C268.092 48.4634 268.05 48.5415 267.994 48.6088C267.938 48.6762 267.869 48.7313 267.79 48.7709L262.568 51.7798C262.473 51.8391 262.362 51.8696 262.25 51.8673Z" fill="#455A64"/>
<path d="M262.25 54.924C262.137 54.925 262.026 54.8961 261.929 54.8401C261.831 54.7842 261.749 54.7032 261.693 54.6056C261.608 54.4574 261.585 54.2819 261.628 54.1167C261.671 53.9516 261.777 53.8099 261.924 53.722L267.146 50.7132C267.219 50.6702 267.3 50.6421 267.384 50.6304C267.468 50.6187 267.553 50.6238 267.635 50.6452C267.717 50.6666 267.794 50.7041 267.862 50.7554C267.93 50.8066 267.986 50.8707 268.029 50.944C268.072 51.017 268.099 51.0977 268.11 51.1815C268.121 51.2652 268.115 51.3503 268.093 51.4318C268.071 51.5133 268.033 51.5896 267.981 51.6561C267.929 51.7227 267.864 51.7783 267.79 51.8196L262.569 54.8364C262.473 54.8958 262.363 54.9262 262.25 54.924Z" fill="#455A64"/>
<path d="M262.25 57.901C262.108 57.9015 261.97 57.8551 261.857 57.7691C261.745 57.683 261.663 57.5622 261.626 57.4252C261.589 57.2883 261.598 57.1429 261.652 57.0116C261.706 56.8803 261.801 56.7705 261.924 56.6991L267.146 53.6822C267.295 53.5982 267.471 53.5761 267.636 53.6208C267.802 53.6655 267.943 53.7733 268.029 53.921C268.072 53.994 268.099 54.0748 268.11 54.1585C268.121 54.2422 268.115 54.3273 268.093 54.4088C268.071 54.4903 268.033 54.5666 267.981 54.6331C267.929 54.6997 267.864 54.7553 267.79 54.7966L262.569 57.8135C262.472 57.8691 262.362 57.8993 262.25 57.901Z" fill="#455A64"/>
<path d="M82.2032 170.647C82.0605 170.651 81.9204 170.607 81.8057 170.522C81.6909 170.437 81.608 170.316 81.5704 170.178C81.5327 170.04 81.5425 169.894 81.5981 169.762C81.6536 169.631 81.7518 169.522 81.8769 169.453L87.0986 166.436C87.2456 166.361 87.4155 166.346 87.5734 166.393C87.7313 166.44 87.8652 166.546 87.9477 166.688C88.0302 166.831 88.055 166.999 88.017 167.16C87.979 167.32 87.8811 167.46 87.7434 167.55L82.5216 170.559C82.4257 170.617 82.3154 170.647 82.2032 170.647Z" fill="#455A64"/>
<path d="M82.2032 173.663C82.0905 173.664 81.9795 173.635 81.8816 173.579C81.7837 173.523 81.7024 173.443 81.646 173.345C81.603 173.272 81.5749 173.191 81.5633 173.107C81.5516 173.023 81.5566 172.937 81.5781 172.855C81.5995 172.773 81.6369 172.696 81.6882 172.629C81.7395 172.561 81.8036 172.504 81.8769 172.461L87.0986 169.453C87.1712 169.41 87.2515 169.382 87.3349 169.37C87.4183 169.359 87.5032 169.364 87.5846 169.385C87.666 169.407 87.7424 169.444 87.8093 169.495C87.8762 169.546 87.9322 169.61 87.9742 169.683C88.0172 169.756 88.0453 169.837 88.057 169.921C88.0687 170.005 88.0636 170.091 88.0422 170.173C88.0207 170.255 87.9833 170.332 87.932 170.4C87.8808 170.467 87.8167 170.524 87.7434 170.567L82.5216 173.576C82.4257 173.634 82.3154 173.664 82.2032 173.663Z" fill="#455A64"/>
<path d="M82.2034 176.712C82.0615 176.712 81.9234 176.666 81.8105 176.58C81.6977 176.494 81.6164 176.373 81.5792 176.236C81.542 176.099 81.551 175.954 81.6049 175.823C81.6587 175.691 81.7544 175.581 81.877 175.51L87.0988 172.501C87.171 172.457 87.2513 172.428 87.335 172.416C87.4186 172.404 87.5039 172.409 87.5856 172.431C87.6673 172.452 87.7439 172.49 87.8107 172.542C87.8775 172.593 87.9331 172.658 87.9744 172.732C88.0172 172.805 88.0451 172.885 88.0567 172.968C88.0683 173.052 88.0632 173.137 88.0417 173.218C88.0202 173.299 87.9828 173.376 87.9316 173.443C87.8805 173.51 87.8165 173.566 87.7435 173.608L82.5218 176.624C82.4244 176.679 82.315 176.709 82.2034 176.712Z" fill="#455A64"/>
<path d="M128.515 144.076V148.701C128.515 149.648 129.183 150.03 130.003 149.56L192.035 113.693V105.621L130.011 141.489C129.575 141.772 129.213 142.154 128.953 142.603C128.693 143.053 128.543 143.557 128.515 144.076Z" fill="#E6E6E6"/>
<path d="M199.852 101.092C200.648 100.614 201.34 101.004 201.34 101.952V106.576C201.311 107.093 201.162 107.595 200.903 108.043C200.645 108.491 200.284 108.872 199.852 109.155L192.035 113.669V105.621L199.852 101.092Z" fill="#1C2945"/>
<path d="M199.271 107.46L198.404 107.181C198.492 106.814 198.538 106.437 198.539 106.059C198.579 105.706 198.527 105.349 198.388 105.022C198.248 104.696 198.026 104.411 197.743 104.196C197.546 104.092 197.324 104.042 197.101 104.053C196.878 104.065 196.663 104.136 196.477 104.26C195.922 104.686 195.475 105.236 195.172 105.867C194.87 106.497 194.719 107.19 194.734 107.89C194.694 108.243 194.746 108.6 194.885 108.927C195.025 109.253 195.247 109.538 195.53 109.752C195.697 109.847 195.887 109.897 196.079 109.896C196.332 109.893 196.58 109.822 196.796 109.689C197.461 109.233 197.956 108.57 198.205 107.802L199.08 108.073C199.112 108.081 199.144 108.081 199.176 108.073C199.257 108.081 199.338 108.058 199.403 108.008C199.468 107.958 199.511 107.885 199.523 107.804C199.535 107.723 199.516 107.641 199.469 107.574C199.422 107.507 199.351 107.46 199.271 107.444V107.46ZM196.477 109.132C196.387 109.197 196.281 109.237 196.171 109.247C196.06 109.256 195.948 109.236 195.848 109.187C195.673 109.024 195.539 108.821 195.457 108.595C195.375 108.37 195.349 108.128 195.379 107.89C195.37 107.304 195.493 106.724 195.738 106.193C195.983 105.661 196.345 105.191 196.796 104.817C196.916 104.745 197.053 104.704 197.194 104.698C197.275 104.695 197.356 104.718 197.424 104.762C197.6 104.925 197.734 105.128 197.816 105.354C197.898 105.579 197.924 105.821 197.894 106.059C197.901 106.643 197.778 107.222 197.533 107.752C197.288 108.282 196.927 108.751 196.477 109.124V109.132Z" fill="#FAFAFA"/>
<path d="M102.732 157.234L93.7771 162.384C93.3443 162.663 92.9838 163.041 92.7251 163.487C92.4664 163.932 92.3168 164.433 92.2886 164.947V169.556C92.2886 170.503 92.9572 170.885 93.7771 170.416L102.732 165.234C103.164 164.952 103.523 164.572 103.781 164.126C104.038 163.679 104.186 163.178 104.213 162.663V158.086C104.213 157.146 103.552 156.756 102.732 157.234Z" fill="#1C2945"/>
<path d="M258.469 67.3097C257.455 67.9725 256.611 68.8648 256.005 69.9144C255.399 70.964 255.049 72.1414 254.983 73.3514C254.983 75.5802 256.575 76.4797 258.469 75.3733C259.486 74.7101 260.332 73.8168 260.939 72.7658C261.546 71.7148 261.897 70.5356 261.964 69.3236C261.964 67.0948 260.396 66.1953 258.469 67.3097Z" fill="#1C2945"/>
<path d="M258.064 70.844C257.955 70.8458 257.848 70.8183 257.753 70.7644C257.643 70.6859 257.554 70.5803 257.495 70.4576C257.437 70.335 257.41 70.1995 257.419 70.0639C257.434 69.7448 257.525 69.4339 257.684 69.157C257.843 68.8801 258.066 68.6452 258.335 68.4719C258.443 68.3859 258.576 68.3345 258.714 68.3246C258.852 68.3146 258.991 68.3464 259.111 68.4158C259.231 68.4853 259.327 68.5893 259.388 68.7143C259.448 68.8392 259.469 68.9794 259.449 69.1167C259.432 69.4362 259.339 69.747 259.179 70.0238C259.018 70.3006 258.794 70.5353 258.526 70.7087C258.385 70.7915 258.227 70.838 258.064 70.844Z" fill="white"/>
<path d="M259.847 71.0907C259.653 70.994 259.437 70.9517 259.221 70.9686C259.005 70.9854 258.797 71.0606 258.621 71.1863L258.111 71.4808C257.649 71.7739 257.264 72.1731 256.987 72.6452C256.71 73.1173 256.55 73.6487 256.52 74.1952V74.5613C256.831 74.6961 257.172 74.7479 257.51 74.7116C257.847 74.6753 258.17 74.5523 258.446 74.3544C259.249 73.8549 259.912 73.1591 260.372 72.3325V72.245C260.394 72.0234 260.357 71.7999 260.264 71.5973C260.172 71.3946 260.028 71.2199 259.847 71.0907Z" fill="white"/>
<path d="M246.124 78.1035V76.8697C246.124 75.4688 245.272 74.824 244.221 75.429C243.64 75.8448 243.164 76.3913 242.832 77.0245C242.5 77.6577 242.322 78.3599 242.311 79.0747V80.1811C242.286 80.9412 242.063 81.6818 241.666 82.3303C241.567 82.4999 241.513 82.6914 241.507 82.8875C241.507 83.2457 241.722 83.4049 241.984 83.2537L246.45 80.6826C246.595 80.5759 246.714 80.437 246.797 80.2769C246.88 80.1167 246.924 79.9395 246.928 79.7592C246.933 79.6902 246.923 79.6208 246.898 79.5561C246.873 79.4914 246.834 79.433 246.784 79.3851C246.56 79.2608 246.377 79.0727 246.26 78.8445C246.142 78.6164 246.095 78.3586 246.124 78.1035Z" fill="#1C2945"/>
<path d="M245.168 81.8289C245.163 82.1718 245.077 82.5087 244.918 82.8127C244.759 83.1167 244.531 83.3795 244.253 83.58C243.744 83.8666 243.33 83.58 243.33 82.8875L245.168 81.8289Z" fill="#1C2945"/>
<path d="M229.662 83.9621C229.906 83.8178 230.177 83.7256 230.458 83.6915C230.679 83.6656 230.902 83.7102 231.095 83.8188C231.282 83.9334 231.43 84.103 231.517 84.3044C231.62 84.5814 231.66 84.8776 231.636 85.172C231.639 85.4399 231.61 85.7072 231.549 85.968C231.491 86.2014 231.417 86.4302 231.326 86.6526C231.239 86.8621 231.141 87.0667 231.031 87.2655L230.713 87.8386C230.617 88.0217 230.522 88.2128 230.442 88.3958C230.366 88.572 230.31 88.7563 230.275 88.9451C230.267 89.0353 230.246 89.1239 230.211 89.2078C230.185 89.2716 230.14 89.3267 230.084 89.3669L229.185 89.8843C229.129 89.8843 229.081 89.8843 229.049 89.8843C229.026 89.86 229.009 89.8311 228.998 89.7996C228.987 89.768 228.983 89.7345 228.986 89.7013C228.984 89.456 229.019 89.212 229.089 88.9769C229.153 88.7462 229.233 88.5202 229.328 88.3003C229.431 88.0854 229.535 87.8705 229.654 87.6715C229.774 87.4725 229.869 87.2735 229.973 87.0984C230.076 86.9232 230.148 86.7402 230.219 86.573C230.279 86.4235 230.312 86.2644 230.315 86.1034C230.315 85.8805 230.259 85.7372 230.156 85.6815C230.052 85.6258 229.877 85.6815 229.654 85.777C229.463 85.8773 229.301 86.0254 229.185 86.2068C229.097 86.3498 229.025 86.502 228.97 86.6606L228.858 87.0586C228.833 87.1664 228.768 87.2605 228.675 87.3212L227.776 87.8386C227.759 87.8503 227.74 87.8566 227.72 87.8566C227.7 87.8566 227.68 87.8503 227.664 87.8386C227.646 87.8166 227.632 87.7912 227.624 87.7638C227.616 87.7365 227.613 87.7078 227.616 87.6794C227.628 87.3697 227.676 87.0624 227.76 86.764C227.861 86.4104 227.994 86.0667 228.158 85.7372C228.331 85.3898 228.545 85.0639 228.795 84.7661C229.033 84.448 229.327 84.1756 229.662 83.9621ZM230.299 91.3171C230.299 91.4025 230.28 91.4867 230.243 91.5639C230.213 91.6325 230.163 91.6906 230.1 91.7311L229.177 92.2644C229.168 92.2733 229.157 92.2804 229.146 92.2852C229.134 92.29 229.122 92.2925 229.109 92.2925C229.096 92.2925 229.084 92.29 229.072 92.2852C229.061 92.2804 229.05 92.2733 229.041 92.2644C229.018 92.24 229.001 92.2111 228.99 92.1796C228.979 92.1481 228.975 92.1146 228.978 92.0813V90.943C228.98 90.857 229.002 90.7726 229.041 90.6963C229.066 90.6248 229.114 90.5634 229.177 90.5211L230.1 89.9878C230.12 89.971 230.145 89.9617 230.172 89.9617C230.198 89.9617 230.223 89.971 230.243 89.9878C230.265 90.0114 230.28 90.0392 230.29 90.0694C230.3 90.0996 230.303 90.1315 230.299 90.1629V91.3171Z" fill="#1C2945"/>
<path d="M214.347 113.924V129.748C214.347 130.934 215.143 131.412 216.202 130.823L236.85 118.883C237.386 118.533 237.833 118.064 238.155 117.511C238.477 116.958 238.665 116.337 238.705 115.699V99.8981C238.705 98.72 237.909 98.2345 236.85 98.8315L216.154 110.771C215.631 111.123 215.196 111.59 214.882 112.136C214.569 112.683 214.386 113.295 214.347 113.924Z" fill="#1C2945"/>
<path opacity="0.5" d="M214.347 113.924V129.748C214.347 130.934 215.143 131.412 216.202 130.823L236.85 118.883C237.386 118.533 237.833 118.064 238.155 117.511C238.477 116.958 238.665 116.337 238.705 115.699V99.8981C238.705 98.72 237.909 98.2345 236.85 98.8315L216.154 110.771C215.631 111.123 215.196 111.59 214.882 112.136C214.569 112.683 214.386 113.295 214.347 113.924Z" fill="white"/>
<path d="M223.175 120.562V113.645C223.18 113.3 223.317 112.97 223.556 112.722C223.795 112.474 224.12 112.326 224.464 112.308L230.777 112.029C231.485 112.029 231.668 112.403 231.199 112.929L224.035 120.889C223.565 121.414 223.175 121.271 223.175 120.562Z" fill="#FAFAFA"/>
<path d="M244.643 95.4404L261.359 85.769C261.82 85.5063 262.194 85.6974 262.194 86.1909C262.174 86.4701 262.087 86.7404 261.942 86.9797C261.796 87.219 261.597 87.4206 261.359 87.568L244.643 97.2394C244.181 97.502 243.847 97.311 243.847 96.8175C243.862 96.5417 243.943 96.2735 244.081 96.0343C244.219 95.7952 244.412 95.5918 244.643 95.4404Z" fill="#455A64"/>
<path d="M244.643 99.0303L261.359 89.3669C261.82 89.1042 262.194 89.2873 262.194 89.7888C262.174 90.068 262.087 90.3383 261.942 90.5776C261.796 90.8169 261.597 91.0185 261.359 91.1659L244.643 100.829C244.181 101.1 243.847 100.909 243.847 100.415C243.863 100.139 243.943 99.8692 244.081 99.6287C244.219 99.3883 244.411 99.1834 244.643 99.0303Z" fill="#455A64"/>
<path d="M244.643 102.525L261.359 92.8534C261.82 92.5907 262.194 92.7817 262.194 93.2753C262.174 93.5544 262.087 93.8247 261.942 94.0641C261.796 94.3034 261.597 94.505 261.359 94.6523L244.643 104.316C244.181 104.586 243.847 104.395 243.847 103.902C243.862 103.626 243.942 103.357 244.08 103.118C244.218 102.879 244.411 102.676 244.643 102.525Z" fill="#455A64"/>
<path d="M244.372 107.516L255.867 100.877C256.177 100.694 256.432 100.829 256.432 101.164C256.417 101.355 256.359 101.54 256.261 101.704C256.163 101.868 256.028 102.008 255.867 102.111L244.372 108.75C244.062 108.925 243.807 108.797 243.807 108.455C243.821 108.265 243.88 108.081 243.978 107.918C244.076 107.755 244.211 107.617 244.372 107.516Z" fill="#E0E0E0"/>
<path d="M244.372 109.983L255.867 103.345C256.177 103.162 256.432 103.297 256.432 103.631C256.417 103.822 256.359 104.007 256.261 104.172C256.163 104.336 256.028 104.475 255.867 104.578L244.372 111.217C244.062 111.392 243.807 111.265 243.807 110.923C243.821 110.733 243.88 110.549 243.978 110.386C244.076 110.223 244.211 110.085 244.372 109.983Z" fill="#E0E0E0"/>
<path d="M244.372 112.371L255.867 105.741C256.177 105.558 256.432 105.685 256.432 106.027C256.417 106.218 256.359 106.403 256.261 106.567C256.163 106.732 256.028 106.871 255.867 106.974L244.372 113.605C244.062 113.788 243.807 113.661 243.807 113.318C243.821 113.128 243.88 112.943 243.978 112.778C244.076 112.614 244.211 112.474 244.372 112.371Z" fill="#E0E0E0"/>
<path d="M214.347 142.062V157.871C214.347 159.057 215.143 159.534 216.202 158.945L236.85 147.005C237.386 146.656 237.833 146.186 238.155 145.633C238.477 145.08 238.665 144.46 238.705 143.821V128.021C238.705 126.835 237.909 126.357 236.85 126.946L216.154 138.886C215.627 139.239 215.19 139.71 214.876 140.261C214.563 140.812 214.382 141.429 214.347 142.062Z" fill="#1C2945"/>
<path opacity="0.5" d="M214.347 142.062V157.871C214.347 159.057 215.143 159.534 216.202 158.945L236.85 147.005C237.386 146.656 237.833 146.186 238.155 145.633C238.477 145.08 238.665 144.46 238.705 143.821V128.021C238.705 126.835 237.909 126.357 236.85 126.946L216.154 138.886C215.627 139.239 215.19 139.71 214.876 140.261C214.563 140.812 214.382 141.429 214.347 142.062Z" fill="white"/>
<path d="M223.175 148.693V141.783C223.178 141.438 223.314 141.107 223.554 140.859C223.794 140.61 224.119 140.462 224.464 140.446L230.777 140.168C231.485 140.168 231.668 140.542 231.199 141.067L224.035 149.027C223.565 149.553 223.175 149.409 223.175 148.693Z" fill="#FAFAFA"/>
<path d="M244.643 123.571L261.359 113.908C261.82 113.645 262.194 113.828 262.194 114.329C262.174 114.609 262.087 114.879 261.942 115.118C261.796 115.358 261.597 115.559 261.359 115.707L244.643 125.37C244.181 125.641 243.847 125.45 243.847 124.956C243.863 124.679 243.943 124.41 244.081 124.169C244.219 123.929 244.411 123.724 244.643 123.571Z" fill="#455A64"/>
<path d="M244.643 127.169L261.359 117.506C261.82 117.243 262.194 117.426 262.194 117.927C262.172 118.206 262.085 118.476 261.94 118.715C261.795 118.954 261.596 119.156 261.359 119.304L244.643 128.968C244.181 129.231 243.847 129.048 243.847 128.546C243.862 128.27 243.943 128.002 244.081 127.763C244.219 127.524 244.412 127.32 244.643 127.169Z" fill="#455A64"/>
<path d="M244.643 130.655L261.359 120.992C261.82 120.729 262.194 120.912 262.194 121.414C262.174 121.693 262.087 121.963 261.942 122.203C261.796 122.442 261.597 122.644 261.359 122.791L244.643 132.454C244.181 132.717 243.847 132.534 243.847 132.033C243.864 131.757 243.944 131.489 244.083 131.25C244.221 131.011 244.412 130.808 244.643 130.655Z" fill="#455A64"/>
<path d="M244.372 135.646L255.867 129.016C256.177 128.833 256.432 128.96 256.432 129.302C256.417 129.493 256.359 129.678 256.261 129.843C256.163 130.007 256.028 130.146 255.867 130.25L244.372 136.912C244.062 137.095 243.807 136.968 243.807 136.625C243.816 136.429 243.873 136.238 243.971 136.067C244.069 135.897 244.207 135.753 244.372 135.646Z" fill="#E0E0E0"/>
<path d="M244.372 138.114L255.867 131.483C256.177 131.3 256.432 131.427 256.432 131.77C256.417 131.961 256.359 132.146 256.261 132.31C256.163 132.474 256.028 132.614 255.867 132.717L244.372 139.348C244.062 139.531 243.807 139.403 243.807 139.061C243.821 138.87 243.88 138.685 243.978 138.521C244.076 138.357 244.211 138.217 244.372 138.114Z" fill="#E0E0E0"/>
<path d="M244.372 140.51L255.867 133.879C256.177 133.696 256.432 133.824 256.432 134.166C256.417 134.357 256.359 134.542 256.261 134.706C256.163 134.871 256.028 135.01 255.867 135.113L244.372 141.744C244.062 141.927 243.807 141.799 243.807 141.457C243.821 141.266 243.88 141.081 243.978 140.917C244.076 140.752 244.211 140.613 244.372 140.51Z" fill="#E0E0E0"/>
<path d="M214.347 170.177V185.985C214.347 187.171 215.143 187.649 216.202 187.06L236.85 175.12C237.386 174.771 237.833 174.301 238.155 173.748C238.477 173.195 238.665 172.575 238.705 171.936V156.135C238.705 154.957 237.909 154.472 236.85 155.069L216.154 167.009C215.629 167.362 215.192 167.831 214.879 168.381C214.565 168.93 214.383 169.545 214.347 170.177Z" fill="#1C2945"/>
<path opacity="0.5" d="M214.347 170.177V185.985C214.347 187.171 215.143 187.649 216.202 187.06L236.85 175.12C237.386 174.771 237.833 174.301 238.155 173.748C238.477 173.195 238.665 172.575 238.705 171.936V156.135C238.705 154.957 237.909 154.472 236.85 155.069L216.154 167.009C215.629 167.362 215.192 167.831 214.879 168.381C214.565 168.93 214.383 169.545 214.347 170.177Z" fill="white"/>
<path d="M223.175 176.816V169.898C223.18 169.553 223.317 169.224 223.556 168.975C223.795 168.727 224.12 168.579 224.464 168.561L230.777 168.282C231.485 168.282 231.668 168.656 231.199 169.182L224.035 177.142C223.565 177.667 223.175 177.508 223.175 176.816Z" fill="#FAFAFA"/>
<path d="M244.643 151.694L261.359 142.022C261.82 141.76 262.194 141.951 262.194 142.444C262.174 142.723 262.087 142.994 261.942 143.233C261.796 143.472 261.597 143.674 261.359 143.821L244.643 153.493C244.181 153.755 243.847 153.564 243.847 153.071C243.862 152.795 243.942 152.526 244.08 152.287C244.218 152.048 244.411 151.845 244.643 151.694Z" fill="#455A64"/>
<path d="M244.643 155.284L261.359 145.62C261.82 145.358 262.194 145.541 262.194 146.042C262.174 146.321 262.087 146.592 261.942 146.831C261.796 147.07 261.597 147.272 261.359 147.419L244.643 157.083C244.181 157.353 243.847 157.162 243.847 156.669C243.863 156.392 243.943 156.122 244.081 155.882C244.219 155.642 244.411 155.437 244.643 155.284Z" fill="#455A64"/>
<path d="M244.643 158.778L261.359 149.107C261.82 148.844 262.194 149.035 262.194 149.529C262.174 149.808 262.087 150.078 261.942 150.317C261.796 150.557 261.597 150.758 261.359 150.906L244.643 160.569C244.181 160.84 243.847 160.649 243.847 160.155C243.862 159.879 243.942 159.611 244.08 159.372C244.218 159.132 244.411 158.929 244.643 158.778Z" fill="#455A64"/>
<path d="M244.372 163.769L255.867 157.13C256.177 156.947 256.432 157.083 256.432 157.417C256.417 157.608 256.359 157.793 256.261 157.957C256.163 158.122 256.028 158.261 255.867 158.364L244.372 165.003C244.062 165.178 243.807 165.05 243.807 164.708C243.821 164.518 243.88 164.335 243.978 164.171C244.076 164.008 244.211 163.87 244.372 163.769Z" fill="#E0E0E0"/>
<path d="M244.372 166.237L255.867 159.598C256.177 159.415 256.432 159.55 256.432 159.885C256.417 160.075 256.359 160.26 256.261 160.425C256.163 160.589 256.028 160.729 255.867 160.832L244.372 167.471C244.062 167.646 243.807 167.518 243.807 167.176C243.821 166.986 243.88 166.802 243.978 166.639C244.076 166.476 244.211 166.338 244.372 166.237Z" fill="#E0E0E0"/>
<path d="M244.372 168.625L255.867 161.994C256.177 161.811 256.432 161.938 256.432 162.281C256.417 162.471 256.359 162.656 256.261 162.821C256.163 162.985 256.028 163.125 255.867 163.228L244.372 169.859C244.062 170.042 243.807 169.914 243.807 169.572C243.821 169.381 243.88 169.196 243.978 169.032C244.076 168.867 244.211 168.728 244.372 168.625Z" fill="#E0E0E0"/>
<path d="M214.347 198.315V214.124C214.347 215.302 215.143 215.78 216.202 215.191L236.85 203.251C237.387 202.902 237.834 202.432 238.156 201.879C238.478 201.326 238.666 200.705 238.705 200.067V184.266C238.705 183.088 237.909 182.61 236.85 183.199L216.154 195.139C215.627 195.492 215.19 195.963 214.876 196.514C214.563 197.066 214.382 197.682 214.347 198.315Z" fill="#1C2945"/>
<path opacity="0.5" d="M214.347 198.315V214.124C214.347 215.302 215.143 215.78 216.202 215.191L236.85 203.251C237.387 202.902 237.834 202.432 238.156 201.879C238.478 201.326 238.666 200.705 238.705 200.067V184.266C238.705 183.088 237.909 182.61 236.85 183.199L216.154 195.139C215.627 195.492 215.19 195.963 214.876 196.514C214.563 197.066 214.382 197.682 214.347 198.315Z" fill="white"/>
<path d="M223.175 204.954V198.045C223.178 197.699 223.314 197.367 223.553 197.117C223.793 196.867 224.119 196.718 224.464 196.7L230.777 196.429C231.485 196.429 231.668 196.795 231.199 197.328L224.035 205.288C223.565 205.814 223.175 205.662 223.175 204.954Z" fill="#FAFAFA"/>
<path d="M244.643 179.832L261.359 170.169C261.82 169.898 262.194 170.089 262.194 170.583C262.174 170.862 262.088 171.133 261.943 171.372C261.797 171.611 261.597 171.813 261.359 171.96L244.643 181.631C244.181 181.894 243.847 181.711 243.847 181.209C243.862 180.934 243.943 180.665 244.081 180.426C244.219 180.187 244.412 179.984 244.643 179.832Z" fill="#455A64"/>
<path d="M244.643 183.43L261.359 173.759C261.82 173.496 262.194 173.687 262.194 174.181C262.174 174.46 262.087 174.73 261.942 174.97C261.796 175.209 261.597 175.41 261.359 175.558L244.643 185.229C244.181 185.492 243.847 185.301 243.847 184.807C243.862 184.531 243.943 184.263 244.081 184.024C244.219 183.785 244.412 183.582 244.643 183.43Z" fill="#455A64"/>
<path d="M244.643 186.917L261.359 177.245C261.82 176.983 262.194 177.174 262.194 177.667C262.174 177.946 262.088 178.217 261.943 178.456C261.797 178.696 261.597 178.897 261.359 179.044L244.643 188.716C244.181 188.978 243.847 188.787 243.847 188.294C243.862 188.018 243.943 187.75 244.081 187.511C244.219 187.271 244.412 187.068 244.643 186.917Z" fill="#455A64"/>
<path d="M244.372 191.908L255.867 185.269C256.177 185.094 256.432 185.221 256.432 185.564C256.417 185.753 256.359 185.937 256.261 186.1C256.163 186.264 256.028 186.401 255.867 186.503L244.372 193.141C244.062 193.325 243.807 193.189 243.807 192.855C243.821 192.664 243.88 192.479 243.978 192.315C244.076 192.15 244.211 192.011 244.372 191.908Z" fill="#E0E0E0"/>
<path d="M244.372 194.375L255.867 187.737C256.177 187.561 256.432 187.689 256.432 188.031C256.417 188.221 256.359 188.405 256.261 188.568C256.163 188.731 256.028 188.869 255.867 188.97L244.372 195.609C244.062 195.792 243.807 195.657 243.807 195.323C243.821 195.132 243.88 194.947 243.978 194.782C244.076 194.618 244.211 194.479 244.372 194.375Z" fill="#E0E0E0"/>
<path d="M244.372 196.763L255.867 190.132C256.177 189.949 256.432 190.085 256.432 190.419C256.417 190.61 256.359 190.795 256.261 190.959C256.163 191.124 256.028 191.263 255.867 191.366L244.372 197.997C244.062 198.18 243.807 198.053 243.807 197.711C243.821 197.52 243.88 197.335 243.978 197.17C244.076 197.006 244.211 196.866 244.372 196.763Z" fill="#E0E0E0"/>
<path d="M85.801 274.413L148.223 238.37C149.242 237.781 150.078 238.203 150.07 239.309C150.024 239.932 149.833 240.536 149.51 241.071C149.188 241.606 148.745 242.058 148.215 242.39L85.801 278.433C84.7821 279.022 83.9463 278.6 83.9463 277.494C83.992 276.871 84.1837 276.267 84.5059 275.732C84.8281 275.197 85.2718 274.745 85.801 274.413Z" fill="#455A64"/>
<path d="M84.9893 281.688L120.013 261.494C120.594 261.16 121.056 261.391 121.056 262.019C121.029 262.369 120.921 262.707 120.74 263.007C120.559 263.307 120.31 263.56 120.013 263.747L85.0291 283.941C84.456 284.275 83.9863 284.037 83.9863 283.416C84.0088 283.07 84.1111 282.734 84.2851 282.434C84.4591 282.135 84.7001 281.879 84.9893 281.688Z" fill="#E0E0E0"/>
<path d="M98.6164 280.884L143.328 255.078C144.347 254.481 145.182 254.903 145.182 256.017C145.137 256.64 144.945 257.244 144.623 257.779C144.301 258.314 143.857 258.766 143.328 259.098L98.6164 284.904C97.5896 285.493 96.7617 285.079 96.7617 283.965C96.8074 283.342 96.9991 282.738 97.3213 282.203C97.6435 281.668 98.0872 281.216 98.6164 280.884Z" fill="#455A64"/>
<path d="M97.7965 288.152L115.078 278.178C115.659 277.844 116.12 278.083 116.12 278.704C116.095 279.053 115.988 279.392 115.806 279.692C115.625 279.993 115.375 280.246 115.078 280.431L97.7965 290.405C97.2234 290.731 96.7617 290.5 96.7617 289.879C96.7859 289.53 96.8923 289.192 97.0721 288.892C97.2519 288.592 97.5002 288.338 97.7965 288.152Z" fill="#E0E0E0"/>
<path d="M88.7782 285.469C87.3603 286.394 86.1802 287.64 85.3338 289.106C84.4874 290.572 83.9985 292.217 83.9067 293.907C83.9067 297.011 86.0878 298.277 88.7782 296.717C90.1971 295.793 91.3778 294.548 92.2243 293.081C93.0709 291.615 93.5592 289.97 93.6498 288.279C93.6498 285.175 91.4687 283.917 88.7782 285.469Z" fill="#1C2945"/>
<path d="M88.2129 290.421C88.0592 290.426 87.9072 290.388 87.775 290.309C87.6163 290.205 87.4888 290.059 87.4061 289.888C87.3234 289.717 87.2886 289.527 87.3054 289.338C87.3271 288.892 87.4555 288.457 87.6799 288.071C87.9043 287.684 88.2181 287.357 88.5949 287.117C88.7498 287.007 88.9318 286.942 89.1212 286.928C89.3106 286.914 89.5002 286.952 89.6696 287.037C89.8283 287.142 89.9558 287.287 90.0385 287.458C90.1212 287.629 90.156 287.819 90.1392 288.009C90.1178 288.454 89.9903 288.888 89.7674 289.274C89.5445 289.661 89.2326 289.988 88.8576 290.229C88.6628 290.348 88.4407 290.414 88.2129 290.421Z" fill="white"/>
<path d="M90.7443 290.747C90.4722 290.612 90.1687 290.553 89.8659 290.577C89.5631 290.601 89.2725 290.706 89.0249 290.882L88.3244 291.288C87.6815 291.699 87.1465 292.259 86.7642 292.919C86.382 293.58 86.1636 294.323 86.1274 295.085V295.587C86.5621 295.777 87.0389 295.85 87.5107 295.8C87.9825 295.75 88.433 295.577 88.8179 295.3C89.9393 294.604 90.8652 293.634 91.5084 292.482V292.363C91.5354 292.05 91.4788 291.735 91.3446 291.452C91.2103 291.168 91.0032 290.925 90.7443 290.747Z" fill="white"/>
<path d="M172.812 240.249L193.46 228.309C194.487 227.72 195.323 228.197 195.323 229.383V233.133C195.282 233.772 195.093 234.393 194.77 234.946C194.446 235.499 193.998 235.968 193.46 236.317L172.812 248.257C171.785 248.846 170.957 248.368 170.957 247.182V243.433C170.996 242.794 171.184 242.174 171.506 241.621C171.829 241.068 172.276 240.598 172.812 240.249Z" fill="#1C2945"/>
<path opacity="0.7" d="M172.812 240.249L193.46 228.309C194.487 227.72 195.323 228.197 195.323 229.383V233.133C195.282 233.772 195.093 234.393 194.77 234.946C194.446 235.499 193.998 235.968 193.46 236.317L172.812 248.257C171.785 248.846 170.957 248.368 170.957 247.182V243.433C170.996 242.794 171.184 242.174 171.506 241.621C171.829 241.068 172.276 240.598 172.812 240.249Z" fill="white"/>
<path d="M202.869 226.685V225.451C202.869 224.05 202.017 223.397 200.958 224.01C200.377 224.427 199.902 224.973 199.57 225.606C199.238 226.239 199.059 226.941 199.048 227.656V228.762C199.026 229.522 198.806 230.263 198.411 230.912C198.316 231.085 198.264 231.279 198.26 231.477C198.26 231.835 198.475 231.994 198.737 231.843L203.195 229.264C203.343 229.161 203.464 229.024 203.548 228.865C203.632 228.706 203.678 228.529 203.681 228.349C203.687 228.279 203.677 228.21 203.652 228.145C203.628 228.08 203.588 228.022 203.537 227.974C203.312 227.848 203.129 227.659 203.01 227.43C202.891 227.201 202.842 226.942 202.869 226.685Z" fill="#455A64"/>
<path d="M201.874 230.402C201.87 230.746 201.786 231.083 201.627 231.388C201.467 231.692 201.238 231.955 200.958 232.153C200.457 232.448 200.043 232.153 200.043 231.461L201.874 230.402Z" fill="#455A64"/>
<path d="M165.417 232.727C165.376 233.014 165.228 233.276 165.003 233.459C165.048 233.57 165.069 233.689 165.067 233.809C165.049 233.982 164.99 234.149 164.896 234.295C164.802 234.442 164.675 234.564 164.525 234.653L162.098 236.062V232.878C162.098 232.822 162.766 231.357 162.822 231.135C162.854 230.758 162.854 230.38 162.822 230.004C162.882 229.891 162.978 229.802 163.095 229.75C163.212 229.698 163.343 229.687 163.467 229.718C163.533 229.75 163.585 229.807 163.61 229.877C163.681 230.037 163.732 230.206 163.761 230.378C163.792 230.682 163.774 230.988 163.706 231.286L165.178 230.434C165.219 230.404 165.266 230.385 165.316 230.378C165.366 230.371 165.417 230.376 165.465 230.394C165.515 230.43 165.555 230.478 165.581 230.534C165.608 230.59 165.62 230.651 165.616 230.713C165.605 230.945 165.522 231.168 165.377 231.349C165.377 231.349 165.672 231.262 165.672 231.652C165.664 231.791 165.628 231.926 165.566 232.051C165.505 232.175 165.419 232.286 165.314 232.376C165.314 232.376 165.417 232.432 165.417 232.727Z" fill="#1C2945"/>
<path d="M161.747 235.855V236.531C161.744 236.579 161.731 236.625 161.707 236.667C161.684 236.708 161.651 236.743 161.612 236.77L160.816 237.224C160.772 237.236 160.725 237.236 160.681 237.224V233.578L161.317 233.212L161.699 232.989C161.71 233.036 161.71 233.085 161.699 233.133L161.747 235.855Z" fill="#1C2945"/>
<path d="M182.643 220.301C182.644 220.253 182.632 220.205 182.61 220.162C182.587 220.12 182.553 220.084 182.512 220.058C182.471 220.032 182.424 220.018 182.376 220.016C182.328 220.014 182.28 220.024 182.237 220.046C182.276 219.909 182.298 219.767 182.3 219.624C182.3 219.354 182.077 219.219 181.759 219.402L179.331 220.803V223.986C179.597 224.268 179.841 224.569 180.063 224.886C180.095 225.265 180.095 225.645 180.063 226.024C180.063 226.144 180.453 225.968 180.708 225.562C180.765 225.461 180.813 225.354 180.851 225.244C180.916 225.023 180.964 224.796 180.995 224.567C181.032 224.283 181.016 223.994 180.947 223.716L182.412 222.872C182.534 222.804 182.633 222.701 182.698 222.578C182.789 222.431 182.841 222.264 182.85 222.092C182.85 221.797 182.69 221.734 182.611 221.726C182.7 221.645 182.772 221.547 182.823 221.437C182.873 221.328 182.901 221.21 182.905 221.089C182.905 220.866 182.77 220.699 182.547 220.779C182.615 220.629 182.647 220.465 182.643 220.301Z" fill="#1C2945"/>
<path d="M178.981 221.407V220.739C178.981 220.651 178.917 220.611 178.838 220.659L178.042 221.105C177.99 221.142 177.942 221.185 177.898 221.232V224.878L178.543 224.512L178.917 224.289C178.94 224.23 178.953 224.168 178.957 224.106L178.981 221.407Z" fill="#1C2945"/>
<path d="M201.388 210.064L198.713 209.268V210.685C197.655 211.136 196.743 211.871 196.079 212.811C194.606 215.007 195.673 216.265 196.166 216.353C196.166 216.353 195.37 215.819 196.246 214.243C196.842 213.372 197.709 212.723 198.713 212.397V213.989L201.388 210.064Z" fill="#1C2945"/>
<path d="M169.333 227.728L172.581 225.857C173.608 225.26 174.436 225.682 174.436 226.796C174.39 227.419 174.198 228.023 173.876 228.558C173.554 229.093 173.11 229.545 172.581 229.877L169.333 231.748C168.306 232.345 167.479 231.923 167.479 230.808C167.524 230.185 167.716 229.582 168.038 229.047C168.36 228.511 168.804 228.06 169.333 227.728Z" fill="#E0E0E0"/>
<path d="M186.734 217.682L189.981 215.804C191.008 215.215 191.836 215.636 191.836 216.743C191.79 217.366 191.599 217.969 191.276 218.505C190.954 219.04 190.51 219.492 189.981 219.823L186.734 221.702C185.707 222.291 184.879 221.877 184.879 220.763C184.925 220.14 185.116 219.536 185.439 219.001C185.761 218.466 186.204 218.014 186.734 217.682Z" fill="#E0E0E0"/>
<path d="M89.0324 177.508L205.511 110.262C206.538 109.665 207.366 110.15 207.366 111.329V194.327C207.327 194.966 207.139 195.587 206.817 196.14C206.495 196.693 206.048 197.163 205.511 197.511L89.0324 264.789C88.0135 265.386 87.1777 264.901 87.1777 263.723V180.692C87.2182 180.054 87.4069 179.434 87.7288 178.881C88.0507 178.328 88.4971 177.858 89.0324 177.508Z" fill="#455A64"/>
<path opacity="0.3" d="M102.493 251.608L187.983 202.455C188.532 202.136 188.986 202.367 188.986 202.964C188.96 203.3 188.856 203.626 188.682 203.915C188.508 204.204 188.268 204.448 187.983 204.628L102.493 253.781C101.936 254.099 101.49 253.868 101.49 253.271C101.514 252.935 101.617 252.608 101.792 252.319C101.966 252.03 102.206 251.786 102.493 251.608Z" fill="white"/>
<path d="M102.493 251.608L179.569 207.31C180.127 206.992 180.572 207.223 180.572 207.82C180.548 208.156 180.445 208.483 180.27 208.772C180.096 209.061 179.856 209.305 179.569 209.483L102.493 253.781C101.936 254.099 101.49 253.868 101.49 253.271C101.514 252.935 101.617 252.608 101.792 252.319C101.966 252.03 102.206 251.786 102.493 251.608Z" fill="white"/>
<path d="M92.0334 257.769V259.902C92.0313 259.955 92.0165 260.006 91.9901 260.052C91.9638 260.098 91.9267 260.136 91.8821 260.165L91.4682 260.404C91.4533 260.414 91.4354 260.421 91.417 260.422C91.3985 260.423 91.3801 260.418 91.3641 260.409C91.348 260.4 91.3351 260.386 91.3267 260.37C91.3183 260.353 91.315 260.334 91.317 260.316V258.183C91.3209 258.13 91.3365 258.08 91.3627 258.034C91.3889 257.989 91.4249 257.95 91.4682 257.92L91.8821 257.681C91.9697 257.633 92.0334 257.673 92.0334 257.769Z" fill="white"/>
<path d="M93.4663 256.941V259.074C93.4642 259.127 93.4494 259.178 93.423 259.224C93.3967 259.27 93.3596 259.309 93.3151 259.337L92.9092 259.576C92.8216 259.623 92.75 259.576 92.75 259.488V257.355C92.7536 257.302 92.7699 257.25 92.7976 257.204C92.8253 257.158 92.8636 257.12 92.9092 257.092L93.3151 256.853C93.4026 256.806 93.4663 256.845 93.4663 256.941Z" fill="white"/>
<path d="M99.1657 253.717V255.85C99.1618 255.903 99.1462 255.953 99.12 255.999C99.0938 256.044 99.0578 256.083 99.0145 256.113L98.8314 256.224C98.7439 256.272 98.6802 256.224 98.6802 256.137V254.004C98.6823 253.951 98.6971 253.9 98.7235 253.854C98.7498 253.808 98.7868 253.769 98.8314 253.741L99.0145 253.63C99.0295 253.619 99.0473 253.612 99.0658 253.611C99.0842 253.61 99.1026 253.615 99.1186 253.624C99.1347 253.633 99.1476 253.647 99.156 253.664C99.1644 253.68 99.1678 253.699 99.1657 253.717Z" fill="white"/>
<path d="M96.1567 255.373V257.466C96.1567 257.618 96.2363 257.649 96.3398 257.53L98.2662 255.309C98.3696 255.19 98.3219 255.094 98.1707 255.094H96.4353C96.3615 255.094 96.2906 255.124 96.2383 255.176C96.1861 255.228 96.1567 255.299 96.1567 255.373Z" fill="white"/>
<path d="M199 196.477C198.934 196.477 198.871 196.451 198.825 196.404C198.779 196.358 198.753 196.295 198.753 196.23V195.529C198.753 195.488 198.764 195.446 198.785 195.41C198.806 195.374 198.836 195.344 198.872 195.323L200.011 194.67C200.038 194.653 200.068 194.642 200.099 194.637C200.13 194.633 200.162 194.634 200.193 194.643C200.223 194.651 200.252 194.665 200.277 194.685C200.302 194.705 200.322 194.729 200.337 194.757C200.367 194.813 200.374 194.877 200.358 194.938C200.342 194.999 200.303 195.051 200.249 195.084L199.238 195.665V196.23C199.239 196.294 199.214 196.356 199.169 196.402C199.124 196.448 199.064 196.475 199 196.477Z" fill="#FAFAFA"/>
<path d="M204.158 193.5C204.095 193.5 204.034 193.475 203.989 193.43C203.944 193.385 203.919 193.324 203.919 193.261V192.966L203.123 193.412C203.096 193.428 203.066 193.438 203.035 193.442C203.004 193.446 202.972 193.444 202.942 193.436C202.912 193.428 202.883 193.414 202.858 193.395C202.833 193.376 202.813 193.352 202.797 193.325C202.78 193.298 202.769 193.268 202.764 193.236C202.76 193.205 202.761 193.173 202.77 193.142C202.778 193.112 202.792 193.083 202.812 193.058C202.832 193.034 202.856 193.013 202.884 192.998L204.015 192.345C204.05 192.322 204.092 192.309 204.134 192.309C204.177 192.309 204.218 192.322 204.254 192.345C204.291 192.365 204.322 192.395 204.343 192.432C204.364 192.468 204.375 192.51 204.373 192.552V193.261C204.373 193.32 204.351 193.378 204.312 193.422C204.272 193.466 204.217 193.494 204.158 193.5Z" fill="#FAFAFA"/>
<path d="M199 199.685C198.96 199.694 198.92 199.694 198.88 199.685C198.843 199.664 198.812 199.634 198.789 199.598C198.767 199.562 198.754 199.52 198.753 199.478V198.769C198.763 198.712 198.793 198.661 198.838 198.624C198.882 198.587 198.938 198.566 198.996 198.566C199.054 198.566 199.109 198.587 199.154 198.624C199.198 198.661 199.228 198.712 199.239 198.769V199L200.035 198.554C200.09 198.525 200.154 198.517 200.215 198.533C200.276 198.55 200.328 198.588 200.361 198.642C200.391 198.698 200.399 198.764 200.383 198.826C200.366 198.888 200.327 198.942 200.273 198.976L199.143 199.629C199.1 199.658 199.051 199.677 199 199.685Z" fill="#FAFAFA"/>
<path d="M203.028 197.36C202.975 197.36 202.924 197.343 202.882 197.311C202.84 197.279 202.81 197.234 202.797 197.183C202.783 197.132 202.787 197.079 202.807 197.03C202.827 196.981 202.863 196.941 202.908 196.915L203.919 196.326V195.76C203.919 195.697 203.944 195.636 203.989 195.592C204.034 195.547 204.095 195.522 204.158 195.522C204.221 195.522 204.282 195.547 204.327 195.592C204.372 195.636 204.397 195.697 204.397 195.76V196.469C204.399 196.511 204.388 196.553 204.367 196.59C204.346 196.626 204.315 196.656 204.277 196.676L203.147 197.328C203.111 197.35 203.07 197.361 203.028 197.36Z" fill="#FAFAFA"/>
<path d="M196.405 199.064H196.365H195.903C195.893 199.065 195.883 199.064 195.873 199.061C195.864 199.058 195.855 199.053 195.847 199.046C195.84 199.039 195.834 199.031 195.83 199.021C195.826 199.012 195.823 199.002 195.824 198.992C195.828 198.921 195.828 198.849 195.824 198.777C195.824 198.698 195.824 198.618 195.824 198.546C195.822 198.497 195.839 198.449 195.871 198.411L196.381 197.79C196.391 197.771 196.397 197.749 196.397 197.726C196.397 197.704 196.391 197.682 196.381 197.663L196.142 197.121C196.142 197.121 196.094 197.121 196.07 197.121L195.521 197.623C195.502 197.636 195.48 197.643 195.457 197.643C195.435 197.643 195.412 197.636 195.394 197.623C195.326 197.564 195.247 197.518 195.163 197.488C195.144 197.481 195.128 197.467 195.118 197.45C195.108 197.432 195.104 197.412 195.107 197.392L195.274 196.596C195.274 196.596 195.274 196.556 195.274 196.54H195.227L194.685 196.596C194.662 196.6 194.639 196.609 194.62 196.623C194.601 196.636 194.585 196.655 194.574 196.676L194.279 197.472C194.257 197.526 194.214 197.569 194.16 197.591C194.045 197.645 193.936 197.708 193.834 197.782C193.786 197.782 193.738 197.782 193.714 197.782L193.443 197.368C193.443 197.368 193.38 197.368 193.34 197.368L192.751 197.989C192.718 198.026 192.701 198.075 192.703 198.124L192.87 198.682C192.884 198.723 192.884 198.768 192.87 198.809C192.775 198.968 192.679 199.119 192.6 199.287C192.57 199.333 192.525 199.366 192.472 199.382L191.971 199.502C191.945 199.507 191.92 199.518 191.9 199.535C191.879 199.551 191.862 199.573 191.851 199.597L191.597 200.449C191.594 200.458 191.594 200.468 191.596 200.478C191.598 200.488 191.603 200.497 191.609 200.505C191.615 200.512 191.623 200.518 191.632 200.523C191.641 200.527 191.651 200.529 191.66 200.528H192.122C192.143 200.528 192.163 200.537 192.178 200.552C192.193 200.567 192.202 200.587 192.202 200.608C192.186 200.753 192.186 200.9 192.202 201.046C192.202 201.095 192.185 201.143 192.154 201.181L191.637 201.81C191.626 201.83 191.621 201.851 191.621 201.874C191.621 201.896 191.626 201.918 191.637 201.937L191.883 202.479C191.883 202.479 191.923 202.479 191.947 202.479L192.496 201.977C192.513 201.964 192.534 201.956 192.556 201.956C192.578 201.956 192.599 201.964 192.616 201.977C192.686 202.035 192.763 202.083 192.846 202.12C192.866 202.126 192.883 202.139 192.894 202.157C192.904 202.175 192.907 202.196 192.902 202.216L192.735 203.012C192.735 203.012 192.735 203.052 192.735 203.068H192.783L193.324 203.012C193.349 203.01 193.374 203.002 193.394 202.988C193.415 202.974 193.432 202.955 193.443 202.932L193.73 202.136C193.757 202.088 193.799 202.049 193.849 202.025L194.017 201.929L194.184 201.834C194.184 201.834 194.279 201.794 194.295 201.834L194.574 202.256C194.587 202.263 194.602 202.267 194.618 202.267C194.633 202.267 194.648 202.263 194.661 202.256L195.25 201.635C195.268 201.619 195.281 201.599 195.289 201.577C195.298 201.555 195.301 201.531 195.298 201.507L195.131 200.95C195.117 200.906 195.117 200.859 195.131 200.815C195.232 200.665 195.322 200.508 195.402 200.345C195.431 200.299 195.476 200.265 195.529 200.25L196.038 200.13C196.086 200.13 196.142 200.075 196.15 200.035L196.405 199.175C196.419 199.175 196.434 199.169 196.444 199.159C196.454 199.148 196.46 199.134 196.46 199.119C196.46 199.105 196.454 199.091 196.444 199.08C196.434 199.07 196.419 199.064 196.405 199.064ZM193.706 201.149H193.507C193.398 201.148 193.292 201.115 193.201 201.055C193.111 200.994 193.04 200.908 192.998 200.807C192.958 200.719 192.934 200.625 192.926 200.528C192.922 200.475 192.922 200.422 192.926 200.369C192.956 199.797 193.19 199.255 193.587 198.841C193.706 198.713 193.842 198.603 193.993 198.514L194.128 198.443C194.248 198.388 194.378 198.361 194.51 198.363H194.574C194.668 198.376 194.757 198.413 194.831 198.472C194.905 198.531 194.962 198.609 194.996 198.698C195.081 199.046 195.071 199.411 194.969 199.755C194.867 200.099 194.676 200.41 194.415 200.656C194.232 200.886 193.985 201.058 193.706 201.149Z" fill="white"/>
<path d="M167.772 140.016C170.288 138.56 172.334 139.738 172.334 142.643C172.246 144.225 171.788 145.764 170.996 147.136C170.203 148.508 169.099 149.674 167.772 150.54C165.257 151.996 163.211 150.818 163.211 147.905C163.298 146.324 163.756 144.786 164.549 143.415C165.341 142.045 166.446 140.88 167.772 140.016Z" fill="#1C2945"/>
<path d="M168.344 148.121C168.287 148.155 168.235 148.162 168.189 148.142C168.149 148.112 168.129 148.064 168.129 147.998V143.247L166.948 144.985C166.908 145.048 166.865 145.094 166.819 145.12C166.756 145.157 166.698 145.151 166.647 145.101L166.138 144.63C166.11 144.594 166.095 144.552 166.095 144.506C166.095 144.412 166.13 144.322 166.199 144.236L168.18 141.301C168.244 141.217 168.313 141.153 168.387 141.11L169.464 140.48C169.527 140.443 169.579 140.436 169.619 140.459C169.66 140.482 169.68 140.531 169.68 140.604V147.091C169.68 147.158 169.66 147.229 169.619 147.306C169.579 147.376 169.527 147.429 169.464 147.466L168.344 148.121Z" fill="#455A64"/>
<path d="M177.985 136.395L200.106 123.659C200.719 123.308 201.205 123.555 201.205 124.216C201.179 124.584 201.066 124.941 200.875 125.256C200.684 125.572 200.421 125.838 200.106 126.031L177.985 138.767C177.38 139.117 176.887 138.87 176.887 138.21C176.918 137.843 177.033 137.488 177.223 137.173C177.414 136.859 177.675 136.592 177.985 136.395Z" fill="#1C2945"/>
<path d="M177.643 140.661L192.823 131.905C193.236 131.666 193.579 131.834 193.579 132.287C193.562 132.541 193.484 132.787 193.352 133.004C193.221 133.221 193.039 133.404 192.823 133.537L177.643 142.293C177.229 142.532 176.887 142.365 176.887 141.911C176.904 141.657 176.981 141.412 177.113 141.194C177.245 140.977 177.426 140.794 177.643 140.661Z" fill="#E0E0E0"/>
<path d="M167.772 155.817C170.288 154.368 172.334 155.546 172.334 158.452C172.246 160.034 171.788 161.573 170.996 162.944C170.203 164.316 169.099 165.482 167.772 166.348C165.257 167.797 163.211 166.619 163.211 163.713C163.299 162.132 163.757 160.592 164.549 159.221C165.342 157.849 166.446 156.683 167.772 155.817Z" fill="#1C2945"/>
<path d="M166.535 164.988C166.472 165.024 166.417 165.033 166.371 165.013C166.331 164.99 166.311 164.942 166.311 164.869V164.16C166.311 163.961 166.383 163.756 166.526 163.545L167.422 162.004C167.945 161.232 168.341 160.638 168.611 160.221C168.881 159.803 169.085 159.448 169.223 159.154C169.361 158.861 169.43 158.618 169.43 158.425C169.43 157.899 169.206 157.767 168.758 158.029C168.522 158.167 168.341 158.356 168.215 158.596C168.089 158.83 168.005 159.081 167.965 159.351C167.931 159.524 167.833 159.658 167.672 159.752L166.595 160.381C166.543 160.412 166.5 160.417 166.466 160.397C166.431 160.377 166.414 160.337 166.414 160.278C166.426 159.845 166.526 159.397 166.716 158.934C166.911 158.46 167.184 158.018 167.534 157.607C167.89 157.186 168.298 156.841 168.758 156.572C169.24 156.29 169.654 156.138 169.998 156.116C170.343 156.094 170.604 156.194 170.782 156.416C170.961 156.638 171.05 156.965 171.05 157.398C171.05 157.864 170.923 158.363 170.67 158.897C170.423 159.421 170.044 160.055 169.533 160.799L168.74 162.191L170.955 160.897C171.018 160.86 171.07 160.853 171.11 160.876C171.156 160.895 171.179 160.942 171.179 161.015V162.023C171.179 162.096 171.156 162.17 171.11 162.243C171.07 162.313 171.018 162.367 170.955 162.404L166.535 164.988Z" fill="#455A64"/>
<path d="M177.985 152.195L200.106 139.459C200.719 139.109 201.205 139.356 201.205 140.008C201.179 140.378 201.066 140.735 200.875 141.052C200.684 141.369 200.421 141.636 200.106 141.831L177.985 154.575C177.38 154.926 176.887 154.679 176.887 154.018C176.916 153.65 177.031 153.294 177.222 152.978C177.412 152.661 177.674 152.393 177.985 152.195Z" fill="#1C2945"/>
<path d="M177.643 156.47L192.823 147.714C193.236 147.467 193.579 147.642 193.579 148.088C193.562 148.341 193.484 148.587 193.352 148.805C193.221 149.022 193.039 149.205 192.823 149.338L177.643 158.094C177.229 158.332 176.887 158.157 176.887 157.711C176.905 157.459 176.983 157.215 177.115 156.999C177.246 156.783 177.427 156.602 177.643 156.47Z" fill="#E0E0E0"/>
<path d="M167.772 171.625C170.288 170.169 172.334 171.347 172.334 174.26C172.247 175.841 171.789 177.379 170.996 178.75C170.204 180.121 169.099 181.285 167.772 182.149C165.257 183.605 163.211 182.427 163.211 179.522C163.299 177.94 163.757 176.401 164.549 175.029C165.342 173.657 166.446 172.491 167.772 171.625Z" fill="#1C2945"/>
<path d="M168.758 179.596C168.201 179.922 167.732 180.096 167.353 180.118C166.98 180.137 166.701 180.053 166.518 179.868C166.339 179.673 166.245 179.429 166.233 179.136C166.233 179.076 166.25 179.016 166.285 178.956C166.325 178.893 166.371 178.846 166.423 178.816L167.551 178.156C167.615 178.119 167.666 178.102 167.707 178.105C167.747 178.108 167.784 178.136 167.819 178.189C167.933 178.468 168.247 178.458 168.758 178.159C169.051 177.988 169.278 177.779 169.438 177.532C169.605 177.275 169.688 177.01 169.688 176.737C169.688 176.205 169.39 176.113 168.792 176.462L167.836 177.022C167.778 177.055 167.727 177.062 167.681 177.042C167.641 177.013 167.62 176.964 167.62 176.898V176.339C167.62 176.193 167.666 176.053 167.758 175.919L169.171 173.706L166.776 175.106C166.719 175.14 166.667 175.147 166.621 175.127C166.581 175.097 166.561 175.049 166.561 174.982V174.044C166.561 173.971 166.581 173.9 166.621 173.829C166.667 173.756 166.719 173.702 166.776 173.669L170.739 171.352C170.803 171.315 170.854 171.308 170.894 171.331C170.94 171.351 170.963 171.397 170.963 171.47V172.319C170.963 172.445 170.917 172.582 170.826 172.729L169.516 174.902L169.576 174.886C170.105 174.657 170.521 174.62 170.826 174.775C171.136 174.919 171.291 175.298 171.291 175.91C171.291 176.356 171.182 176.809 170.963 177.269C170.745 177.729 170.444 178.162 170.059 178.566C169.674 178.971 169.24 179.314 168.758 179.596Z" fill="#455A64"/>
<path d="M177.985 168.004L200.106 155.22C200.719 154.87 201.205 155.124 201.205 155.777C201.179 156.146 201.065 156.504 200.875 156.821C200.684 157.138 200.42 157.405 200.106 157.6L177.985 170.384C177.38 170.734 176.887 170.479 176.887 169.827C176.916 169.459 177.031 169.102 177.222 168.786C177.412 168.47 177.674 168.202 177.985 168.004Z" fill="#1C2945"/>
<path d="M177.643 172.278L192.823 163.522C193.236 163.284 193.579 163.459 193.579 163.904C193.562 164.158 193.484 164.404 193.352 164.621C193.221 164.839 193.039 165.021 192.823 165.154L177.643 173.91C177.229 174.157 176.887 173.982 176.887 173.536C176.903 173.281 176.98 173.034 177.111 172.815C177.243 172.596 177.425 172.412 177.643 172.278Z" fill="#E0E0E0"/>
<path d="M148.056 192.727C142.675 193.38 128.196 193.898 128.196 193.898C118.644 189.703 111.177 180.501 110.23 170.129L109.816 165.663C109.02 157.194 115.109 149.29 123.221 146.743C125.599 145.97 128.12 145.742 130.598 146.077C133.076 146.412 135.447 147.301 137.534 148.677C139.622 150.053 141.372 151.882 142.656 154.028C143.94 156.173 144.725 158.58 144.951 161.071C145.15 163.268 145.747 165.21 147.523 166.643C148.515 167.353 149.583 167.951 150.707 168.426C152.322 169.134 153.793 170.136 155.045 171.379C155.665 172.005 156.15 172.752 156.469 173.574C156.788 174.395 156.935 175.274 156.899 176.155C156.773 177.287 156.329 178.361 155.618 179.251C155.483 179.381 155.403 179.558 155.395 179.745C155.424 179.876 155.487 179.997 155.578 180.095C157.226 182.204 158.093 185.118 157.106 187.601C156.419 189.158 155.212 190.427 153.692 191.191C152.173 191.946 150.536 192.433 148.852 192.632L148.056 192.727Z" fill="#263238"/>
<path d="M194.622 177.715C194.341 177.33 194.018 176.977 193.659 176.664C193.03 176.083 192.163 175.55 191.359 175.868C190.887 176.101 190.498 176.474 190.244 176.935C189.735 177.683 189.13 178.376 188.652 179.148C187.999 180.275 187.245 181.34 186.4 182.332C186.041 182.762 185.524 183.351 184.911 183.168C184.801 183.137 184.702 183.076 184.624 182.992C184.558 182.903 184.514 182.8 184.497 182.69C184.422 182.159 184.452 181.618 184.585 181.098C184.713 180.575 184.713 180.029 184.585 179.506C184.512 179.249 184.358 179.024 184.145 178.863C183.932 178.702 183.673 178.615 183.407 178.614C183.258 178.623 183.118 178.689 183.017 178.798C182.947 178.874 182.893 178.963 182.857 179.06C181.816 181.122 181.058 183.315 180.605 185.579C180.501 186.582 180.32 187.574 180.063 188.549C179.387 190.65 176.927 191.733 175.2 192.95C171.439 195.427 167.554 197.712 163.562 199.796C161.604 198.077 149.234 187.283 145.819 184.433C140.9 180.342 135.678 182.173 134.97 182.228C134.262 182.284 133.322 187.004 139.109 193.85C139.109 193.85 157.154 209.117 160.601 211.099C161.453 211.585 162.607 212.596 164 212.54H164.048H164.223C164.41 212.525 164.594 212.487 164.772 212.429C166.484 211.879 168.927 209.762 169.954 208.966C175.128 204.802 180.086 200.376 184.808 195.705C186.153 194.399 187.681 193.317 189.138 192.131C191.052 190.679 192.672 188.877 193.914 186.821C194.861 185.375 195.438 183.719 195.593 181.997C195.77 180.501 195.427 178.989 194.622 177.715Z" fill="#FFA8A7"/>
<path d="M115.762 219.131C111.504 228.683 110.469 234.255 110.135 239.453C109.8 244.65 110.294 252.515 110.294 252.515L147.889 230.84C147.053 225.543 145.818 220.317 144.196 215.207L115.762 219.131Z" fill="#1C2945"/>
<path d="M144.251 203.394L144.028 213.248C144.522 215.183 145.31 218.343 146.194 221.208C145.636 222.952 141.521 227.64 132.781 230.546C123.547 233.618 113.016 230.45 111.846 228.158L115.508 218.884C115.508 218.884 112.324 206.586 112.276 206.435C112.228 206.283 115.691 201.285 115.922 195.291C116.153 189.297 114.497 186.726 113.972 186.153C114.21 186.049 119.599 184.561 119.599 184.561L130.345 182.411L135.4 182.085C139.611 184.243 143.022 187.69 145.135 191.924C146.112 193.716 146.548 195.754 146.392 197.79C146.235 199.825 145.491 201.772 144.251 203.394Z" fill="#FAFAFA"/>
<path d="M138.138 153.946C139.26 155.093 141.529 157.839 141.322 167.797C141.107 176.242 138.369 178.32 136.992 178.941C135.615 179.562 132.964 179.164 130.393 178.734V182.849C130.393 182.849 134.039 185.388 134.954 187.689C135.67 189.48 131.117 191.979 124.208 189.002C121.382 187.784 119.106 184.688 119.106 184.688L119.193 172.493C119.193 172.493 117.673 173.958 115.11 171.697C112.992 169.843 112.284 166.706 113.94 165.035C114.37 164.637 114.888 164.347 115.452 164.189C116.016 164.03 116.61 164.008 117.184 164.124C117.758 164.24 118.297 164.49 118.756 164.855C119.214 165.219 119.58 165.687 119.822 166.221C123.363 166.275 126.853 165.373 129.923 163.61C135.36 160.601 137.772 157.226 138.138 153.946Z" fill="#FFA8A7"/>
<path d="M131.738 166.276C131.739 166.484 131.68 166.687 131.566 166.861C131.453 167.034 131.292 167.171 131.102 167.254C130.912 167.336 130.701 167.361 130.497 167.326C130.293 167.29 130.104 167.195 129.953 167.053C129.802 166.911 129.696 166.728 129.649 166.526C129.601 166.324 129.614 166.113 129.685 165.918C129.757 165.724 129.884 165.554 130.051 165.431C130.217 165.308 130.417 165.237 130.624 165.226C130.766 165.221 130.907 165.245 131.04 165.296C131.173 165.346 131.295 165.423 131.398 165.52C131.502 165.618 131.585 165.735 131.643 165.864C131.702 165.994 131.734 166.134 131.738 166.276Z" fill="#263238"/>
<path d="M130.926 172.533L134.906 173.257C134.87 173.522 134.782 173.777 134.645 174.007C134.509 174.237 134.327 174.437 134.112 174.595C133.897 174.754 133.651 174.867 133.391 174.928C133.131 174.99 132.861 174.998 132.598 174.953C132.06 174.845 131.585 174.532 131.273 174.08C130.961 173.629 130.837 173.074 130.926 172.533Z" fill="#B16668"/>
<path d="M132.606 174.953C132.868 175.008 133.139 175.008 133.402 174.953C133.381 174.506 133.19 174.084 132.867 173.774C132.544 173.464 132.114 173.291 131.666 173.289C131.425 173.287 131.186 173.335 130.966 173.433C131.067 173.815 131.275 174.161 131.566 174.43C131.856 174.699 132.216 174.88 132.606 174.953Z" fill="#F28F8F"/>
<path d="M140.176 162.87L137.788 161.89C137.843 161.73 137.931 161.582 138.045 161.456C138.16 161.331 138.299 161.23 138.454 161.16C138.609 161.089 138.777 161.052 138.947 161.049C139.117 161.046 139.286 161.078 139.443 161.142C139.762 161.283 140.016 161.54 140.152 161.861C140.288 162.182 140.296 162.543 140.176 162.87Z" fill="#263238"/>
<path d="M139.618 165.496C139.618 165.703 139.557 165.906 139.443 166.078C139.329 166.251 139.167 166.386 138.977 166.468C138.786 166.549 138.576 166.573 138.373 166.537C138.169 166.5 137.981 166.405 137.83 166.262C137.68 166.12 137.575 165.936 137.529 165.735C137.482 165.533 137.495 165.322 137.566 165.128C137.638 164.934 137.765 164.765 137.932 164.643C138.098 164.52 138.297 164.449 138.504 164.438C138.792 164.431 139.071 164.539 139.279 164.737C139.488 164.936 139.61 165.208 139.618 165.496Z" fill="#263238"/>
<path d="M134.644 165.067L135.376 171.244L138.56 169.731L134.644 165.067Z" fill="#F28F8F"/>
<path d="M130.353 178.71C127.639 178.344 122.059 176.728 121.191 174.515C121.536 175.635 122.217 176.621 123.142 177.341C124.805 178.774 130.345 180.397 130.345 180.397L130.353 178.71Z" fill="#F28F8F"/>
<path d="M119.4 169.293C120.095 169.234 120.738 168.902 121.187 168.369C121.636 167.836 121.855 167.146 121.796 166.452C121.737 165.757 121.405 165.114 120.872 164.665C120.339 164.216 119.649 163.997 118.955 164.056L119.4 169.293Z" fill="#263238"/>
<path d="M92.3361 224.265C93.5062 231.278 96.0694 237.797 103.759 250.859C104.637 252.455 105.707 253.939 106.943 255.277C108.24 256.681 109.815 257.801 111.567 258.565C112.591 258.994 113.728 259.069 114.799 258.78C116.885 258.278 118.66 256.662 118.819 255.667C119.034 254.33 116.638 252.977 115.699 252.006C114.903 251.21 113.311 249.864 112.777 249.132C112.244 248.4 111.639 247.811 112.308 247.835C112.714 247.835 113.104 247.986 113.494 248.034C113.827 248.065 114.163 248.065 114.497 248.034C114.831 248.058 115.167 248.008 115.481 247.888C115.794 247.769 116.078 247.582 116.312 247.341C116.411 247.22 116.472 247.072 116.487 246.916C116.503 246.761 116.472 246.604 116.399 246.465C116.246 246.275 116.041 246.132 115.81 246.052C115.074 245.773 114.359 245.443 113.669 245.065C112.982 244.67 112.32 244.234 111.687 243.759C110.716 242.963 109.394 242.103 108.797 240.997C107.304 238.321 106.169 235.46 105.422 232.488C104.881 230.418 103.83 226.446 103.289 222.681C103.464 222.203 105.892 217.738 107.46 215.143C109.713 211.41 111.862 208.21 113.94 204.882C118.325 199.533 117.92 189.337 114.035 186.161C107.205 187.912 105.239 190.849 102.987 195.203C100.79 199.438 94.8833 211.25 92.9331 217.085C92.145 219.393 91.9399 221.859 92.3361 224.265Z" fill="#FFA8A7"/>
</svg>
