<svg width="40" height="34" viewBox="0 0 40 34" fill="none" xmlns="http://www.w3.org/2000/svg">
<path d="M40 4.59837C38.529 5.25018 36.9488 5.6906 35.2876 5.88966C37.0017 4.86402 38.2841 3.24977 38.8954 1.34813C37.285 2.30469 35.5225 2.978 33.6845 3.33879C32.4485 2.01908 30.8113 1.14435 29.0273 0.85042C27.2432 0.556485 25.412 0.859787 23.8179 1.71324C22.2239 2.56669 20.9562 3.92254 20.2117 5.57028C19.4672 7.21803 19.2875 9.06547 19.7005 10.8258C16.4374 10.662 13.2452 9.81382 10.3311 8.33642C7.41693 6.85903 4.84602 4.78539 2.78517 2.2501C2.08051 3.46563 1.67533 4.87495 1.67533 6.37588C1.67454 7.72705 2.00728 9.05753 2.64402 10.2493C3.28076 11.441 4.20182 12.4572 5.32546 13.2076C4.02233 13.1661 2.74795 12.814 1.60839 12.1805V12.2862C1.60825 14.1813 2.26378 16.018 3.46372 17.4848C4.66367 18.9516 6.33413 19.9581 8.19167 20.3334C6.9828 20.6606 5.71538 20.7088 4.48516 20.4744C5.00924 22.105 6.03012 23.5309 7.40486 24.5524C8.7796 25.574 10.4394 26.1401 12.1519 26.1715C9.24484 28.4536 5.65469 29.6915 1.95895 29.686C1.30429 29.6862 0.650183 29.648 0 29.5715C3.75139 31.9835 8.11828 33.2636 12.5782 33.2586C27.6755 33.2586 35.9288 20.7545 35.9288 9.90974C35.9288 9.55741 35.92 9.20156 35.9042 8.84923C37.5095 7.68826 38.8953 6.25062 39.9965 4.60366L40 4.59837Z" fill="white"/>
</svg>
