<svg width="40" height="28" viewBox="0 0 40 28" fill="none" xmlns="http://www.w3.org/2000/svg">
<path d="M39.1624 4.84619C38.936 4.03835 38.4948 3.30697 37.8859 2.72981C37.2598 2.1349 36.4925 1.70934 35.6562 1.49331C32.5267 0.66842 19.9883 0.66842 19.9883 0.66842C14.7613 0.608949 9.53546 0.870517 4.34044 1.45165C3.50421 1.68364 2.73827 2.1187 2.11074 2.71814C1.49416 3.3114 1.04755 4.04297 0.814252 4.84453C0.253816 7.86369 -0.0184822 10.9293 0.0010285 14C-0.0189688 17.0679 0.252661 20.1325 0.814252 23.1554C1.04255 23.9536 1.4875 24.6819 2.10575 25.2701C2.724 25.8584 3.49389 26.2833 4.34044 26.5083C7.51168 27.3315 19.9883 27.3315 19.9883 27.3315C25.2221 27.3911 30.4545 27.1295 35.6562 26.5483C36.4925 26.3322 37.2598 25.9067 37.8859 25.3118C38.5025 24.7235 38.9408 23.992 39.1608 23.1954C39.7358 20.1774 40.0154 17.1105 39.9956 14.0383C40.0389 10.953 39.7596 7.87173 39.1624 4.84453V4.84619ZM16.0022 19.7059V8.29573L26.4341 14.0016L16.0022 19.7059Z" fill="white"/>
</svg>
